<svg width="16" height="17" viewBox="0 0 16 17" fill="none" xmlns="http://www.w3.org/2000/svg">
<path d="M7.1001 3.25V6.75C7.1001 7.01522 6.99474 7.26957 6.8072 7.45711C6.61967 7.64464 6.36531 7.75 6.1001 7.75H2.6001C2.33488 7.75 2.08053 7.64464 1.89299 7.45711C1.70545 7.26957 1.6001 7.01522 1.6001 6.75V3.25C1.6001 2.98478 1.70545 2.73043 1.89299 2.54289C2.08053 2.35536 2.33488 2.25 2.6001 2.25H6.1001C6.36531 2.25 6.61967 2.35536 6.8072 2.54289C6.99474 2.73043 7.1001 2.98478 7.1001 3.25ZM13.1001 2.25H9.6001C9.33488 2.25 9.08053 2.35536 8.89299 2.54289C8.70545 2.73043 8.6001 2.98478 8.6001 3.25V6.75C8.6001 7.01522 8.70545 7.26957 8.89299 7.45711C9.08053 7.64464 9.33488 7.75 9.6001 7.75H13.1001C13.3653 7.75 13.6197 7.64464 13.8072 7.45711C13.9947 7.26957 14.1001 7.01522 14.1001 6.75V3.25C14.1001 2.98478 13.9947 2.73043 13.8072 2.54289C13.6197 2.35536 13.3653 2.25 13.1001 2.25ZM6.1001 9.25H2.6001C2.33488 9.25 2.08053 9.35536 1.89299 9.54289C1.70545 9.73043 1.6001 9.98478 1.6001 10.25V13.75C1.6001 14.0152 1.70545 14.2696 1.89299 14.4571C2.08053 14.6446 2.33488 14.75 2.6001 14.75H6.1001C6.36531 14.75 6.61967 14.6446 6.8072 14.4571C6.99474 14.2696 7.1001 14.0152 7.1001 13.75V10.25C7.1001 9.98478 6.99474 9.73043 6.8072 9.54289C6.61967 9.35536 6.36531 9.25 6.1001 9.25ZM11.3501 9.25C10.8062 9.25 10.2745 9.41128 9.82228 9.71346C9.37004 10.0156 9.01757 10.4451 8.80943 10.9476C8.60129 11.4501 8.54683 12.003 8.65294 12.5365C8.75905 13.0699 9.02096 13.5599 9.40555 13.9445C9.79015 14.3291 10.2802 14.5911 10.8136 14.6972C11.347 14.8033 11.9 14.7488 12.4025 14.5407C12.905 14.3325 13.3345 13.9801 13.6366 13.5278C13.9388 13.0756 14.1001 12.5439 14.1001 12C14.1001 11.2707 13.8104 10.5712 13.2946 10.0555C12.7789 9.53973 12.0794 9.25 11.3501 9.25Z" fill="black"/>
</svg>
