<svg width="26" height="26" viewBox="0 0 26 26" fill="none" xmlns="http://www.w3.org/2000/svg">
<g clip-path="url(#clip0_7852_26290)">
<path d="M3.81758 8.68115C3.72681 8.59028 3.60083 8.53809 3.47241 8.53809C3.34399 8.53809 3.21807 8.59033 3.1272 8.68115C3.03633 8.77197 2.98413 8.89795 2.98413 9.02637C2.98413 9.15479 3.03633 9.28076 3.1272 9.37153C3.21802 9.4624 3.34399 9.51465 3.47241 9.51465C3.60083 9.51465 3.72681 9.4624 3.81758 9.37153C3.90845 9.28076 3.96069 9.15479 3.96069 9.02637C3.96069 8.89795 3.90845 8.77197 3.81758 8.68115Z" fill="black" fill-opacity="0.7"/>
<path d="M22.2224 0.384766H12.3429C12.0732 0.384766 11.8546 0.603418 11.8546 0.873047C11.8546 1.14268 12.0732 1.36133 12.3429 1.36133H22.2224C22.4917 1.36133 22.7107 1.58037 22.7107 1.84961V23.9199C22.7107 24.1892 22.4917 24.4082 22.2224 24.4082H4.44897C4.17974 24.4082 3.96069 24.1892 3.96069 23.9199V10.8502C3.96069 10.5806 3.74204 10.362 3.47241 10.362C3.20278 10.362 2.98413 10.5806 2.98413 10.8502V23.9199C2.98413 24.7276 3.64126 25.3848 4.44897 25.3848H22.2224C23.0301 25.3848 23.6873 24.7276 23.6873 23.9199V1.84961C23.6873 1.04189 23.0301 0.384766 22.2224 0.384766Z" fill="black" fill-opacity="0.7"/>
<path d="M13.3349 2.33887C13.0027 2.33887 12.6688 2.36426 12.3425 2.41426C12.076 2.45518 11.893 2.70435 11.9339 2.9709C11.9748 3.23745 12.2241 3.42017 12.4905 3.37954C12.768 3.33696 13.0521 3.31543 13.3349 3.31543C16.3774 3.31543 18.8525 5.79063 18.8525 8.83306C18.8525 10.1841 18.3642 11.423 17.555 12.3834C17.1969 11.7676 16.7079 11.2365 16.1143 10.8246C15.7678 10.5841 15.3956 10.3922 15.006 10.2502C15.4507 9.81548 15.7275 9.20967 15.7275 8.54014V8.06406C15.7275 6.74473 14.6542 5.67144 13.3349 5.67144C12.0156 5.67144 10.9423 6.74473 10.9423 8.06406V8.54014C10.9423 9.20967 11.2191 9.81548 11.6639 10.2502C11.2743 10.3922 10.9021 10.5841 10.5556 10.8246C9.95914 11.2385 9.46812 11.7726 9.10963 12.392C8.49308 11.6594 8.06212 10.7582 7.89351 9.75288C7.84893 9.48701 7.59693 9.30762 7.33121 9.3521C7.06524 9.39668 6.8858 9.64844 6.93038 9.91441C7.18145 11.4115 7.95865 12.7818 9.11886 13.7729C10.2922 14.7752 11.7896 15.3273 13.3349 15.3273C16.9158 15.3273 19.8291 12.414 19.8291 8.83311C19.8291 5.2522 16.9158 2.33887 13.3349 2.33887ZM11.9189 8.06401C11.9189 7.2832 12.5542 6.64795 13.3349 6.64795C14.1157 6.64795 14.7509 7.2832 14.7509 8.06401V8.54009C14.7509 9.32085 14.1157 9.9561 13.3349 9.9561C12.5542 9.9561 11.9189 9.32085 11.9189 8.54009V8.06401ZM13.3349 14.3507C12.0129 14.3507 10.7908 13.8891 9.83424 13.1064C10.4899 11.7758 11.8303 10.9327 13.3349 10.9327C14.8364 10.9327 16.1743 11.7723 16.8314 13.0981C15.8789 13.8804 14.6608 14.3507 13.3349 14.3507Z" fill="black" fill-opacity="0.7"/>
<path d="M17.845 19.8174H10.9114C10.6417 19.8174 10.4231 20.036 10.4231 20.3057C10.4231 20.5753 10.6417 20.7939 10.9114 20.7939H17.845C18.1146 20.7939 18.3333 20.5753 18.3333 20.3057C18.3333 20.036 18.1146 19.8174 17.845 19.8174Z" fill="black" fill-opacity="0.7"/>
<path d="M9.17041 17.2271C9.07959 17.1362 8.95361 17.084 8.8252 17.084C8.69678 17.084 8.5708 17.1362 8.47998 17.2271C8.38916 17.3179 8.33691 17.4438 8.33691 17.5723C8.33691 17.7011 8.38921 17.8267 8.47998 17.9174C8.5708 18.0083 8.69678 18.0605 8.8252 18.0605C8.95361 18.0605 9.07959 18.0083 9.17041 17.9174C9.26172 17.8267 9.31348 17.7007 9.31348 17.5723C9.31348 17.4438 9.26172 17.3179 9.17041 17.2271Z" fill="black" fill-opacity="0.7"/>
<path d="M9.17017 19.9604C9.07935 19.8696 8.95386 19.8174 8.82495 19.8174C8.69653 19.8174 8.57056 19.8696 8.47974 19.9604C8.38892 20.0513 8.33667 20.1772 8.33667 20.3057C8.33667 20.4345 8.38897 20.5601 8.47974 20.6508C8.57056 20.7417 8.69653 20.7939 8.82495 20.7939C8.95337 20.7939 9.07935 20.7417 9.17017 20.6508C9.26148 20.5601 9.31323 20.4346 9.31323 20.3057C9.31323 20.1772 9.26148 20.0513 9.17017 19.9604Z" fill="black" fill-opacity="0.7"/>
<path d="M17.8452 17.084H10.9116C10.642 17.084 10.4233 17.3026 10.4233 17.5723C10.4233 17.8419 10.642 18.0605 10.9116 18.0605H17.8452C18.1149 18.0605 18.3335 17.8419 18.3335 17.5723C18.3335 17.3026 18.1148 17.084 17.8452 17.084Z" fill="black" fill-opacity="0.7"/>
<path d="M8.72631 3.19863C8.53554 3.00801 8.22645 3.00801 8.03573 3.19863L6.44559 4.78877L5.90219 4.24536C5.71141 4.05474 5.40233 4.05474 5.21161 4.24536C5.02094 4.43608 5.02094 4.74526 5.21161 4.93594L6.10028 5.82461C6.19564 5.91992 6.32054 5.96763 6.44554 5.96763C6.57054 5.96763 6.69545 5.91992 6.79086 5.82466L8.72631 3.88921C8.91698 3.69849 8.91698 3.38931 8.72631 3.19863Z" fill="black" fill-opacity="0.7"/>
<path d="M6.98804 0.384766C4.78027 0.384766 2.98413 2.18091 2.98413 4.38867C2.98413 6.59644 4.78027 8.39258 6.98804 8.39258C9.1958 8.39258 10.9919 6.59644 10.9919 4.38867C10.9919 2.18091 9.1958 0.384766 6.98804 0.384766ZM6.98804 7.41602C5.31875 7.41602 3.96069 6.05796 3.96069 4.38867C3.96069 2.71939 5.31875 1.36133 6.98804 1.36133C8.65733 1.36133 10.0154 2.71939 10.0154 4.38867C10.0154 6.05796 8.65733 7.41602 6.98804 7.41602Z" fill="black" fill-opacity="0.7"/>
</g>
<defs>
<clipPath id="clip0_7852_26290">
<rect width="25" height="25" fill="white" transform="translate(0.834961 0.384766)"/>
</clipPath>
</defs>
</svg>
