<svg width="300" height="200" viewBox="0 0 300 200" fill="none" xmlns="http://www.w3.org/2000/svg">
<g clip-path="url(#clip0_5960_14158)">
<path d="M233.301 117.18C234.481 138.932 191.954 183.162 139.536 166.791C115.157 159.176 117.222 146.538 98.6846 129.881C87.6353 119.953 71.7593 112.446 67.3436 98.0153C63.5289 85.5596 65.8683 72.1716 72.4813 63.4633C87.3543 43.8793 117.38 30.4689 146.965 61.3253C176.549 92.1816 230.25 61.0793 233.301 117.18Z" fill="white"/>
<path d="M221.643 69.2315C217.507 76.6138 208.448 77.6281 193.934 76.2255C183.019 75.1685 173.065 74.3505 162.148 68.3988C154.508 64.2358 148.46 58.6038 144.045 53.1338C139.262 47.2078 132.585 40.4445 135.858 33.7255C140.356 24.4955 166.368 16.7221 191.627 29.4345C219.373 43.4031 225.69 62.0161 221.643 69.2315Z" fill="white"/>
<path d="M116.357 159.519C106.72 146.037 96.8508 131.709 83.9302 124.651C70.6025 117.368 68.1448 121.857 67.2222 128.993C66.2995 136.129 70.4115 153.038 88.5998 162.658C106.793 172.281 125.374 172.137 116.357 159.519Z" fill="white"/>
<path d="M199.374 26.6665H100.667C96.9848 26.6665 94 29.6513 94 33.3332V62.9668C94 66.6487 96.9848 69.6335 100.667 69.6335H199.374C203.056 69.6335 206.04 66.6487 206.04 62.9668V33.3332C206.04 29.6513 203.056 26.6665 199.374 26.6665Z" fill="white" stroke="#E1E4E5" stroke-width="1.33333"/>
<path d="M191.992 39.8618H128.734C127.34 39.8618 126.211 40.9913 126.211 42.3845C126.211 43.7777 127.34 44.9071 128.734 44.9071H191.992C193.385 44.9071 194.515 43.7777 194.515 42.3845C194.515 40.9913 193.385 39.8618 191.992 39.8618Z" fill="#E1E4E5"/>
<path d="M167.93 51.1167H128.734C127.34 51.1167 126.211 52.2461 126.211 53.6394C126.211 55.0326 127.34 56.162 128.734 56.162H167.93C169.323 56.162 170.453 55.0326 170.453 53.6394C170.453 52.2461 169.323 51.1167 167.93 51.1167Z" fill="#E1E4E5"/>
<rect x="101.172" y="39.0625" width="20.314" height="20.314" fill="black"/>
<path d="M114.692 46.875L110.149 51.722L107.422 48.8143" stroke="white" stroke-width="1.18933" stroke-linecap="round" stroke-linejoin="round"/>
<path d="M199.374 78.4321H100.667C96.9848 78.4321 94 81.4169 94 85.0988V114.732C94 118.414 96.9848 121.399 100.667 121.399H199.374C203.056 121.399 206.04 118.414 206.04 114.732V85.0988C206.04 81.4169 203.056 78.4321 199.374 78.4321Z" fill="white" stroke="#E1E4E5" stroke-width="1.33333"/>
<path d="M191.992 91.627H128.734C127.34 91.627 126.211 92.7564 126.211 94.1496C126.211 95.5428 127.34 96.6723 128.734 96.6723H191.992C193.385 96.6723 194.515 95.5428 194.515 94.1496C194.515 92.7564 193.385 91.627 191.992 91.627Z" fill="#E1E4E5"/>
<path d="M167.93 102.882H128.734C127.34 102.882 126.211 104.011 126.211 105.405C126.211 106.798 127.34 107.927 128.734 107.927H167.93C169.323 107.927 170.453 106.798 170.453 105.405C170.453 104.011 169.323 102.882 167.93 102.882Z" fill="#E1E4E5"/>
<rect x="101.953" y="89.8438" width="20.314" height="20.314" fill="black"/>
<path d="M115.473 97.6562L110.93 102.503L108.203 99.5956" stroke="white" stroke-width="1.18933" stroke-linecap="round" stroke-linejoin="round"/>
<path d="M199.374 130.198H100.667C96.9848 130.198 94 133.183 94 136.864V166.498C94 170.18 96.9848 173.165 100.667 173.165H199.374C203.056 173.165 206.04 170.18 206.04 166.498V136.864C206.04 133.183 203.056 130.198 199.374 130.198Z" fill="white" stroke="#E1E4E5" stroke-width="1.33333"/>
<path d="M191.992 143.393H128.734C127.34 143.393 126.211 144.522 126.211 145.915C126.211 147.308 127.34 148.438 128.734 148.438H191.992C193.385 148.438 194.515 147.308 194.515 145.915C194.515 144.522 193.385 143.393 191.992 143.393Z" fill="#E1E4E5"/>
<path d="M167.93 154.647H128.734C127.34 154.647 126.211 155.777 126.211 157.17C126.211 158.563 127.34 159.693 128.734 159.693H167.93C169.323 159.693 170.453 158.563 170.453 157.17C170.453 155.777 169.323 154.647 167.93 154.647Z" fill="#E1E4E5"/>
<rect x="101.953" y="141.406" width="20.314" height="20.314" fill="black"/>
<path d="M115.473 149.219L110.93 154.066L108.203 151.158" stroke="white" stroke-width="1.18933" stroke-linecap="round" stroke-linejoin="round"/>
<path d="M214.593 59.0737C214.427 59.6912 214.794 60.326 215.411 60.4915C216.029 60.657 216.664 60.2905 216.829 59.6729C216.995 59.0553 216.628 58.4205 216.011 58.2551C215.393 58.0896 214.758 58.4561 214.593 59.0737Z" fill="#E1E4E5"/>
<path d="M221.282 81.3442C222.261 81.3442 223.055 80.5505 223.055 79.5715C223.055 78.5925 222.261 77.7988 221.282 77.7988C220.303 77.7988 219.51 78.5925 219.51 79.5715C219.51 80.5505 220.303 81.3442 221.282 81.3442Z" fill="black"/>
<path d="M80.8016 137.731C79.3329 137.731 78.1423 138.921 78.1423 140.39C78.1423 141.859 79.3329 143.049 80.8016 143.049C82.2703 143.049 83.4609 141.859 83.4609 140.39C83.4609 138.921 82.2703 137.731 80.8016 137.731Z" fill="black"/>
<path d="M74.6565 83.8819C73.6265 83.8819 72.7915 83.0469 72.7915 82.0169C72.7915 80.9868 73.6265 80.1519 74.6565 80.1519C75.6865 80.1519 76.5215 80.9868 76.5215 82.0169C76.5215 83.0469 75.6865 83.8819 74.6565 83.8819Z" fill="black"/>
<path d="M59.8817 117.166C58.0214 117.166 56.5133 115.658 56.5133 113.798C56.5133 111.938 58.0214 110.43 59.8817 110.43C61.7419 110.43 63.25 111.938 63.25 113.798C63.25 115.658 61.7419 117.166 59.8817 117.166Z" fill="#E1E4E5"/>
<path d="M224.751 140.922C222.891 140.922 221.382 139.414 221.382 137.554C221.382 135.694 222.891 134.186 224.751 134.186C226.611 134.186 228.119 135.694 228.119 137.554C228.119 139.414 226.611 140.922 224.751 140.922Z" fill="#E1E4E5"/>
<path d="M82.1085 100.74C82.3453 101.624 81.8207 102.532 80.9368 102.769C80.0528 103.006 79.1442 102.482 78.9074 101.598C78.6705 100.714 79.1951 99.8051 80.0791 99.5682C80.963 99.3314 81.8716 99.8559 82.1085 100.74Z" fill="#E1E4E5"/>
<path d="M215.44 103.521C215.677 104.405 215.153 105.313 214.269 105.55C213.385 105.787 212.476 105.262 212.239 104.378C212.003 103.494 212.527 102.586 213.411 102.349C214.295 102.112 215.204 102.637 215.44 103.521Z" fill="#E1E4E5"/>
<path d="M82.4539 65.9092C81.2364 65.9092 80.2495 64.9222 80.2495 63.7048C80.2495 62.4874 81.2364 61.5005 82.4539 61.5005C83.6713 61.5005 84.6582 62.4874 84.6582 63.7048C84.6582 64.9222 83.6713 65.9092 82.4539 65.9092Z" fill="#E1E4E5"/>
</g>
<defs>
<clipPath id="clip0_5960_14158">
<rect width="300" height="200" fill="white"/>
</clipPath>
</defs>
</svg>
