<svg width="46" height="46" viewBox="0 0 46 46" fill="none" xmlns="http://www.w3.org/2000/svg">
<path d="M14.2988 37.0684H10.6188C4.98376 36.6659 2.45386 32.3342 2.45386 28.4817C2.45386 24.6292 4.98378 20.2784 10.5229 19.8951C11.3088 19.8184 11.9988 20.4317 12.0563 21.2367C12.1138 22.0225 11.5197 22.7126 10.7147 22.7701C6.99635 23.0384 5.32886 25.8367 5.32886 28.5009C5.32886 31.165 6.99635 33.9634 10.7147 34.2317H14.2988C15.0847 34.2317 15.7363 34.8834 15.7363 35.6692C15.7363 36.455 15.0847 37.0684 14.2988 37.0684Z" fill="#292D32"/>
<path d="M31.9507 37.0683C31.9124 37.0683 31.8932 37.0683 31.8549 37.0683C31.0691 37.0683 30.3408 36.4167 30.3408 35.6308C30.3408 34.8067 30.9541 34.1933 31.7591 34.1933C34.1166 34.1933 36.2249 33.3692 37.8733 31.8933C40.8633 29.2867 41.0549 25.53 40.2499 22.885C39.4449 20.2592 37.2024 17.25 33.2924 16.7708C32.6599 16.6942 32.1615 16.215 32.0465 15.5825C31.2799 10.9825 28.8074 7.80084 25.0508 6.65084C21.1791 5.44334 16.6557 6.63167 13.8382 9.58334C11.0974 12.4392 10.4649 16.445 12.0557 20.8533C12.324 21.6008 11.9408 22.425 11.1933 22.6933C10.4458 22.9617 9.62159 22.5783 9.35326 21.8308C7.41743 16.4258 8.29911 11.2508 11.7683 7.60917C15.3141 3.89084 21.0066 2.41499 25.8941 3.90999C30.3791 5.28999 33.5415 8.98916 34.6915 14.1258C38.6015 15.0075 41.7449 17.9783 42.9907 22.08C44.3516 26.5458 43.1249 31.1458 39.7707 34.0592C37.6432 35.9758 34.864 37.0683 31.9507 37.0683Z" fill="#292D32"/>
<path d="M23.0001 42.7034C19.1476 42.7034 15.5443 40.6526 13.5701 37.3367C13.3593 37.0109 13.1485 36.6276 12.976 36.2059C12.3243 34.8451 11.9792 33.2926 11.9792 31.6826C11.9792 25.6067 16.9242 20.6617 23.0001 20.6617C29.0759 20.6617 34.0209 25.6067 34.0209 31.6826C34.0209 33.3117 33.676 34.8451 32.986 36.2634C32.8326 36.6276 32.6218 37.0109 32.3918 37.3751C30.456 40.6526 26.8526 42.7034 23.0001 42.7034ZM23.0001 23.5367C18.5151 23.5367 14.8542 27.1976 14.8542 31.6826C14.8542 32.8709 15.1034 33.9825 15.5826 34.9984C15.7359 35.3242 15.8701 35.5926 16.0234 35.8417C17.4801 38.3142 20.1442 39.8284 22.9809 39.8284C25.8176 39.8284 28.4817 38.3142 29.9192 35.8801C30.0917 35.5926 30.2451 35.3242 30.3601 35.0559C30.8776 34.0017 31.1267 32.89 31.1267 31.7017C31.1459 27.1975 27.4851 23.5367 23.0001 23.5367Z" fill="#292D32"/>
<path d="M21.9074 35.0174C21.5432 35.0174 21.1791 34.8833 20.8916 34.5958L18.994 32.6983C18.4382 32.1424 18.4382 31.2224 18.994 30.6666C19.5499 30.1108 20.4699 30.1108 21.0257 30.6666L21.9458 31.5866L25.0124 28.7499C25.6066 28.2133 26.5074 28.2516 27.044 28.8266C27.5807 29.4016 27.5424 30.3216 26.9674 30.8583L22.8849 34.6341C22.5974 34.8833 22.2524 35.0174 21.9074 35.0174Z" fill="#292D32"/>
</svg>
