<svg width="14" height="14" viewBox="0 0 14 14" fill="none" xmlns="http://www.w3.org/2000/svg">
<g id="comment 1" clip-path="url(#clip0_8074_12844)">
<g id="g735">
<g id="g737">
<g id="Clip path group">
<mask id="mask0_8074_12844" style="mask-type:luminance" maskUnits="userSpaceOnUse" x="0" y="0" width="14" height="14">
<g id="clipPath743">
<path id="path741" d="M0.00268555 0.38977H13.2272V13.6143H0.00268555V0.38977Z" fill="white"/>
</g>
</mask>
<g mask="url(#mask0_8074_12844)">
<g id="g739">
<g id="g745">
<path id="path747" d="M8.89675 7.51772H9.39613M3.56736 7.51772H7.09734M3.56736 4.46989H9.66302M12.7109 2.45522V9.52808C12.7109 10.384 12.017 11.0778 11.1611 11.0778H5.78603C5.65817 11.0778 5.53554 11.1286 5.44511 11.2191L3.77777 12.8864C3.64307 13.0211 3.46033 13.0968 3.26979 13.0968C2.87305 13.0968 2.55143 12.7752 2.55143 12.3784V11.56C2.55143 11.2937 2.33557 11.0778 2.06928 11.0778C1.21338 11.0778 0.519531 10.384 0.519531 9.52808V2.45522C0.519531 1.59932 1.21338 0.905478 2.06928 0.905478H11.1611C12.017 0.905478 12.7109 1.59932 12.7109 2.45522Z" stroke="#828282" stroke-width="1.03316" stroke-miterlimit="10" stroke-linecap="round" stroke-linejoin="round"/>
</g>
</g>
</g>
</g>
</g>
</g>
</g>
<defs>
<clipPath id="clip0_8074_12844">
<rect width="13.2245" height="13.2245" fill="white" transform="translate(0 0.387695)"/>
</clipPath>
</defs>
</svg>
