<svg width="32" height="32" viewBox="0 0 32 32" fill="none" xmlns="http://www.w3.org/2000/svg">
<g id="Component 24">
<path id="Vector" fill-rule="evenodd" clip-rule="evenodd" d="M14.1828 6.16486C14.7727 6.05651 15.3801 6 16 6C21.5228 6 26 10.4771 26 16C26 21.5228 21.5228 26 16 26C15.3801 26 14.7727 25.9435 14.1828 25.8352C13.7301 25.752 13.4306 25.3177 13.5137 24.865C13.5969 24.4123 14.0312 24.1127 14.4839 24.1959C14.9749 24.2861 15.4816 24.3333 16 24.3333C20.6023 24.3333 24.3333 20.6023 24.3333 16C24.3333 11.3976 20.6023 7.66667 16 7.66667C15.4816 7.66667 14.9749 7.71391 14.4839 7.8041C14.0312 7.88725 13.5969 7.5877 13.5137 7.13503C13.4306 6.68237 13.7301 6.24801 14.1828 6.16486ZM12.138 7.6424C12.3685 8.04078 12.2323 8.55056 11.8339 8.78101C10.6971 9.43862 9.72957 10.3574 9.01383 11.4551C8.76247 11.8407 8.24616 11.9494 7.86063 11.6981C7.4751 11.4467 7.36635 10.9304 7.61772 10.5449C8.4759 9.22865 9.6356 8.12724 10.9994 7.33833C11.3978 7.10787 11.9075 7.24402 12.138 7.6424ZM20.7391 12.8944C21.0736 13.2105 21.0884 13.7379 20.7723 14.0724L15.4114 19.7443C14.8792 20.3074 13.9958 20.3074 13.4636 19.7443L11.2277 17.3787C10.9116 17.0442 10.9264 16.5168 11.2609 16.2007C11.5954 15.8846 12.1228 15.8994 12.439 16.2339L14.4375 18.3484L19.561 12.9276C19.8772 12.5931 20.4046 12.5782 20.7391 12.8944ZM7.25975 13.105C7.70804 13.2091 7.987 13.657 7.88282 14.1053C7.74154 14.7132 7.66667 15.3473 7.66667 16C7.66667 16.6527 7.74154 17.2868 7.88282 17.8947C7.987 18.343 7.70804 18.7908 7.25975 18.895C6.81146 18.9992 6.36359 18.7203 6.25941 18.272C6.08959 17.5413 6 16.7806 6 16C6 15.2194 6.08959 14.4587 6.25941 13.728C6.36359 13.2797 6.81146 13.0008 7.25975 13.105ZM7.86063 20.3019C8.24616 20.0506 8.76247 20.1593 9.01383 20.5448C9.72957 21.6426 10.6971 22.5613 11.8339 23.219C12.2323 23.4494 12.3685 23.9592 12.138 24.3576C11.9075 24.756 11.3978 24.8921 10.9994 24.6617C9.6356 23.8727 8.4759 22.7713 7.61772 21.4552C7.36635 21.0696 7.4751 20.5533 7.86063 20.3019Z" fill="#F2994A"/>
</g>
</svg>
