<svg width="30" height="30" viewBox="0 0 30 30" fill="none" xmlns="http://www.w3.org/2000/svg">
<g id="Component 3" clip-path="url(#clip0_8074_12105)">
<path id="Vector" d="M0.811705 10.5503C0.840224 10.6444 0.898258 10.7269 0.977235 10.7855C1.05621 10.8441 1.15194 10.8757 1.25028 10.8757H1.70856V12.2506C1.70856 12.3721 1.75684 12.4887 1.84279 12.5746C1.92873 12.6606 2.0453 12.7088 2.16684 12.7088H3.54169V14.0837C3.54169 14.2052 3.58997 14.3218 3.67591 14.4077C3.76186 14.4937 3.87842 14.542 3.99997 14.542H4.45825V23.7076H3.08341C2.96186 23.7076 2.8453 23.7559 2.75935 23.8418C2.67341 23.9278 2.62512 24.0443 2.62512 24.1659V25.5407H2.16684C2.0453 25.5407 1.92873 25.589 1.84279 25.6749C1.75684 25.7609 1.70856 25.8775 1.70856 25.999V28.7487C1.70856 28.8702 1.75684 28.9868 1.84279 29.0727C1.92873 29.1587 2.0453 29.207 2.16684 29.207H27.8306C27.9521 29.207 28.0687 29.1587 28.1546 29.0727C28.2406 28.9868 28.2889 28.8702 28.2889 28.7487V25.999C28.2889 25.8775 28.2406 25.7609 28.1546 25.6749C28.0687 25.589 27.9521 25.5407 27.8306 25.5407H27.3723V24.1659C27.3723 24.0443 27.324 23.9278 27.2381 23.8418C27.1521 23.7559 27.0356 23.7076 26.914 23.7076H25.5392V14.542H25.9975C26.119 14.542 26.2356 14.4937 26.3215 14.4077C26.4075 14.3218 26.4557 14.2052 26.4557 14.0837V12.7088H27.8306C27.9521 12.7088 28.0687 12.6606 28.1546 12.5746C28.2406 12.4887 28.2889 12.3721 28.2889 12.2506V10.8757H28.7472C28.8455 10.8757 28.9413 10.8441 29.0203 10.7855C29.0993 10.7269 29.1573 10.6444 29.1859 10.5503C29.2144 10.4562 29.2118 10.3553 29.1786 10.2628C29.1455 10.1702 29.0833 10.0907 29.0015 10.0361L15.2531 0.870517C15.1778 0.820271 15.0893 0.793457 14.9987 0.793457C14.9082 0.793457 14.8197 0.820271 14.7444 0.870517L0.995935 10.0361C0.914112 10.0907 0.852024 10.1702 0.818848 10.2628C0.785671 10.3554 0.783167 10.4562 0.811705 10.5503ZM7.20794 12.7088V13.6254H4.45825V12.7088H7.20794ZM22.3312 14.542H22.7895V23.7076H7.20794V14.542H7.66622C7.78776 14.542 7.90433 14.4937 7.99027 14.4077C8.07622 14.3218 8.1245 14.2052 8.1245 14.0837V12.7088H21.8729V14.0837C21.8729 14.2052 21.9212 14.3218 22.0072 14.4077C22.0931 14.4937 22.2097 14.542 22.3312 14.542ZM5.37481 14.542H6.29137V23.7076H5.37481V14.542ZM27.3723 28.2904H2.62512V26.4573H27.3723V28.2904ZM26.4557 25.5407H3.54169V24.6241H26.4557V25.5407ZM24.6226 23.7076H23.7061V14.542H24.6226V23.7076ZM25.5392 13.6254H22.7895V12.7088H25.5392V13.6254ZM27.3723 11.7923H2.62512V10.8757H27.3723V11.7923ZM14.9987 1.80174L27.2348 9.95915H2.76261L14.9987 1.80174Z" fill="black"/>
<path id="Vector_2" d="M14.9987 3.54309C14.4549 3.54309 13.9233 3.70436 13.4711 4.0065C13.0189 4.30864 12.6664 4.73808 12.4583 5.24052C12.2502 5.74296 12.1958 6.29583 12.3019 6.82922C12.408 7.3626 12.6698 7.85255 13.0544 8.2371C13.4389 8.62165 13.9289 8.88353 14.4623 8.98963C14.9957 9.09573 15.5485 9.04128 16.051 8.83316C16.5534 8.62504 16.9829 8.27261 17.285 7.82042C17.5871 7.36824 17.7484 6.83661 17.7484 6.29278C17.7477 5.56374 17.4577 4.86477 16.9422 4.34926C16.4267 3.83375 15.7278 3.54382 14.9987 3.54309ZM14.9987 8.1259C14.6362 8.1259 14.2817 8.01839 13.9803 7.81697C13.6788 7.61554 13.4439 7.32924 13.3051 6.99428C13.1664 6.65933 13.1301 6.29074 13.2008 5.93515C13.2715 5.57956 13.4461 5.25293 13.7025 4.99656C13.9589 4.7402 14.2855 4.56561 14.6411 4.49488C14.9967 4.42414 15.3653 4.46045 15.7002 4.59919C16.0352 4.73794 16.3215 4.97289 16.5229 5.27435C16.7243 5.5758 16.8318 5.93022 16.8318 6.29278C16.8318 6.77895 16.6387 7.24522 16.2949 7.58899C15.9511 7.93277 15.4849 8.1259 14.9987 8.1259Z" fill="black"/>
<path id="Vector_3" d="M19.5123 15.2164C19.4712 15.1503 19.4139 15.0957 19.3458 15.0579C19.2778 15.02 19.2012 15.0001 19.1233 15.0001H16.2893C16.3435 14.8533 16.3721 14.6983 16.3736 14.5418C16.3736 14.1772 16.2287 13.8275 15.9709 13.5697C15.7131 13.3118 15.3634 13.167 14.9987 13.167C14.6341 13.167 14.2844 13.3118 14.0266 13.5697C13.7687 13.8275 13.6239 14.1772 13.6239 14.5418C13.6254 14.6983 13.6539 14.8533 13.7082 15.0001H10.8742C10.7965 15.0001 10.72 15.0199 10.652 15.0576C10.5841 15.0952 10.5268 15.1496 10.4856 15.2155L8.19417 18.8818C8.14865 18.9546 8.12451 19.0388 8.12451 19.1246C8.12451 19.8539 8.41421 20.5533 8.92988 21.069C9.44554 21.5846 10.1449 21.8743 10.8742 21.8743C11.6035 21.8743 12.3029 21.5846 12.8185 21.069C13.3342 20.5533 13.6239 19.8539 13.6239 19.1246C13.6239 19.0388 13.5997 18.9546 13.5542 18.8818L11.6991 15.9167H14.5404V21.8743H13.1656V22.7909H16.8319V21.8743H15.457V15.9167H18.2984L16.4451 18.8818C16.3989 18.9544 16.3741 19.0386 16.3736 19.1246C16.3736 19.8539 16.6633 20.5533 17.1789 21.069C17.6946 21.5846 18.394 21.8743 19.1233 21.8743C19.8525 21.8743 20.5519 21.5846 21.0676 21.069C21.5833 20.5533 21.8729 19.8539 21.8729 19.1246C21.8729 19.0388 21.8488 18.9546 21.8033 18.8818L19.5123 15.2164ZM10.8742 20.9578C10.4681 20.9571 10.0736 20.8218 9.75264 20.573C9.43163 20.3242 9.20218 19.976 9.10019 19.5829H12.6482C12.5462 19.976 12.3168 20.3242 11.9958 20.573C11.6748 20.8218 11.2803 20.9571 10.8742 20.9578ZM12.3407 18.6664H9.41228L10.8742 16.3232L12.3407 18.6664ZM14.9987 14.0836C15.0894 14.0836 15.178 14.1104 15.2533 14.1608C15.3287 14.2111 15.3874 14.2827 15.4221 14.3665C15.4568 14.4502 15.4659 14.5423 15.4482 14.6312C15.4305 14.7201 15.3869 14.8018 15.3228 14.8659C15.2587 14.93 15.177 14.9736 15.0881 14.9913C14.9992 15.009 14.9071 14.9999 14.8234 14.9652C14.7396 14.9305 14.668 14.8718 14.6177 14.7964C14.5673 14.7211 14.5404 14.6325 14.5404 14.5418C14.5404 14.4203 14.5887 14.3037 14.6747 14.2178C14.7606 14.1318 14.8772 14.0836 14.9987 14.0836ZM19.1233 16.3232L20.5898 18.6664H17.6613L19.1233 16.3232ZM19.1233 20.9578C18.7171 20.9571 18.3227 20.8218 18.0017 20.573C17.6807 20.3242 17.4512 19.976 17.3493 19.5829H20.8973C20.7953 19.976 20.5658 20.3242 20.2448 20.573C19.9238 20.8218 19.5294 20.9571 19.1233 20.9578Z" fill="black"/>
</g>
<defs>
<clipPath id="clip0_8074_12105">
<rect width="29.33" height="29.33" fill="white" transform="translate(0.333496 0.335083)"/>
</clipPath>
</defs>
</svg>
