<svg width="20" height="20" viewBox="0 0 20 20" fill="none" xmlns="http://www.w3.org/2000/svg">
<path d="M16.25 2.5H14.375V1.875C14.375 1.70924 14.3091 1.55027 14.1919 1.43306C14.0747 1.31585 13.9157 1.25 13.75 1.25C13.5843 1.25 13.4253 1.31585 13.3081 1.43306C13.1909 1.55027 13.125 1.70924 13.125 1.875V2.5H6.875V1.875C6.875 1.70924 6.80912 1.55027 6.69194 1.43306C6.57475 1.31585 6.41575 1.25 6.25 1.25C6.08424 1.25 5.92527 1.31585 5.80806 1.43306C5.69085 1.55027 5.625 1.70924 5.625 1.875V2.5H3.75C3.41848 2.5 3.10054 2.63169 2.86612 2.86612C2.63169 3.10054 2.5 3.41848 2.5 3.75V16.25C2.5 16.5815 2.63169 16.8994 2.86612 17.1339C3.10054 17.3683 3.41848 17.5 3.75 17.5H16.25C16.5815 17.5 16.8994 17.3683 17.1339 17.1339C17.3683 16.8994 17.5 16.5815 17.5 16.25V3.75C17.5 3.41848 17.3683 3.10054 17.1339 2.86612C16.8994 2.63169 16.5815 2.5 16.25 2.5ZM13.2422 10.4531L9.59375 13.8906C9.537 13.9462 9.46987 13.9901 9.39612 14.0196C9.32238 14.0491 9.2435 14.0636 9.16406 14.0625C9.00394 14.0631 8.84988 14.0015 8.73438 13.8906L6.75781 12.0156C6.69431 11.9602 6.64269 11.8926 6.606 11.8167C6.56931 11.7409 6.54837 11.6584 6.54437 11.5742C6.54044 11.4901 6.5535 11.4059 6.58281 11.3269C6.61219 11.248 6.65719 11.1757 6.71519 11.1146C6.77319 11.0535 6.84288 11.0047 6.92019 10.9712C6.9975 10.9377 7.08081 10.9202 7.16506 10.9197C7.24931 10.9192 7.33281 10.9357 7.4105 10.9683C7.48819 11.0009 7.5585 11.0489 7.61719 11.1094L9.16406 12.5781L12.3828 9.54688C12.4418 9.48956 12.5117 9.44462 12.5884 9.41469C12.6651 9.38481 12.7469 9.3705 12.8291 9.37269C12.9114 9.37488 12.9924 9.3935 13.0674 9.42744C13.1423 9.46138 13.2098 9.50994 13.2656 9.57031C13.3794 9.69056 13.4409 9.85106 13.4365 10.0166C13.4321 10.1821 13.3623 10.3391 13.2422 10.4531ZM16.25 6.25H3.75V3.75H5.625V4.375C5.625 4.54076 5.69085 4.69973 5.80806 4.81694C5.92527 4.93415 6.08424 5 6.25 5C6.41575 5 6.57475 4.93415 6.69194 4.81694C6.80912 4.69973 6.875 4.54076 6.875 4.375V3.75H13.125V4.375C13.125 4.54076 13.1909 4.69973 13.3081 4.81694C13.4253 4.93415 13.5843 5 13.75 5C13.9157 5 14.0747 4.93415 14.1919 4.81694C14.3091 4.69973 14.375 4.54076 14.375 4.375V3.75H16.25V6.25Z" fill="black"/>
</svg>
