<svg width="32" height="31" viewBox="0 0 32 31" fill="none" xmlns="http://www.w3.org/2000/svg">
<path d="M3.375 15.75H29.6359C29.8017 15.75 29.9607 15.6841 30.0779 15.5669C30.1951 15.4497 30.2609 15.2908 30.2609 15.125V10.75C30.2611 10.5858 30.2288 10.4232 30.1661 10.2714C30.1034 10.1197 30.0114 9.98179 29.8953 9.86562L21.1453 1.11562C21.0288 0.999205 20.8904 0.906972 20.7381 0.844225C20.5857 0.781478 20.4225 0.749455 20.2578 0.749995H5.25C4.58696 0.749995 3.95107 1.01339 3.48223 1.48223C3.01339 1.95107 2.75 2.58695 2.75 3.25V15.125C2.75 15.2908 2.81585 15.4497 2.93306 15.5669C3.05027 15.6841 3.20924 15.75 3.375 15.75ZM20.25 3.875L27.125 10.75H20.25V3.875ZM4.625 19.5H2.125C1.79348 19.5 1.47554 19.6317 1.24112 19.8661C1.0067 20.1005 0.875 20.4185 0.875 20.75V29.5C0.875 29.8315 1.0067 30.1495 1.24112 30.3839C1.47554 30.6183 1.79348 30.75 2.125 30.75H4.52031C7.59375 30.75 10.1797 28.3312 10.25 25.2609C10.2681 24.5109 10.136 23.7648 9.86148 23.0666C9.58693 22.3683 9.17546 21.7321 8.65132 21.1953C8.12717 20.6585 7.50093 20.2319 6.80946 19.9408C6.11799 19.6497 5.37526 19.4998 4.625 19.5ZM4.54844 28.25H3.375V22H4.625C5.0457 21.9997 5.46214 22.0843 5.84934 22.2488C6.23655 22.4134 6.58654 22.6544 6.87836 22.9574C7.17017 23.2605 7.39779 23.6193 7.54757 24.0124C7.69734 24.4056 7.7662 24.8249 7.75 25.2453C7.68594 26.9359 6.24219 28.25 4.55 28.25H4.54844ZM31.2156 27.5812C31.4156 27.8325 31.5147 28.1493 31.4936 28.4697C31.4725 28.7901 31.3327 29.0912 31.1016 29.3141C30.6681 29.7642 30.1489 30.1232 29.5747 30.3697C29.0005 30.6163 28.3827 30.7456 27.7578 30.75C25 30.75 22.7578 28.2266 22.7578 25.125C22.7578 22.0234 25.0016 19.5 27.7578 19.5C28.3827 19.5044 29.0005 19.6336 29.5747 19.8802C30.1489 20.1268 30.6681 20.4858 31.1016 20.9359C31.3327 21.1588 31.4725 21.4599 31.4936 21.7803C31.5147 22.1007 31.4156 22.4175 31.2156 22.6687C31.1026 22.803 30.9626 22.912 30.8047 22.9885C30.6468 23.0651 30.4746 23.1076 30.2992 23.1132C30.1238 23.1188 29.9492 23.0874 29.7867 23.021C29.6243 22.9547 29.4776 22.8549 29.3562 22.7281C29.1535 22.5046 28.9074 22.3248 28.6328 22.1996C28.3583 22.0744 28.0611 22.0065 27.7594 22C26.3812 22 25.2594 23.4062 25.2594 25.125C25.2594 26.8437 26.3812 28.25 27.7594 28.25C28.0613 28.2434 28.3586 28.1754 28.6334 28.0502C28.9082 27.925 29.1547 27.7453 29.3578 27.5219C29.4791 27.3951 29.6258 27.2953 29.7883 27.2289C29.9507 27.1626 30.1254 27.1312 30.3007 27.1368C30.4761 27.1424 30.6484 27.1849 30.8063 27.2615C30.9642 27.338 31.1042 27.447 31.2172 27.5812H31.2156ZM16.5 19.5C13.7422 19.5 11.5 22.0234 11.5 25.125C11.5 28.2266 13.7453 30.75 16.5 30.75C19.2547 30.75 21.5 28.2266 21.5 25.125C21.5 22.0234 19.2641 19.5 16.5 19.5ZM16.5 28.25C15.1203 28.25 14 26.8437 14 25.125C14 23.4062 15.1219 22 16.5 22C17.8781 22 19 23.4062 19 25.125C19 26.8437 17.8844 28.25 16.5 28.25Z" fill="#003FE9"/>
</svg>
