<svg width="18" height="18" viewBox="0 0 18 18" fill="none" xmlns="http://www.w3.org/2000/svg">
<path d="M12.3911 7.73438C12.3911 7.34604 12.0763 7.03125 11.688 7.03125H4.4458C4.05746 7.03125 3.74268 7.34604 3.74268 7.73438C3.74268 8.12271 4.05746 8.4375 4.4458 8.4375H11.688C12.0763 8.4375 12.3911 8.12271 12.3911 7.73438Z" fill="black" fill-opacity="0.8"/>
<path d="M4.4458 9.84375C4.05746 9.84375 3.74268 10.1585 3.74268 10.5469C3.74268 10.9352 4.05746 11.25 4.4458 11.25H8.84423C9.23257 11.25 9.54736 10.9352 9.54736 10.5469C9.54736 10.1585 9.23257 9.84375 8.84423 9.84375H4.4458Z" fill="black" fill-opacity="0.8"/>
<path d="M6.09815 16.5938H3.74658C2.97118 16.5938 2.34033 15.9629 2.34033 15.1875V2.8125C2.34033 2.03709 2.97118 1.40625 3.74658 1.40625H12.3911C13.1665 1.40625 13.7974 2.03709 13.7974 2.8125V7.13672C13.7974 7.52505 14.1122 7.83984 14.5005 7.83984C14.8888 7.83984 15.2036 7.52505 15.2036 7.13672V2.8125C15.2036 1.26169 13.9419 0 12.3911 0H3.74658C2.19577 0 0.934082 1.26169 0.934082 2.8125V15.1875C0.934082 16.7383 2.19577 18 3.74658 18H6.09815C6.48648 18 6.80127 17.6852 6.80127 17.2969C6.80127 16.9085 6.48648 16.5938 6.09815 16.5938Z" fill="black" fill-opacity="0.8"/>
<path d="M16.449 10.1803C15.6266 9.35783 14.2884 9.35779 13.4665 10.1797L9.60622 14.0314C9.52423 14.1132 9.46377 14.214 9.43009 14.3248L8.58939 17.0925C8.51486 17.3379 8.5798 17.6043 8.75888 17.7879C8.89304 17.9254 9.07529 18 9.26222 18C9.32476 18 9.3879 17.9916 9.44988 17.9744L12.2879 17.1883C12.4047 17.156 12.5111 17.094 12.5969 17.0084L16.4491 13.1634C17.2715 12.341 17.2715 11.0028 16.449 10.1803ZM11.7343 15.8825L10.3065 16.278L10.7244 14.9024L13.3291 12.3034L14.3236 13.298L11.7343 15.8825ZM15.4552 12.1686L15.319 12.3046L14.3246 11.3102L14.4603 11.1747C14.7345 10.9006 15.1806 10.9006 15.4547 11.1747C15.7289 11.4489 15.7289 11.8949 15.4552 12.1686Z" fill="black" fill-opacity="0.8"/>
<path d="M11.688 4.21875H4.4458C4.05746 4.21875 3.74268 4.53354 3.74268 4.92188C3.74268 5.31021 4.05746 5.625 4.4458 5.625H11.688C12.0763 5.625 12.3911 5.31021 12.3911 4.92188C12.3911 4.53354 12.0763 4.21875 11.688 4.21875Z" fill="black" fill-opacity="0.8"/>
</svg>
