<svg width="28" height="21" viewBox="0 0 28 21" fill="none" xmlns="http://www.w3.org/2000/svg">
<g id="Group">
<path id="Vector" d="M26.5251 12.389H25.6085C25.6085 10.2687 24.5086 8.32562 22.7488 7.21963C23.3843 6.46805 23.7754 5.50261 23.7754 4.4455C23.7754 2.08688 21.8567 0.168213 19.4981 0.168213C17.1395 0.168213 15.2208 2.08688 15.2208 4.4455C15.2208 5.50261 15.6119 6.46805 16.2474 7.21963C15.2636 7.83679 14.4937 8.71669 13.9987 9.74324C13.5038 8.71669 12.7339 7.83679 11.7501 7.21963C12.3856 6.46805 12.7766 5.50261 12.7766 4.4455C12.7766 2.08688 10.858 0.168213 8.49935 0.168213C6.14073 0.168213 4.22206 2.08688 4.22206 4.4455C4.22206 5.50261 4.61312 6.46805 5.24861 7.21963C3.48881 8.32562 2.38893 10.2687 2.38893 12.389H1.47237C1.1363 12.389 0.861328 12.664 0.861328 13.0001V15.4443C0.861328 15.7803 1.1363 16.0553 1.47237 16.0553H2.08341V25.2209C2.08341 25.557 2.35838 25.832 2.69445 25.832H25.303C25.6391 25.832 25.914 25.557 25.914 25.2209V16.0553H26.5251C26.8612 16.0553 27.1361 15.7803 27.1361 15.4443V13.0001C27.1361 12.664 26.8612 12.389 26.5251 12.389ZM19.4981 1.3903C21.1846 1.3903 22.5533 2.75903 22.5533 4.4455C22.5533 6.13198 21.1846 7.50071 19.4981 7.50071C17.8116 7.50071 16.4429 6.13198 16.4429 4.4455C16.4429 2.75903 17.8116 1.3903 19.4981 1.3903ZM17.2372 8.06898C17.8972 8.48449 18.6671 8.7228 19.4981 8.7228C20.3291 8.7228 21.099 8.48449 21.759 8.06898C23.3599 8.90611 24.3864 10.562 24.3864 12.389H14.6098C14.6098 10.562 15.6363 8.90611 17.2372 8.06898ZM8.49935 1.3903C10.1858 1.3903 11.5546 2.75903 11.5546 4.4455C11.5546 6.13198 10.1858 7.50071 8.49935 7.50071C6.81287 7.50071 5.44414 6.13198 5.44414 4.4455C5.44414 2.75903 6.81287 1.3903 8.49935 1.3903ZM6.23849 8.06898C6.89842 8.48449 7.66833 8.7228 8.49935 8.7228C9.33037 8.7228 10.1003 8.48449 10.7602 8.06898C12.3611 8.90611 13.3877 10.562 13.3877 12.389H3.61102C3.61102 10.562 4.63757 8.90611 6.23849 8.06898ZM24.692 24.6099H3.30549V16.0553H24.692V24.6099ZM25.914 14.8332H25.303H2.69445H2.08341V13.6111H25.914V14.8332Z" fill="black"/>
</g>
</svg>
