<svg clip-rule="evenodd" fill-rule="evenodd" height="512" image-rendering="optimizeQuality" shape-rendering="geometricPrecision" text-rendering="geometricPrecision" viewBox="0 0 1.70666 1.70666" width="512" xmlns="http://www.w3.org/2000/svg"><g id="Layer_x0020_1"><g id="_276236608"><g><g><path id="_276206008" d="m.605185 1.01712c-.00215354 0-.00433465-.00034646-.00648425-.00107874-.010437-.00358268-.016-.0149331-.0124331-.0253819l.0529921-.154724c.00356693-.010437.0149055-.0160039.025378-.012437.010437.00358268.0160039.0149488.012437.0253819l-.0529921.154724c-.00283071.00829921-.0105866.0135157-.0188976.0135157z"/></g><g><path id="_276238288" d="m1.10381 1.0197c-.00822835 0-.0159291-.00512205-.0188307-.0133228l-.0538937-.152398c-.00369291-.0104055.00177559-.021815.0121654-.0254921.0104646-.00367323.0218307.00177953.0255079.0121693l.0538937.152382c.00369291.0104055-.00177559.0218307-.0121654.0255079-.00222441.00079134-.00447638.00115354-.00667717.00115354z"/></g><g><path id="_276238240" d="m1.67763 1.70593c-.00005906 0-.00016929 0-.00027953 0h-1.64833c-.00625591 0-.0121575-.00294488-.0159409-.00793701-.00377953-.005-.00498425-.0114764-.00327559-.0174961l.122106-.430571c.0302087-.124685.267075-.176807.405563-.196732.00785827-.0011378.0156811.00252756.0198583.00930709l.150701.244776.130528-.140669c.00756299-.00816142.0217283-.00816142.0292913 0l.130512.140669.150689-.24476c.00417323-.00677165.0119488-.010437.019874-.00930709.138488.0199252.37537.072063.405756.197453l.121035.426744c.00122047.00259843.00191339.00549606.00191339.00853543-.00000394.0110315-.00895276.0199882-.0199961.0199882zm-1.62216-.0399685h1.59546l-.114886-.405134c-.0177047-.0730079-.151799-.134524-.359854-.166134l-.157559.255913c-.00327165.00531496-.00885433.00879921-.0150669.00940945-.00616535.00069291-.0123543-.00172047-.0165984-.0062874l-.133772-.144146-.13376.14415c-.00424803.00457874-.0103504.007-.0166102.00629134-.0062126-.00061024-.0117795-.00409843-.0150551-.00940945l-.157571-.255933c-.208039.0315866-.342118.0931024-.359646.165402l-.115079.405878z"/></g><g><path id="_276238096" d="m.698335 1.70593c-.00511811 0-.0102087-.00197244-.0140709-.00580315l-.419634-.415902c-.0038189-.00377559-.00595276-.00895276-.00591339-.0143228.00004331-.00537008.00225197-.0105197.00612205-.014252l.0470551-.0453504-.0376024-.065874c-.00285827-.005-.00341732-.0109921-.00154331-.0164331.00188976-.00545276.00601969-.00981102.0113504-.0119882.0397126-.0161811.0869646-.0304291.140433-.042378.00921654-.00205512.0186339.00262205.0225472.0112402l.268181.590016c.00211024.0031811.00333071.00696457.00333071.011063 0 .0110276-.00895276.0199843-.0199803.0199843-.00009055-.00001575-.00018898-.00001575-.00027559 0zm-.391043-.435681.327823.324913-.217657-.478874c-.035689.00848031-.0681496.0180394-.0969291.0285315l.0337913.0591811c.00453937.00793701.00309449.0179409-.00348031.0242992l-.0435472.0419488z"/></g><g><path id="_276237784" d="m1.00804 1.70593c-.00397244 0-.0079685-.0011811-.0114252-.00359449-.00790945-.00550787-.0107559-.0158858-.00675984-.0246614l.269445-.592791c.00389764-.00860236.0132953-.0133504.0225354-.0112402.0534843.0119331.100717.0261969.140437.042378.00534252.00217717.00947638.00655118.0113504.0119882.00187008.00544094.00131496.0114252-.00154331.0164331l-.0375945.0658583.0470394.0453504c.00387008.00374803.00607874.00888189.00612205.014252.00002756.00538583-.00209843.0105472-.0059252.0143228l-.419622.415902c-.00385039.00384646-.00894094.00580315-.0140591.00580315zm.280878-.589626-.217673.47885.327815-.324902-.0435157-.0419488c-.00659449-.00635433-.00801969-.0163583-.00348425-.0242992l.0337913-.0591693c-.0287835-.0104961-.0612441-.0200394-.0969331-.0285315z"/></g><g><path id="_276237400" d="m.704787 1.36012c-.00064961 0-.00130709-.00003937-.00195669-.00011024-.0062126-.0006063-.0117795-.00409449-.0150591-.00940945l-.168866-.274291c-.00487008-.0078937-.00364961-.0181181.00294488-.0246614l.0692559-.0687165c.00699606-.00693701.0180118-.00775591.025937-.00188583l.24802.183063c.00456299.00337008.00749606.0085315.00801969.0141969.00052362.00566535-.00138976.0112835-.00524409.0154567l-.148409.159965c-.00379921.00408268-.00911811.0063937-.0146417.0063937zm-.143539-.291256.146776.238402.115319-.124268-.216244-.159622-.0458504.0454882z"/></g><g><path id="_276237568" d="m1.00159 1.36012c-.00552362 0-.0108346-.00229921-.0146535-.00639764l-.148402-.159929c-.00387008-.00417323-.00578346-.00979921-.00524409-.0154567.00052756-.00566535.00345669-.0108268.00803543-.0141969l.24802-.183063c.00794882-.00587008.0189291-.00505118.0259528.00188583l.0692441.0687165c.00659449.00655118.00781496.0167638.00294488.0246614l-.168866.274291c-.00327559.00531496-.00885433.00879921-.0150709.00940945-.00066142.00004331-.00131102.00007874-.00196063.00007874zm-.118555-.177122.115319.124268.146776-.238402-.0458346-.0454882-.21626.159622z"/></g><g><path id="_276237304" d="m.912874 1.35724h-.11937c-.00868504 0-.0163898-.00562205-.0190394-.0139055l-.022063-.0689528c-.00219291-.00687008-.0005315-.0143937.00438189-.0196772l.081752-.0881181c.00754724-.00814567.0217283-.00817323.0292913 0l.0817598.0881181c.00491732.00528346.00659449.0128228.00437008.019689l-.0220787.0689528c-.00262992.00827559-.0103189.0138937-.0190039.0138937zm-.104783-.0399685h.0901969l.0140748-.0439331-.0591732-.0637598-.0591575.0637638.0140591.0439291z"/></g><g><path id="_276237448" d="m.936079 1.70593c-.00007087 0-.0001811 0-.00027953 0h-.16522c-.00569291 0-.0111024-.00242913-.0148898-.00664567-.0037874-.00424803-.00559055-.00988189-.0049685-.0155315l.0385512-.348685c.00112205-.0101181.00966929-.0177913.0198543-.0177913h.088126c.010185 0 .018748.00767323.0198701.0177913l.038189.345398c.00048819.00174409.00076378.00359055.00076378.00549606-.00001575.0110118-.00895276.0199685-.0199961.0199685zm-.143185-.0399685h.120591l-.0341378-.308701h-.052315l-.0341378.308701z"/></g><g><path id="_276237736" d="m.856382.953421c-.163024 0-.298736-.145319-.315709-.338-.00097244-.0109961.00715748-.0206929.0181535-.0216614.0111024-.00090158.020689.00717323.0216575.0181535.015126.171906.133748.301528.275898.301528.142823 0 .264244-.135563.276445-.308638.00079134-.0110157.0102087-.0193307.0213386-.0185236.0110039.00077559.0193031.0103386.0185276.0213425-.0136693.193906-.152618.345799-.316311.345799z"/></g><g><path id="_276236776" d="m.560567.633673c-.00717717 0-.013878-.0038622-.0174449-.0102441-.118287-.211748-.0854803-.354445-.0371063-.436843.0672795-.114638.207504-.18585.365961-.18585.14315 0 .265768.0598898.32802.160209.0496535.0800394.0848701.223787-.0293228.454185-.00373622.00750787-.0118228.0118819-.0200512.0109961-.00833858-.00090158-.0152205-.00691339-.0172362-.0150433l-.0448071-.18015c-.00715748-.0288071-.0115157-.0504449-.0144724-.0654449-.013063.0124803-.0328346.0289803-.0630157.0455039-.0954055.0522362-.219618.0654055-.362118.037622-.0129488.0179016-.0435472.068-.0690118.169909-.00198031.00795276-.00863386.013878-.016752.0149606-.00088189.00013386-.00176772.00018898-.00264173.00018898zm.311409-.592972c-.142169 0-.272295.0652087-.331504.166118-.0557992.0950709-.0506063.216283.0145039.352709.0334567-.107201.0701063-.145165.0718543-.146929.00477165-.00481496.0116417-.00693701.0183031-.00549606.13778.0288504.257209.0178858.346768-.0311378.0362323-.0198465.0545787-.0389528.0655394-.0503701.00849213-.00885433.0152126-.0158504.0262402-.0158504.0202047 0 .023685.0177047.0289449.0445157.00307087.0155591.00722835.0368543.0147559.0670551l.0310276.12478c.0618346-.147079.0646693-.272169.00764567-.364055-.0549134-.0885079-.164843-.141339-.294079-.141339z"/></g></g></g></g></svg>