<svg width="25" height="24" viewBox="0 0 25 24" fill="none" xmlns="http://www.w3.org/2000/svg">
<path fill-rule="evenodd" clip-rule="evenodd" d="M9.29145 2.43007C9.51234 2.93625 9.28106 3.52567 8.77488 3.74656C7.42747 4.33454 6.24461 5.24365 5.32972 6.39439C4.41482 7.54512 3.79575 8.90246 3.52661 10.3477C3.25748 11.793 3.34649 13.2822 3.78585 14.6851C4.22521 16.088 5.00155 17.362 6.04699 18.3955C7.09244 19.4291 8.37516 20.1909 9.78301 20.6142C11.1909 21.0375 12.681 21.1095 14.1231 20.8239C15.5652 20.5382 16.9153 19.9037 18.0556 18.9757C19.1958 18.0478 20.0913 16.8546 20.6639 15.5006C20.879 14.9919 21.4657 14.7539 21.9744 14.969C22.4831 15.1841 22.7211 15.7708 22.506 16.2795C21.8062 17.9344 20.7116 19.3927 19.318 20.5269C17.9244 21.6611 16.2742 22.4367 14.5116 22.7858C12.7491 23.1348 10.9278 23.0469 9.20712 22.5295C7.48641 22.0121 5.91864 21.0811 4.64088 19.8178C3.36311 18.5546 2.41425 16.9975 1.87725 15.2828C1.34026 13.5682 1.23147 11.748 1.56041 9.98159C1.88935 8.21515 2.646 6.55618 3.76421 5.14973C4.88241 3.74327 6.32813 2.63214 7.97496 1.91349C8.48114 1.6926 9.07056 1.92388 9.29145 2.43007Z" fill="#676D75"/>
<path fill-rule="evenodd" clip-rule="evenodd" d="M11.6679 1.29289C11.8554 1.10536 12.1098 1 12.375 1C13.8195 1 15.2499 1.28452 16.5845 1.83733C17.9191 2.39013 19.1317 3.20038 20.1532 4.22183C21.1746 5.24327 21.9849 6.4559 22.5377 7.79048C23.0905 9.12506 23.375 10.5555 23.375 12C23.375 12.5523 22.9273 13 22.375 13H12.375C11.8227 13 11.375 12.5523 11.375 12V2C11.375 1.73478 11.4804 1.48043 11.6679 1.29289ZM13.375 3.05573V11H21.3193C21.2255 10.1614 21.0141 9.33849 20.6899 8.55585C20.2376 7.46392 19.5747 6.47177 18.739 5.63604C17.9032 4.80031 16.9111 4.13738 15.8192 3.68508C15.0365 3.3609 14.2136 3.14949 13.375 3.05573Z" fill="#676D75"/>
</svg>
