<svg width="24" height="24" viewBox="0 0 24 24" fill="none" xmlns="http://www.w3.org/2000/svg">
<rect width="24" height="24" rx="12" fill="black" fill-opacity="0.1"/>
<path d="M15.75 7.5H14.625V7.125C14.625 7.02554 14.5855 6.93016 14.5152 6.85983C14.4448 6.78951 14.3495 6.75 14.25 6.75C14.1505 6.75 14.0552 6.78951 13.9848 6.85983C13.9145 6.93016 13.875 7.02554 13.875 7.125V7.5H10.125V7.125C10.125 7.02554 10.0855 6.93016 10.0152 6.85983C9.94485 6.78951 9.84945 6.75 9.75 6.75C9.65054 6.75 9.55516 6.78951 9.48483 6.85983C9.41451 6.93016 9.375 7.02554 9.375 7.125V7.5H8.25C8.05109 7.5 7.86032 7.57902 7.71967 7.71967C7.57902 7.86032 7.5 8.05109 7.5 8.25V15.75C7.5 15.9489 7.57902 16.1397 7.71967 16.2803C7.86032 16.421 8.05109 16.5 8.25 16.5H15.75C15.9489 16.5 16.1397 16.421 16.2803 16.2803C16.421 16.1397 16.5 15.9489 16.5 15.75V8.25C16.5 8.05109 16.421 7.86032 16.2803 7.71967C16.1397 7.57902 15.9489 7.5 15.75 7.5ZM13.9453 12.2719L11.7563 14.3344C11.7222 14.3678 11.6819 14.394 11.6377 14.4117C11.5934 14.4294 11.5461 14.4382 11.4984 14.4375C11.4024 14.4379 11.3099 14.4009 11.2406 14.3344L10.0547 13.2094C10.0166 13.1762 9.98561 13.1355 9.9636 13.09C9.94159 13.0445 9.92902 12.995 9.92662 12.9445C9.92426 12.894 9.9321 12.8436 9.94969 12.7962C9.96731 12.7488 9.99431 12.7055 10.0291 12.6688C10.0639 12.6321 10.1057 12.6028 10.1521 12.5827C10.1985 12.5626 10.2485 12.5521 10.299 12.5518C10.3496 12.5515 10.3997 12.5614 10.4463 12.581C10.4929 12.6006 10.5351 12.6294 10.5703 12.6656L11.4984 13.5469L13.4297 11.7281C13.4651 11.6937 13.507 11.6668 13.553 11.6488C13.599 11.6309 13.6481 11.6223 13.6975 11.6236C13.7469 11.6249 13.7954 11.6361 13.8404 11.6565C13.8854 11.6768 13.9258 11.706 13.9594 11.7422C14.0277 11.8143 14.0646 11.9106 14.0619 12.0099C14.0593 12.1092 14.0174 12.2034 13.9453 12.2719ZM15.75 9.75H8.25V8.25H9.375V8.625C9.375 8.72446 9.41451 8.81984 9.48483 8.89017C9.55516 8.96049 9.65054 9 9.75 9C9.84945 9 9.94485 8.96049 10.0152 8.89017C10.0855 8.81984 10.125 8.72446 10.125 8.625V8.25H13.875V8.625C13.875 8.72446 13.9145 8.81984 13.9848 8.89017C14.0552 8.96049 14.1505 9 14.25 9C14.3495 9 14.4448 8.96049 14.5152 8.89017C14.5855 8.81984 14.625 8.72446 14.625 8.625V8.25H15.75V9.75Z" fill="black"/>
</svg>
