<svg width="900" height="600" viewBox="0 0 900 600" fill="none" xmlns="http://www.w3.org/2000/svg">
<g clip-path="url(#clip0_3453_5880)">
<path d="M460.593 440.358C545.791 440.358 614.858 371.557 614.858 286.687C614.858 201.816 545.791 133.016 460.593 133.016C375.395 133.016 306.328 201.816 306.328 286.687C306.328 371.557 375.395 440.358 460.593 440.358Z" fill="url(#paint0_linear_3453_5880)"/>
<path d="M630.751 404.557C630.751 410.692 626.012 415.535 620.324 415.535C614.635 415.535 609.896 410.692 609.896 404.557C609.896 398.422 614.635 393.579 620.324 393.579C626.012 393.579 630.751 398.422 630.751 404.557Z" stroke="#CDD0D1" stroke-width="3.38"/>
<path d="M281.586 205.434C286.599 205.434 290.663 201.37 290.663 196.357C290.663 191.344 286.599 187.28 281.586 187.28C276.573 187.28 272.509 191.344 272.509 196.357C272.509 201.37 276.573 205.434 281.586 205.434Z" stroke="#CDD0D1" stroke-width="2.777"/>
<path d="M465.551 477.813C471.331 477.813 476.016 472.881 476.016 466.797C476.016 460.713 471.331 455.781 465.551 455.781C459.771 455.781 455.086 460.713 455.086 466.797C455.086 472.881 459.771 477.813 465.551 477.813Z" fill="#CDD0D1"/>
<path d="M465 146.234C471.692 146.234 477.117 140.809 477.117 134.117C477.117 127.425 471.692 122 465 122C458.308 122 452.883 127.425 452.883 134.117C452.883 140.809 458.308 146.234 465 146.234Z" fill="#CDD0D1"/>
<path d="M321.707 416.042C321.695 416.238 321.627 416.426 321.512 416.584C321.397 416.743 321.239 416.865 321.057 416.936L311.657 420.611C311.496 420.674 311.323 420.695 311.153 420.673C310.982 420.651 310.82 420.587 310.681 420.486C310.542 420.385 310.431 420.25 310.357 420.095C310.284 419.939 310.25 419.768 310.261 419.596L310.856 409.521C310.88 409.122 311.134 408.772 311.506 408.627L320.904 404.955C321.064 404.893 321.237 404.871 321.407 404.893C321.578 404.915 321.74 404.979 321.879 405.08C322.018 405.181 322.13 405.316 322.203 405.471C322.277 405.626 322.31 405.798 322.3 405.969L321.707 416.042Z" stroke="#CDD0D1" stroke-width="3.305" stroke-miterlimit="10"/>
<path d="M320.264 272.502V374.976C320.264 383.774 314.164 390.907 306.641 390.907H166.993C164.371 390.907 161.799 391.796 159.582 393.462L139.034 409.033C129.973 415.901 118 408.295 118 395.656V272.483C118 263.685 124.1 256.552 131.623 256.552H306.624C314.164 256.571 320.264 263.704 320.264 272.502Z" fill="black"/>
<path d="M161.065 330.673H277.417C279.169 330.672 280.849 329.975 282.088 328.736C283.327 327.497 284.023 325.817 284.025 324.065C284.023 322.314 283.326 320.634 282.087 319.395C280.849 318.157 279.169 317.46 277.417 317.458H161.065C159.313 317.46 157.634 318.157 156.395 319.395C155.156 320.634 154.46 322.314 154.458 324.065C154.46 325.817 155.156 327.497 156.395 328.736C157.634 329.975 159.313 330.672 161.065 330.673ZM161.456 302.282H213.914C215.666 302.281 217.346 301.584 218.585 300.345C219.824 299.106 220.521 297.427 220.523 295.674C220.521 293.922 219.824 292.242 218.585 291.004C217.346 289.765 215.666 289.068 213.914 289.066H161.456C159.704 289.068 158.024 289.765 156.786 291.004C155.547 292.243 154.85 293.922 154.848 295.674C154.85 297.426 155.547 299.106 156.786 300.345C158.024 301.584 159.704 302.281 161.456 302.282ZM277.417 346.723H161.065C159.313 346.725 157.634 347.422 156.395 348.661C155.156 349.9 154.46 351.58 154.458 353.331C154.46 355.083 155.156 356.763 156.395 358.002C157.634 359.241 159.313 359.938 161.065 359.939H277.417C279.169 359.938 280.849 359.241 282.088 358.002C283.326 356.763 284.023 355.083 284.025 353.331C284.023 351.579 283.326 349.9 282.088 348.661C280.849 347.422 279.169 346.725 277.417 346.723Z" fill="#CDD0D1"/>
<path fill-rule="evenodd" clip-rule="evenodd" d="M490.292 391.079H554.433C568.608 391.079 580.089 379.598 580.089 365.423V211.485C580.089 197.31 568.608 185.829 554.433 185.829H374.839C360.664 185.829 349.183 197.31 349.183 211.485V365.423C349.183 379.598 360.664 391.079 374.839 391.079H438.98L464.636 416.736L490.292 391.079Z" fill="black"/>
<path d="M466.905 286.184C467.204 286.482 467.442 286.835 467.603 287.225C467.765 287.615 467.849 288.032 467.849 288.454C467.849 288.876 467.765 289.294 467.603 289.684C467.442 290.073 467.204 290.427 466.905 290.725C466.608 291.024 466.254 291.261 465.864 291.423C465.474 291.585 465.057 291.668 464.635 291.668C464.213 291.668 463.795 291.585 463.406 291.423C463.016 291.261 462.662 291.024 462.364 290.725C462.065 290.427 461.828 290.073 461.667 289.684C461.505 289.294 461.421 288.876 461.421 288.454C461.421 288.032 461.505 287.615 461.667 287.225C461.828 286.836 462.065 286.482 462.364 286.184C462.969 285.586 463.785 285.25 464.635 285.25C465.485 285.25 466.301 285.586 466.905 286.184ZM518.22 286.184C518.519 286.482 518.756 286.836 518.918 287.225C519.08 287.615 519.163 288.032 519.163 288.454C519.163 288.876 519.08 289.294 518.918 289.684C518.756 290.073 518.519 290.427 518.22 290.725C517.923 291.024 517.569 291.261 517.179 291.423C516.789 291.585 516.372 291.668 515.95 291.668C515.528 291.668 515.11 291.585 514.721 291.423C514.331 291.261 513.977 291.024 513.679 290.725C513.38 290.427 513.143 290.073 512.981 289.684C512.819 289.294 512.736 288.876 512.736 288.454C512.736 288.032 512.819 287.615 512.981 287.225C513.143 286.835 513.38 286.482 513.679 286.184C514.284 285.586 515.1 285.25 515.95 285.25C516.8 285.25 517.616 285.586 518.22 286.184ZM415.593 286.184C415.892 286.482 416.129 286.836 416.291 287.225C416.453 287.615 416.536 288.032 416.536 288.454C416.536 288.876 416.453 289.294 416.291 289.684C416.129 290.073 415.892 290.427 415.593 290.725C415.296 291.024 414.942 291.261 414.552 291.423C414.162 291.585 413.745 291.668 413.323 291.668C412.901 291.668 412.483 291.585 412.094 291.423C411.704 291.261 411.35 291.024 411.052 290.725C410.753 290.427 410.516 290.073 410.354 289.684C410.193 289.294 410.109 288.876 410.109 288.454C410.109 288.032 410.193 287.615 410.354 287.225C410.516 286.836 410.753 286.482 411.052 286.184C411.657 285.586 412.473 285.25 413.323 285.25C414.173 285.25 414.989 285.586 415.593 286.184Z" stroke="#CDD0D1" stroke-width="18.24" stroke-linecap="round" stroke-linejoin="round"/>
<path fill-rule="evenodd" clip-rule="evenodd" d="M609.308 361.443V260.103C609.308 255.019 613.433 250.894 618.516 250.894H765.853C770.936 250.894 775.062 255.019 775.062 260.103V398.231L720.648 371.158L618.47 370.651C613.405 370.624 609.308 366.508 609.308 361.443Z" fill="black"/>
<path d="M693.813 309.122C694.032 309.335 694.207 309.589 694.328 309.87C694.448 310.151 694.511 310.453 694.514 310.758C694.516 311.064 694.458 311.367 694.342 311.65C694.226 311.932 694.055 312.189 693.839 312.405C693.623 312.621 693.366 312.792 693.083 312.908C692.8 313.024 692.497 313.082 692.192 313.08C691.886 313.077 691.584 313.014 691.303 312.893C691.022 312.773 690.768 312.598 690.556 312.378C690.135 311.944 689.903 311.362 689.908 310.757C689.913 310.153 690.155 309.575 690.583 309.148C691.01 308.721 691.588 308.479 692.192 308.474C692.797 308.469 693.378 308.702 693.813 309.122ZM652.375 309.122C652.594 309.335 652.769 309.589 652.89 309.87C653.01 310.151 653.073 310.453 653.076 310.758C653.078 311.064 653.02 311.367 652.904 311.65C652.788 311.932 652.617 312.189 652.401 312.405C652.185 312.621 651.928 312.792 651.645 312.908C651.362 313.024 651.059 313.082 650.754 313.08C650.448 313.077 650.146 313.014 649.865 312.893C649.584 312.773 649.33 312.598 649.118 312.378C648.697 311.944 648.465 311.362 648.47 310.757C648.475 310.153 648.717 309.575 649.144 309.148C649.572 308.721 650.15 308.479 650.754 308.474C651.359 308.469 651.941 308.702 652.375 309.122ZM735.252 309.122C735.471 309.335 735.646 309.589 735.767 309.87C735.887 310.151 735.95 310.453 735.953 310.758C735.955 311.064 735.897 311.367 735.781 311.65C735.665 311.932 735.494 312.189 735.278 312.405C735.062 312.621 734.805 312.792 734.522 312.908C734.239 313.024 733.936 313.082 733.631 313.08C733.325 313.077 733.023 313.014 732.742 312.893C732.461 312.773 732.207 312.598 731.995 312.378C731.574 311.944 731.342 311.362 731.347 310.757C731.352 310.153 731.594 309.575 732.021 309.148C732.449 308.721 733.027 308.479 733.631 308.474C734.236 308.469 734.818 308.702 735.252 309.122Z" stroke="#CDD0D1" stroke-width="13.093" stroke-linecap="round" stroke-linejoin="round"/>
<path d="M271.121 243.175C268.726 233.508 246.1 219.39 234.009 227.901C230.297 209.485 226.826 198 214.7 188.928C202.574 179.855 182.342 191.714 179.093 216.552C175.843 206.342 159.322 192.58 146.051 204.184C133.771 214.921 132.54 232.913 133.823 243.158H271.121V243.175Z" fill="url(#paint1_linear_3453_5880)"/>
<path d="M781.34 231.057C778.447 219.345 751.115 202.241 736.508 212.553C732.025 190.241 727.831 176.326 713.183 165.335C698.536 154.344 674.095 168.711 670.17 198.803C666.245 186.433 646.287 169.76 630.255 183.819C615.422 196.827 613.934 218.625 615.484 231.037H781.34V231.057Z" fill="url(#paint2_linear_3453_5880)"/>
</g>
<defs>
<linearGradient id="paint0_linear_3453_5880" x1="467.171" y1="612.673" x2="457.731" y2="-201.322" gradientUnits="userSpaceOnUse">
<stop stop-color="white"/>
<stop offset="1" stop-color="#EEEEEE"/>
</linearGradient>
<linearGradient id="paint1_linear_3453_5880" x1="205.208" y1="275.291" x2="204.473" y2="123.561" gradientUnits="userSpaceOnUse">
<stop stop-color="white"/>
<stop offset="1" stop-color="#EEEEEE"/>
</linearGradient>
<linearGradient id="paint2_linear_3453_5880" x1="701.717" y1="269.967" x2="700.824" y2="86.1408" gradientUnits="userSpaceOnUse">
<stop stop-color="white"/>
<stop offset="1" stop-color="#EEEEEE"/>
</linearGradient>
<clipPath id="clip0_3453_5880">
<rect width="900" height="600" fill="white"/>
</clipPath>
</defs>
</svg>
