<svg width="900" height="600" viewBox="0 0 900 600" fill="none" xmlns="http://www.w3.org/2000/svg">
<g clip-path="url(#clip0_3453_5774)">
<mask id="mask0_3453_5774" style="mask-type:luminance" maskUnits="userSpaceOnUse" x="0" y="0" width="900" height="600">
<path d="M900 0H0V600H900V0Z" fill="white"/>
</mask>
<g mask="url(#mask0_3453_5774)">
<path d="M488.786 166.608C487.466 164.98 486.136 163.362 484.795 161.752C479.883 155.827 474.772 149.661 471.182 143.341C466.61 135.291 464.581 127.115 468.538 118.992C471.264 113.399 477.287 107.964 485.839 103.453C494.379 98.9487 505.394 95.3917 518.026 93.5287C543.29 89.8007 574.98 92.8517 606.209 108.569C640.559 125.862 661.605 146.011 672.812 164.027C684.039 182.076 685.343 197.885 680.454 206.603C675.407 215.61 667.359 220.75 656.063 223.21C644.742 225.676 630.189 225.443 612.196 223.703L609.934 223.485C583.733 220.957 559.763 218.645 533.54 204.348C514.656 194.059 499.702 180.135 488.786 166.608ZM488.786 166.608L488.395 166.916" stroke="url(#paint0_linear_3453_5774)" stroke-width="1.002"/>
<path d="M810.893 277.665C785.924 290.05 752.785 274.125 752.785 274.125C752.785 274.125 760.15 238.125 785.132 225.757C810.1 213.371 843.226 229.279 843.226 229.279C843.226 229.279 835.861 265.279 810.893 277.665Z" fill="url(#paint1_linear_3453_5774)"/>
<path d="M101.669 368.185C134.293 387.738 181.098 369.662 181.098 369.662C181.098 369.662 174.978 319.894 142.334 300.364C109.711 280.811 62.9258 298.864 62.9258 298.864C62.9258 298.864 69.0458 348.633 101.669 368.185Z" fill="url(#paint2_linear_3453_5774)"/>
<path d="M761.765 181.037C754.236 181.037 748.132 187.14 748.132 194.67C748.132 202.199 754.236 208.303 761.765 208.303C769.295 208.303 775.398 202.199 775.398 194.67C775.398 187.14 769.295 181.037 761.765 181.037Z" fill="black"/>
<path d="M248.28 256.557C239.81 256.557 232.943 263.424 232.943 271.894C232.943 280.365 239.81 287.231 248.28 287.231C256.751 287.231 263.617 280.365 263.617 271.894C263.617 263.424 256.751 256.557 248.28 256.557Z" fill="black"/>
<path d="M145.531 194.527C138.473 194.527 132.75 188.805 132.75 181.746C132.75 174.687 138.473 168.965 145.531 168.965C152.59 168.965 158.312 174.687 158.312 181.746C158.312 188.805 152.59 194.527 145.531 194.527Z" fill="black"/>
<path d="M644.844 254.172C641.549 254.172 638.879 251.502 638.879 248.207C638.879 244.913 641.549 242.242 644.844 242.242C648.138 242.242 650.809 244.913 650.809 248.207C650.809 251.502 648.138 254.172 644.844 254.172Z" fill="black"/>
<path d="M679.265 522.019C675.029 522.019 671.596 518.585 671.596 514.35C671.596 510.114 675.029 506.681 679.265 506.681C683.5 506.681 686.934 510.114 686.934 514.35C686.934 518.585 683.5 522.019 679.265 522.019Z" fill="#CDD0D1"/>
<path d="M143.243 445.8C137.126 445.8 132.166 440.84 132.166 434.723C132.166 428.605 137.126 423.646 143.243 423.646C149.361 423.646 154.32 428.605 154.32 434.723C154.32 440.84 149.361 445.8 143.243 445.8Z" fill="#CDD0D1"/>
<path d="M271.342 160.129C266.686 160.129 262.911 156.354 262.911 151.698C262.911 147.041 266.686 143.267 271.342 143.267C275.999 143.267 279.773 147.041 279.773 151.698C279.773 156.354 275.999 160.129 271.342 160.129Z" fill="#CDD0D1"/>
<path d="M680.643 162.633C675.466 162.633 671.27 158.436 671.27 153.26C671.27 148.083 675.466 143.887 680.643 143.887C685.819 143.887 690.016 148.083 690.016 153.26C690.016 158.436 685.819 162.633 680.643 162.633Z" fill="#CDD0D1"/>
<path d="M176.755 257.445C177.958 261.935 175.294 266.551 170.804 267.754C166.313 268.957 161.698 266.292 160.495 261.802C159.292 257.312 161.956 252.697 166.447 251.493C170.937 250.29 175.552 252.955 176.755 257.445Z" fill="#CDD0D1"/>
<path d="M382.35 92.1674C376.166 92.1674 371.153 87.1544 371.153 80.9704C371.153 74.7865 376.166 69.7734 382.35 69.7734C388.534 69.7734 393.547 74.7865 393.547 80.9704C393.547 87.1544 388.534 92.1674 382.35 92.1674Z" fill="#CDD0D1"/>
<path d="M739.422 374.069C734.665 374.069 730.809 370.984 730.809 367.179C730.809 363.374 734.665 360.289 739.422 360.289C744.179 360.289 748.035 363.374 748.035 367.179C748.035 370.984 744.179 374.069 739.422 374.069Z" fill="#CDD0D1"/>
<path d="M593.89 75.9212C596.394 85.2659 590.848 94.8712 581.503 97.3751C572.158 99.879 562.553 94.3334 560.049 84.9887C557.545 75.644 563.091 66.0387 572.436 63.5348C581.78 61.0309 591.386 66.5765 593.89 75.9212Z" fill="#CDD0D1"/>
<path d="M804.741 319.592H804.966C806.3 338.496 820.36 338.787 820.36 338.787C820.36 338.787 804.856 339.09 804.856 360.934C804.856 339.09 789.353 338.787 789.353 338.787C789.353 338.787 803.407 338.496 804.741 319.592ZM238.439 503.379H238.639C239.823 520.489 252.298 520.752 252.298 520.752C252.298 520.752 238.542 521.026 238.542 540.796C238.542 521.026 224.785 520.752 224.785 520.752C224.785 520.752 237.255 520.489 238.439 503.379Z" fill="#CDD0D1"/>
<path d="M213.454 216.934L239.208 132.311L269.256 110.236L410.907 118.208L471.614 183.208H603.454C607.869 183.208 651.897 191.384 673.359 195.472L695.435 284.387L681.331 378.821L673.359 446.274L638.407 484.906L471.614 494.717C420.309 493.695 314.143 492.264 299.916 494.717C285.69 497.17 243.705 463.443 224.492 446.274C223.265 418.475 219.341 361.774 213.454 357.358C207.567 352.943 211.001 261.902 213.454 216.934Z" fill="black"/>
<path d="M526.152 400.027L486.439 360.29M396.725 360.293C421.515 385.082 461.646 385.082 486.436 360.293C511.225 335.504 511.225 295.372 486.436 270.583C461.646 245.793 421.515 245.793 396.725 270.583C371.961 295.372 371.961 335.553 396.725 360.293Z" stroke="#CDD0D1" stroke-width="36.999" stroke-linecap="round" stroke-linejoin="round"/>
<path fill-rule="evenodd" clip-rule="evenodd" d="M447.023 205.172L419.316 158.993C412.285 147.275 401.664 140.575 391.046 139.221C370.593 136.614 345.093 134.262 320.152 134.262C302.82 134.262 285.137 135.399 268.971 136.991C254.089 138.456 243.104 149.511 241.918 164.972C239.544 195.92 237.425 240.216 237.425 299.717C237.425 341.614 238.951 378.936 240.889 409.428C242.698 437.891 264.282 459.375 292.965 461.028C331.887 463.273 384.282 465.172 450.152 465.172C516.022 465.172 568.417 463.273 607.339 461.028C636.022 459.375 657.606 437.891 659.415 409.428C661.725 372.903 662.88 336.315 662.879 299.717C662.879 276.881 661.556 255.203 659.804 236.559C658.359 221.171 646.879 209.692 631.492 208.247C612.848 206.495 591.17 205.172 568.334 205.172H447.023ZM473.788 157.899L459.852 134.672C446.147 111.83 423.448 95.6962 397.024 92.3282C375.431 89.5752 347.792 86.9902 320.152 86.9902C300.863 86.9902 281.574 88.2492 264.34 89.9462C226.355 93.6852 197.703 123.3 194.784 161.356C192.311 193.592 190.152 239.097 190.152 299.717C190.152 342.748 191.719 381.079 193.711 412.427C197.043 464.846 237.806 505.199 290.244 508.223C330.07 510.519 383.373 512.444 450.152 512.444C516.931 512.444 570.233 510.519 610.06 508.223C662.498 505.199 703.26 464.846 706.592 412.427C708.966 374.904 710.153 337.315 710.152 299.717C710.152 275.108 708.728 251.923 706.87 232.137C703.3 194.136 673.914 164.751 635.914 161.181C616.128 159.322 592.942 157.899 568.334 157.899H473.788Z" fill="black"/>
</g>
</g>
<defs>
<linearGradient id="paint0_linear_3453_5774" x1="611.766" y1="325.54" x2="520.303" y2="-85.4573" gradientUnits="userSpaceOnUse">
<stop stop-color="white"/>
<stop offset="1" stop-color="#EEEEEE"/>
</linearGradient>
<linearGradient id="paint1_linear_3453_5774" x1="715.012" y1="316.298" x2="920.95" y2="153.401" gradientUnits="userSpaceOnUse">
<stop stop-color="white"/>
<stop offset="1" stop-color="#EEEEEE"/>
</linearGradient>
<linearGradient id="paint2_linear_3453_5774" x1="227.915" y1="431.124" x2="-34.5881" y2="187.223" gradientUnits="userSpaceOnUse">
<stop stop-color="white"/>
<stop offset="1" stop-color="#EEEEEE"/>
</linearGradient>
<clipPath id="clip0_3453_5774">
<rect width="900" height="600" fill="white"/>
</clipPath>
</defs>
</svg>
