<svg width="900" height="600" viewBox="0 0 900 600" fill="none" xmlns="http://www.w3.org/2000/svg">
<g clip-path="url(#clip0_3453_5798)">
<mask id="mask0_3453_5798" style="mask-type:luminance" maskUnits="userSpaceOnUse" x="0" y="0" width="900" height="600">
<path d="M900 0H0V600H900V0Z" fill="white"/>
</mask>
<g mask="url(#mask0_3453_5798)">
<path d="M630.602 452.812C620.874 452.812 612.989 460.699 612.989 470.426C612.989 480.153 620.874 488.039 630.602 488.039C640.329 488.039 648.215 480.153 648.215 470.426C648.215 460.699 640.329 452.812 630.602 452.812Z" fill="black"/>
<path d="M653.564 111.35C646.041 111.35 639.944 117.448 639.944 124.97C639.944 132.492 646.041 138.59 653.564 138.59C661.086 138.59 667.184 132.492 667.184 124.97C667.184 117.448 661.086 111.35 653.564 111.35Z" fill="black"/>
<path d="M350.481 288.705C342.474 288.705 335.982 295.197 335.982 303.204C335.982 311.212 342.474 317.703 350.481 317.703C358.489 317.703 364.98 311.212 364.98 303.204C364.98 295.197 358.489 288.705 350.481 288.705Z" fill="black"/>
<path d="M181.511 372.969C172.392 372.969 164.999 365.577 164.999 356.457C164.999 347.338 172.392 339.945 181.511 339.945C190.631 339.945 198.023 347.338 198.023 356.457C198.023 365.577 190.631 372.969 181.511 372.969Z" fill="black"/>
<path d="M672.642 418.435C675.377 413.697 681.436 412.073 686.175 414.809C690.913 417.545 692.537 423.604 689.801 428.342C687.065 433.081 681.006 434.703 676.268 431.967C671.529 429.232 669.906 423.174 672.642 418.435Z" fill="#CDD0D1"/>
<path d="M372.41 515.829C375.417 510.62 382.078 508.836 387.287 511.843C392.496 514.851 394.281 521.511 391.274 526.72C388.266 531.93 381.605 533.714 376.396 530.707C371.187 527.699 369.402 521.039 372.41 515.829Z" fill="#CDD0D1"/>
<path d="M718.645 236.827C711.957 236.827 706.536 231.406 706.536 224.718C706.536 218.031 711.957 212.609 718.645 212.609C725.333 212.609 730.754 218.031 730.754 224.718C730.754 231.406 725.333 236.827 718.645 236.827Z" fill="#CDD0D1"/>
<path d="M556.659 373.92C558.213 379.72 554.771 385.683 548.971 387.237C543.17 388.791 537.208 385.35 535.654 379.549C534.1 373.749 537.542 367.786 543.342 366.232C549.143 364.678 555.105 368.12 556.659 373.92Z" fill="#CDD0D1"/>
<path d="M207.207 155.815C199.218 155.815 192.742 149.339 192.742 141.35C192.742 133.361 199.218 126.885 207.207 126.885C215.196 126.885 221.672 133.361 221.672 141.35C221.672 149.339 215.196 155.815 207.207 155.815Z" fill="#CDD0D1"/>
<path d="M537.871 511.597C540.944 506.275 546.886 503.953 551.144 506.411C555.402 508.869 556.363 515.177 553.29 520.499C550.217 525.82 544.275 528.142 540.017 525.684C535.759 523.226 534.799 516.918 537.871 511.597Z" fill="#CDD0D1"/>
<path d="M192.47 236.744H192.628C193.567 250.043 203.457 250.248 203.457 250.248C203.457 250.248 192.551 250.461 192.551 265.828C192.551 250.461 181.645 250.248 181.645 250.248C181.645 250.248 191.531 250.043 192.47 236.744ZM244.193 442.036H244.345C245.246 455.295 254.742 455.5 254.742 455.5C254.742 455.5 244.271 455.712 244.271 471.033C244.271 455.712 233.8 455.5 233.8 455.5C233.8 455.5 243.292 455.295 244.193 442.036ZM723.577 299.996H723.729C724.63 313.256 734.126 313.46 734.126 313.46C734.126 313.46 723.655 313.672 723.655 328.994C723.655 313.672 713.184 313.46 713.184 313.46C713.184 313.46 722.676 313.256 723.577 299.996Z" fill="#CDD0D1"/>
<path fill-rule="evenodd" clip-rule="evenodd" d="M257.905 199.662C246.437 229.13 241.35 261.824 244.327 296.059C245.372 308.063 247.471 319.952 250.6 331.588L287.442 321.031C291.555 319.852 295.911 319.812 300.045 320.915C304.18 322.017 307.937 324.221 310.917 327.291L370.337 388.503C372.355 390.581 374.797 392.201 377.496 393.252C380.196 394.303 383.09 394.76 385.982 394.593L408.593 393.285C423.311 392.433 435.209 405.112 433.426 419.746L425.233 486.975C428.975 487.511 432.746 487.945 436.544 488.276C447.489 489.232 458.49 489.366 469.454 488.676L464.083 483.322C461.11 480.358 458.98 476.655 457.912 472.595C456.843 468.535 456.875 464.264 458.004 460.221L472.898 406.884C476.001 395.772 486.671 388.523 498.144 389.732L571.441 397.453C589.118 399.315 598.494 419.287 588.634 434.077L577.38 450.959C588.963 442.861 599.71 433.629 609.46 423.399L583.064 346.095C582.097 343.262 580.512 340.68 578.423 338.536C576.335 336.392 573.795 334.739 570.989 333.698L500.317 307.469C484.076 301.441 479.619 280.569 491.982 268.434L619.905 142.867C600.511 119.226 576.155 99.7416 548.562 86.1386L515.263 193.145C513.992 197.23 511.636 200.894 508.446 203.745C505.256 206.597 501.352 208.529 497.15 209.337L402.735 227.474C399.892 228.02 397.199 229.172 394.84 230.851C392.481 232.53 390.511 234.697 389.064 237.206L374.83 261.876C367.471 274.63 350.37 277.627 339.114 268.135L257.905 199.662ZM421.809 486.455L429.99 419.327C431.512 406.836 421.356 396.014 408.793 396.741L386.182 398.049C382.794 398.245 379.403 397.709 376.241 396.478C373.078 395.247 370.217 393.349 367.853 390.914L308.433 329.702C305.889 327.081 302.682 325.2 299.153 324.259C295.624 323.318 291.906 323.353 288.395 324.359L251.527 334.923C273.865 412.795 340.765 473.445 421.809 486.455ZM667.129 257.691C672.606 320.696 650.78 378.471 612.14 420.535L586.34 344.976C585.207 341.657 583.35 338.632 580.903 336.12C578.456 333.608 575.481 331.672 572.193 330.452L501.521 304.223C487.658 299.078 483.854 281.263 494.407 270.904L622.089 145.574C647.159 177.154 663.49 215.844 667.129 257.691ZM259.257 196.274L341.345 265.489C350.954 273.59 365.55 271.032 371.831 260.146L386.065 235.476C387.761 232.537 390.069 229.998 392.832 228.031C395.596 226.063 398.751 224.714 402.082 224.074L496.497 205.937C500.084 205.248 503.416 203.598 506.139 201.164C508.862 198.73 510.873 195.603 511.958 192.116L545.41 84.6166C523.583 74.3016 499.807 67.6436 474.912 65.4736C377.839 57.0336 293.159 113.428 259.257 196.274ZM474.018 488.337C509.134 485.357 541.773 473.882 569.881 455.966L585.754 432.157C594.17 419.533 586.167 402.485 571.078 400.896L497.781 393.174C487.988 392.143 478.88 398.331 476.232 407.815L461.338 461.152C460.375 464.603 460.347 468.249 461.259 471.714C462.171 475.18 463.99 478.34 466.527 480.87L474.018 488.337Z" fill="#CDD0D1"/>
<path fill-rule="evenodd" clip-rule="evenodd" d="M444.196 95.8042C487.935 139.543 487.935 210.457 444.196 254.196C400.457 297.935 329.543 297.935 285.804 254.196C242.065 210.457 242.065 139.543 285.804 95.8042C329.543 52.0653 400.457 52.0653 444.196 95.8042Z" fill="black"/>
<path d="M444.196 95.8042C487.935 139.543 487.935 210.457 444.196 254.196C400.457 297.935 329.543 297.935 285.804 254.196C242.065 210.457 242.065 139.543 285.804 95.8042C329.543 52.0653 400.457 52.0653 444.196 95.8042Z" stroke="black" stroke-width="10.562" stroke-linecap="round" stroke-linejoin="round"/>
<path d="M425.666 154.756C390.286 127.141 339.712 127.141 304.332 154.756M329.62 190.082C350.253 173.992 379.746 173.992 400.391 190.082M364.999 221.095C367.09 221.095 368.795 222.737 368.795 224.753C368.795 226.769 367.09 228.412 364.999 228.412C362.909 228.412 361.204 226.769 361.204 224.753C361.204 222.737 362.909 221.095 364.999 221.095Z" stroke="#F9F9F9" stroke-width="14" stroke-linecap="round" stroke-linejoin="round"/>
</g>
</g>
<defs>
<clipPath id="clip0_3453_5798">
<rect width="900" height="600" fill="white"/>
</clipPath>
</defs>
</svg>
