<svg width="900" height="600" viewBox="0 0 900 600" fill="none" xmlns="http://www.w3.org/2000/svg">
<g clip-path="url(#clip0_3453_5818)">
<mask id="mask0_3453_5818" style="mask-type:luminance" maskUnits="userSpaceOnUse" x="0" y="0" width="900" height="600">
<path d="M900 0H0V600H900V0Z" fill="white"/>
</mask>
<g mask="url(#mask0_3453_5818)">
<path d="M298.924 119.733L461.582 66.5482C472.787 62.8842 482.896 60.1512 492.344 59.0652C542.328 51.0232 565.646 78.8952 594.227 166.304L644.963 321.469C673.544 408.878 671.197 445.141 626.117 468.183C617.853 472.889 608.082 476.656 596.877 480.32L434.219 533.506C423.014 537.17 412.905 539.903 403.457 540.988C353.472 549.031 330.155 521.159 301.574 433.75L250.838 278.585C222.257 191.175 224.604 154.912 269.684 131.871C277.948 127.165 287.719 123.397 298.924 119.733Z" stroke="#CDD0D1" stroke-width="11" stroke-linecap="round" stroke-linejoin="round"/>
<path d="M366.682 93.4258H529.116C540.306 93.4258 550.233 93.9428 559.076 95.7508C606.543 103.24 619.357 135.263 619.357 222.552V377.504C619.357 464.793 606.543 496.816 559.076 504.305C550.233 506.113 540.306 506.629 529.116 506.629H366.682C355.493 506.629 345.566 506.113 336.722 504.305C289.256 496.816 276.441 464.793 276.441 377.504V222.552C276.441 135.263 289.256 103.24 336.722 95.7508C345.566 93.9428 355.493 93.4258 366.682 93.4258Z" fill="black"/>
<path d="M472.657 210.57H530.431M365.363 276.597H530.431M365.363 339.429H530.431M365.363 402.262H530.431M416.437 210.57H416.585M366.917 210.57H367.065" stroke="white" stroke-width="24" stroke-linecap="round" stroke-linejoin="round"/>
<path d="M698.194 468.955C687.503 474.259 673.312 467.44 673.312 467.44C673.312 467.44 676.466 452.024 687.164 446.728C697.855 441.425 712.04 448.237 712.04 448.237C712.04 448.237 708.886 463.652 698.194 468.955Z" fill="url(#paint0_linear_3453_5818)"/>
<path d="M234.2 375.135C246.509 382.512 264.168 375.692 264.168 375.692C264.168 375.692 261.859 356.914 249.543 349.545C237.234 342.168 219.582 348.98 219.582 348.98C219.582 348.98 221.891 367.757 234.2 375.135Z" fill="url(#paint1_linear_3453_5818)"/>
<path d="M569.653 262.389C563.998 262.389 559.415 266.973 559.415 272.627C559.415 278.282 563.998 282.865 569.653 282.865C575.307 282.865 579.891 278.282 579.891 272.627C579.891 266.973 575.307 262.389 569.653 262.389Z" fill="black"/>
<path d="M407.762 441.433C397.128 441.433 388.508 450.054 388.508 460.687C388.508 471.321 397.128 479.941 407.762 479.941C418.395 479.941 427.016 471.321 427.016 460.687C427.016 450.054 418.395 441.433 407.762 441.433Z" fill="black"/>
<path d="M640.239 532.955C631.798 532.955 624.955 526.112 624.955 517.671C624.955 509.23 631.798 502.387 640.239 502.387C648.681 502.387 655.523 509.23 655.523 517.671C655.523 526.112 648.681 532.955 640.239 532.955Z" fill="black"/>
<path d="M193.232 195.909C187.58 195.909 182.999 191.328 182.999 185.676C182.999 180.025 187.58 175.443 193.232 175.443C198.883 175.443 203.465 180.025 203.465 185.676C203.465 191.328 198.883 195.909 193.232 195.909Z" fill="black"/>
<path d="M220.766 473.553C214.024 473.553 208.559 468.087 208.559 461.346C208.559 454.604 214.024 449.139 220.766 449.139C227.507 449.139 232.973 454.604 232.973 461.346C232.973 468.087 227.507 473.553 220.766 473.553Z" fill="white"/>
<path d="M663.4 209.934C655.413 209.934 648.937 203.459 648.937 195.471C648.937 187.483 655.413 181.008 663.4 181.008C671.388 181.008 677.863 187.483 677.863 195.471C677.863 203.459 671.388 209.934 663.4 209.934Z" fill="white"/>
<path d="M612.254 93.5944C602.213 93.5944 594.074 85.4549 594.074 75.4144C594.074 65.3738 602.213 57.2344 612.254 57.2344C622.294 57.2344 630.434 65.3738 630.434 75.4144C630.434 85.4549 622.294 93.5944 612.254 93.5944Z" fill="white"/>
<path d="M246.579 81.8303C248.643 89.5335 244.071 97.4514 236.368 99.5155C228.665 101.58 220.747 97.0081 218.683 89.3049C216.619 81.6016 221.19 73.6838 228.893 71.6197C236.597 69.5556 244.515 74.127 246.579 81.8303Z" fill="white"/>
<path d="M697.091 353.807C691.633 353.807 687.209 349.383 687.209 343.925C687.209 338.467 691.633 334.043 697.091 334.043C702.548 334.043 706.973 338.467 706.973 343.925C706.973 349.383 702.548 353.807 697.091 353.807Z" fill="white"/>
<path d="M286.168 545.197C278.007 545.197 271.391 539.904 271.391 533.376C271.391 526.847 278.007 521.555 286.168 521.555C294.329 521.555 300.945 526.847 300.945 533.376C300.945 539.904 294.329 545.197 286.168 545.197Z" fill="white"/>
</g>
</g>
<defs>
<linearGradient id="paint0_linear_3453_5818" x1="657.137" y1="485.499" x2="745.322" y2="415.745" gradientUnits="userSpaceOnUse">
<stop stop-color="white"/>
<stop offset="1" stop-color="#EEEEEE"/>
</linearGradient>
<linearGradient id="paint1_linear_3453_5818" x1="281.832" y1="398.881" x2="182.79" y2="306.859" gradientUnits="userSpaceOnUse">
<stop stop-color="white"/>
<stop offset="1" stop-color="#EEEEEE"/>
</linearGradient>
<clipPath id="clip0_3453_5818">
<rect width="900" height="600" fill="white"/>
</clipPath>
</defs>
</svg>
