<svg width="900" height="600" viewBox="0 0 900 600" fill="none" xmlns="http://www.w3.org/2000/svg">
<g clip-path="url(#clip0_3453_5838)">
<mask id="mask0_3453_5838" style="mask-type:luminance" maskUnits="userSpaceOnUse" x="0" y="0" width="900" height="600">
<path d="M900 0H0V600H900V0Z" fill="white"/>
</mask>
<g mask="url(#mask0_3453_5838)">
<path d="M624.63 411.155C627.466 463.408 525.306 569.66 399.387 530.333C340.824 512.04 345.784 481.679 301.253 441.666C274.709 417.817 236.571 399.784 225.964 365.118C216.801 335.196 222.42 303.035 238.306 282.116C274.035 235.071 346.163 202.856 417.232 276.98C488.301 351.104 617.302 276.389 624.63 411.155Z" fill="url(#paint0_linear_3453_5838)"/>
<path d="M583.126 188.456C574.729 203.442 556.339 205.501 526.878 202.653C504.72 200.508 484.515 198.847 462.356 186.766C446.846 178.316 434.569 166.883 425.608 155.779C415.898 143.75 402.345 130.021 408.989 116.382C418.119 97.6455 470.922 81.8655 522.194 107.671C578.518 136.026 591.34 173.81 583.126 188.456Z" fill="url(#paint1_linear_3453_5838)"/>
<path d="M534.451 88.559C533.905 88.3629 533.353 88.1851 532.795 88.026C532.61 87.973 532.428 87.916 532.243 87.869C531.847 87.7685 531.449 87.6731 531.05 87.583C530.859 87.5418 530.668 87.5035 530.475 87.468C530.075 87.3932 529.674 87.3258 529.271 87.266C529.036 87.2332 528.8 87.2032 528.564 87.176C528.392 87.157 528.221 87.137 528.047 87.121C527.776 87.096 527.505 87.0753 527.233 87.059C527.09 87.051 526.947 87.036 526.804 87.031C526.384 87.0106 525.963 87.0003 525.541 87H331.449C329.678 86.9987 327.911 87.1772 326.176 87.533C315.099 89.801 306.574 99.086 305.412 110.551C305.322 111.434 305.277 112.328 305.277 113.234V510.887C305.277 522.242 312.473 531.909 322.544 535.562C322.589 535.579 322.634 535.593 322.679 535.607C323.179 535.784 323.686 535.946 324.197 536.092C324.382 536.145 324.565 536.201 324.753 536.249C324.949 536.299 325.146 536.347 325.342 536.395C325.541 536.442 325.743 536.49 325.945 536.535C326.136 536.577 326.327 536.613 326.521 536.65C326.92 536.724 327.321 536.792 327.722 536.852C327.955 536.885 328.191 536.913 328.429 536.941C328.871 536.992 329.315 537.032 329.759 537.059C329.902 537.068 330.045 537.082 330.189 537.087C330.607 537.107 331.028 537.118 331.451 537.118H525.547C526.45 537.118 527.343 537.073 528.224 536.983C540.541 535.73 550.335 525.912 551.586 513.565C551.676 512.682 551.721 511.787 551.721 510.882V113.234C551.715 101.879 544.52 92.212 534.451 88.559Z" fill="black"/>
<path d="M428.494 518.168C436.827 518.168 443.582 511.413 443.582 503.08C443.582 494.747 436.827 487.992 428.494 487.992C420.161 487.992 413.406 494.747 413.406 503.08C413.406 511.413 420.161 518.168 428.494 518.168Z" fill="#F9F9F9"/>
<path d="M452.388 109.535H405.867C404.478 109.535 403.352 110.661 403.352 112.05C403.352 113.438 404.478 114.564 405.867 114.564H452.388C453.777 114.564 454.903 113.438 454.903 112.05C454.903 110.661 453.777 109.535 452.388 109.535Z" fill="#F9F9F9"/>
<path d="M728.998 256.642C726.396 246.245 701.81 231.06 688.672 240.215C684.639 220.408 680.867 208.055 667.691 198.298C654.516 188.54 632.531 201.294 629 228.009C625.47 217.027 607.518 202.226 593.097 214.706C579.754 226.255 578.416 245.605 579.81 256.624H728.998V256.642Z" fill="url(#paint2_linear_3453_5838)"/>
<path d="M172 164.857C173.749 157.855 190.277 147.628 199.11 153.794C201.821 140.454 204.357 132.135 213.215 125.564C222.072 118.992 236.852 127.582 239.225 145.573C241.599 138.177 253.667 128.209 263.362 136.614C272.332 144.392 273.231 157.424 272.294 164.845H172V164.857Z" fill="url(#paint3_linear_3453_5838)"/>
<path d="M412.851 225.299C416.253 225.299 419.011 222.541 419.011 219.139C419.011 215.736 416.253 212.979 412.851 212.979C409.449 212.979 406.691 215.736 406.691 219.139C406.691 222.541 409.449 225.299 412.851 225.299Z" fill="#F9F9F9"/>
<path d="M475.223 230.439C473.103 230.113 470.964 229.939 468.82 229.919C455.896 229.826 443.582 235.492 435.133 245.421C426.684 255.349 422.95 268.54 424.917 281.508" stroke="#F9F9F9" stroke-width="10.395" stroke-linecap="round" stroke-linejoin="round"/>
<path d="M477.533 233.384C477.533 246.555 472.3 259.188 462.986 268.501C453.672 277.815 441.04 283.047 427.868 283.048C414.696 283.048 402.064 277.815 392.75 268.502C383.436 259.188 378.203 246.556 378.203 233.384C378.203 220.212 383.436 207.579 392.75 198.265C402.064 188.951 414.696 183.719 427.868 183.719C441.04 183.719 453.673 188.951 462.987 198.265C472.301 207.579 477.533 220.212 477.533 233.384Z" stroke="#F9F9F9" stroke-width="10.395" stroke-linecap="round" stroke-linejoin="round"/>
<path d="M496.39 381.119H366.884C364.107 381.119 361.855 383.371 361.855 386.148C361.855 388.926 364.107 391.178 366.884 391.178H496.39C499.168 391.178 501.419 388.927 501.419 386.149C501.419 383.372 499.168 381.119 496.39 381.119Z" fill="#F9F9F9"/>
<path d="M496.391 350.943H376.943C374.166 350.943 371.914 353.195 371.914 355.972V355.973C371.914 358.751 374.166 361.002 376.943 361.002H496.391C499.169 361.002 501.42 358.751 501.42 355.973V355.972C501.42 353.195 499.169 350.943 496.391 350.943Z" fill="#F9F9F9"/>
<path d="M496.392 320.768H360.599C357.822 320.768 355.57 323.019 355.57 325.797V325.798C355.57 328.575 357.822 330.827 360.599 330.827H496.392C499.17 330.827 501.421 328.575 501.421 325.798V325.797C501.421 323.019 499.17 320.768 496.392 320.768Z" fill="#F9F9F9"/>
<path d="M265.044 348.43C269.21 348.43 272.588 351.807 272.588 355.974C272.588 360.14 269.21 363.518 265.044 363.518C260.878 363.518 257.5 360.14 257.5 355.974C257.5 351.807 260.878 348.43 265.044 348.43Z" fill="#E1E4E5"/>
<path d="M595.091 376.091C592.661 376.091 590.69 378.061 590.69 380.492C590.69 382.922 592.661 384.893 595.091 384.893C597.522 384.893 599.492 382.922 599.492 380.492C599.492 378.061 597.522 376.091 595.091 376.091Z" fill="black"/>
<path d="M204.658 245C201.534 245 199 247.534 199 250.658C199 253.783 201.534 256.316 204.658 256.316C207.783 256.316 210.316 253.783 210.316 250.658C210.316 247.534 207.783 245 204.658 245Z" fill="black"/>
<path d="M278.658 213C275.534 213 273 215.534 273 218.658C273 221.783 275.534 224.316 278.658 224.316C281.783 224.316 284.316 221.783 284.316 218.658C284.316 215.534 281.783 213 278.658 213Z" fill="#E1E4E5"/>
<path d="M591.322 445.245C594.447 445.245 596.98 447.778 596.98 450.903C596.98 454.027 594.447 456.561 591.322 456.561C588.197 456.561 585.664 454.027 585.664 450.903C585.664 447.778 588.197 445.245 591.322 445.245Z" fill="#E1E4E5"/>
<path d="M273.658 470C276.783 470 279.316 472.534 279.316 475.658C279.316 478.783 276.783 481.316 273.658 481.316C270.533 481.316 268 478.783 268 475.658C268 472.534 270.533 470 273.658 470Z" fill="#E1E4E5"/>
<path d="M578.748 151.028C581.873 151.028 584.406 153.561 584.406 156.686C584.406 159.811 581.873 162.344 578.748 162.344C575.623 162.344 573.09 159.811 573.09 156.686C573.09 153.561 575.623 151.028 578.748 151.028Z" fill="#E1E4E5"/>
<path d="M599.492 315.739L590.691 306.938L599.492 298.137L608.294 306.938L599.492 315.739Z" stroke="#E1E4E5" stroke-width="5.029" stroke-linecap="round" stroke-linejoin="round"/>
<path d="M660.03 291.914C650.675 294.13 640.781 286.196 640.781 286.196C640.781 286.196 646.061 274.674 655.419 272.465C664.774 270.249 674.665 278.175 674.665 278.175C674.665 278.175 669.385 289.698 660.03 291.914Z" fill="url(#paint4_linear_3453_5838)"/>
<path d="M643.146 364.776C651.437 370.487 664.105 366.495 664.105 366.495C664.105 366.495 663.32 353.245 655.023 347.539C646.732 341.828 634.07 345.815 634.07 345.815C634.07 345.815 634.854 359.065 643.146 364.776Z" fill="url(#paint5_linear_3453_5838)"/>
<path d="M151.274 309.601C169.598 328.251 203.864 324.319 203.864 324.319C203.864 324.319 208.398 290.149 190.057 271.51C171.733 252.86 137.485 256.781 137.485 256.781C137.485 256.781 132.95 290.951 151.274 309.601Z" fill="url(#paint6_linear_3453_5838)"/>
<path d="M692.616 318.001C685.095 318.001 678.998 323.833 678.998 331.027C678.998 338.221 685.095 344.053 692.616 344.053C700.137 344.053 706.234 338.221 706.234 331.027C706.234 323.833 700.137 318.001 692.616 318.001Z" fill="black"/>
<path d="M253.607 422.521C243.47 422.521 235.253 430.473 235.253 440.283C235.253 450.093 243.47 458.046 253.607 458.046C263.744 458.046 271.961 450.093 271.961 440.283C271.961 430.473 263.744 422.521 253.607 422.521Z" fill="black"/>
<path d="M242.907 213.054C235.526 213.054 229.541 207.07 229.541 199.688C229.541 192.306 235.526 186.322 242.907 186.322C250.289 186.322 256.273 192.306 256.273 199.688C256.273 207.07 250.289 213.054 242.907 213.054Z" fill="black"/>
<path d="M608.433 245.868C601.566 245.868 595.999 240.301 595.999 233.434C595.999 226.567 601.566 221 608.433 221C615.3 221 620.867 226.567 620.867 233.434C620.867 240.301 615.3 245.868 608.433 245.868Z" fill="black"/>
<path d="M640.181 452.364C634.006 452.364 628.999 447.358 628.999 441.182C628.999 435.006 634.006 430 640.181 430C646.357 430 651.363 435.006 651.363 441.182C651.363 447.358 646.357 452.364 640.181 452.364Z" fill="#E1E4E5"/>
<path d="M197.761 380.524C191.265 380.524 185.999 375.258 185.999 368.762C185.999 362.266 191.265 357 197.761 357C204.257 357 209.523 362.266 209.523 368.762C209.523 375.258 204.257 380.524 197.761 380.524Z" fill="#E1E4E5"/>
<path d="M659.795 230.59C656.594 230.59 654 227.995 654 224.795C654 221.595 656.594 219 659.795 219C662.995 219 665.59 221.595 665.59 224.795C665.59 227.995 662.995 230.59 659.795 230.59Z" fill="#E1E4E5"/>
<path d="M626.237 165.7C621.352 165.7 617.392 161.74 617.392 156.855C617.392 151.97 621.352 148.01 626.237 148.01C631.122 148.01 635.082 151.97 635.082 156.855C635.082 161.74 631.122 165.7 626.237 165.7Z" fill="#E1E4E5"/>
<path d="M254.765 288.371C255.592 291.458 253.76 294.63 250.674 295.458C247.587 296.285 244.414 294.453 243.587 291.366C242.76 288.28 244.592 285.107 247.679 284.28C250.765 283.453 253.938 285.285 254.765 288.371Z" fill="#E1E4E5"/>
<path d="M171.5 205C168.462 205 166 202.538 166 199.5C166 196.462 168.462 194 171.5 194C174.538 194 177 196.462 177 199.5C177 202.538 174.538 205 171.5 205Z" fill="#E1E4E5"/>
<path d="M684.923 407.474C681.653 407.474 679.002 405.353 679.002 402.737C679.002 400.121 681.653 398 684.923 398C688.193 398 690.844 400.121 690.844 402.737C690.844 405.353 688.193 407.474 684.923 407.474Z" fill="#E1E4E5"/>
<path d="M537.284 113.652C539.005 120.075 535.193 126.678 528.77 128.399C522.346 130.12 515.744 126.308 514.023 119.885C512.302 113.461 516.113 106.859 522.537 105.137C528.96 103.416 535.563 107.228 537.284 113.652Z" fill="#E1E4E5"/>
<path d="M695.578 175H695.733C696.65 187.995 706.315 188.195 706.315 188.195C706.315 188.195 695.658 188.404 695.658 203.42C695.658 188.404 685 188.195 685 188.195C685 188.195 694.661 187.995 695.578 175ZM291.407 70H291.588C292.664 85.547 304 85.787 304 85.787C304 85.787 291.5 86.035 291.5 104C291.5 86.035 279 85.787 279 85.787C279 85.787 290.331 85.547 291.407 70Z" fill="#E1E4E5"/>
</g>
</g>
<defs>
<linearGradient id="paint0_linear_3453_5838" x1="502.528" y1="724.371" x2="311.432" y2="-137.786" gradientUnits="userSpaceOnUse">
<stop stop-color="white"/>
<stop offset="1" stop-color="#EEEEEE"/>
</linearGradient>
<linearGradient id="paint1_linear_3453_5838" x1="526.56" y1="285.578" x2="451.717" y2="-50.7335" gradientUnits="userSpaceOnUse">
<stop stop-color="white"/>
<stop offset="1" stop-color="#EEEEEE"/>
</linearGradient>
<linearGradient id="paint2_linear_3453_5838" x1="657.377" y1="291.184" x2="656.594" y2="127.994" gradientUnits="userSpaceOnUse">
<stop stop-color="white"/>
<stop offset="1" stop-color="#EEEEEE"/>
</linearGradient>
<linearGradient id="paint3_linear_3453_5838" x1="220.149" y1="188.12" x2="220.677" y2="78.2166" gradientUnits="userSpaceOnUse">
<stop stop-color="white"/>
<stop offset="1" stop-color="#EEEEEE"/>
</linearGradient>
<linearGradient id="paint4_linear_3453_5838" x1="624.803" y1="297.424" x2="706.693" y2="258.736" gradientUnits="userSpaceOnUse">
<stop stop-color="white"/>
<stop offset="1" stop-color="#EEEEEE"/>
</linearGradient>
<linearGradient id="paint5_linear_3453_5838" x1="675.445" y1="383.515" x2="610.176" y2="314.691" gradientUnits="userSpaceOnUse">
<stop stop-color="white"/>
<stop offset="1" stop-color="#EEEEEE"/>
</linearGradient>
<linearGradient id="paint6_linear_3453_5838" x1="224.383" y1="373.305" x2="91.9124" y2="165.645" gradientUnits="userSpaceOnUse">
<stop stop-color="white"/>
<stop offset="1" stop-color="#EEEEEE"/>
</linearGradient>
<clipPath id="clip0_3453_5838">
<rect width="900" height="600" fill="white"/>
</clipPath>
</defs>
</svg>
