<svg width="208" height="40" viewBox="0 0 208 40" fill="none" xmlns="http://www.w3.org/2000/svg">
<g clip-path="url(#clip0_2573_2816)">
<path d="M208 0H0V40H208V0Z" fill="black"/>
<path d="M208 0H117V40H208V0Z" fill="white"/>
<path d="M11.1162 29.9999V8.53369H15.2561L25.1305 23.3454V8.53369H29.2704V29.9999H25.1305L15.2561 15.2189V29.9999H11.1162ZM39.0073 29.9999V22.4561L31.7701 8.53369H36.462L41.5219 19.1442H40.6939L45.7232 8.53369H50.3844L43.1472 22.4561V29.9999H39.0073ZM48.9357 29.9999L56.7861 8.53369H61.478L69.2978 29.9999H64.9126L59.1167 13.2563L53.2902 29.9999H48.9357ZM52.4009 25.124L53.5049 21.9041H64.422L65.4953 25.124H52.4009ZM75.1237 29.9999V22.4561L67.8865 8.53369H72.5784L77.6383 19.1442H76.8103L81.8395 8.53369H86.5007L79.2636 22.4561V29.9999H75.1237ZM85.052 29.9999L92.9025 8.53369H97.5944L105.414 29.9999H101.029L95.2331 13.2563L89.4066 29.9999H85.052ZM88.5172 25.124L89.6212 21.9041H100.538L101.611 25.124H88.5172Z" fill="white"/>
<path d="M129.656 31.0002V14.0459H123.775V10.9189H139.352V14.0459H133.5V31.0002H129.656ZM142.097 31.0002V10.9189H155.293V14.0459H145.97V19.2957H154.432V22.3079H145.97V27.8733H155.293V31.0002H142.097ZM167.83 31.3445C165.821 31.3445 164.091 30.9141 162.637 30.0535C161.203 29.1738 160.094 27.9593 159.309 26.4102C158.544 24.8419 158.162 23.0346 158.162 20.9883C158.162 18.9419 158.544 17.1346 159.309 15.5663C160.094 13.9981 161.203 12.7741 162.637 11.8943C164.091 11.0146 165.821 10.5747 167.83 10.5747C170.258 10.5747 172.247 11.1771 173.797 12.382C175.346 13.5869 176.312 15.289 176.694 17.4884H172.477C172.228 16.4174 171.702 15.5854 170.899 14.9926C170.115 14.3806 169.082 14.0746 167.801 14.0746C166.615 14.0746 165.592 14.3614 164.731 14.9352C163.89 15.4898 163.24 16.2835 162.781 17.3163C162.322 18.3299 162.092 19.5539 162.092 20.9883C162.092 22.4035 162.322 23.6275 162.781 24.6603C163.24 25.693 163.89 26.4867 164.731 27.0413C165.592 27.5959 166.615 27.8733 167.801 27.8733C169.082 27.8733 170.115 27.5959 170.899 27.0413C171.683 26.4676 172.2 25.6739 172.448 24.6603H176.694C176.312 26.7449 175.346 28.3801 173.797 29.5658C172.247 30.7516 170.258 31.3445 167.83 31.3445ZM192.652 31.0002V10.9189H196.525V31.0002H192.652ZM180.001 31.0002V10.9189H183.874V31.0002H180.001ZM183.329 22.3079V19.1809H193.312V22.3079H183.329Z" fill="black"/>
<rect x="0.5" y="0.5" width="207" height="39" stroke="black"/>
</g>
<defs>
<clipPath id="clip0_2573_2816">
<rect width="208" height="40" fill="white"/>
</clipPath>
</defs>
</svg>
