<svg width="30" height="30" viewBox="0 0 30 30" fill="none" xmlns="http://www.w3.org/2000/svg">
<g id="Component 3" clip-path="url(#clip0_8074_12509)">
<path id="Vector" d="M29.5777 14.2257L26.3643 5.57403C26.2372 5.23186 25.9837 4.95942 25.6505 4.80664C25.3171 4.65414 24.9454 4.63982 24.6032 4.76665L22.4524 5.56538C21.7444 5.82843 21.3822 6.61857 21.6451 7.32661L21.68 7.42056C21.1712 7.61372 20.6032 7.40274 19.7351 7.03915C18.439 6.49649 16.6809 5.76782 14.4492 7.16369C12.6378 6.03626 11.2165 6.31438 9.95777 6.565C9.31841 6.69206 8.70941 6.81167 8.08048 6.7466C8.06278 6.58133 8.01747 6.41847 7.93927 6.26569C7.77206 5.93928 7.48872 5.69776 7.14158 5.58577L4.95815 4.88145C4.61083 4.76946 4.2398 4.79993 3.9135 4.96675C3.5872 5.13396 3.34569 5.4173 3.23381 5.76444L0.399744 14.5479C0.167911 15.2667 0.564095 16.0402 1.28302 16.272L3.46639 16.9766C3.60416 17.0211 3.7456 17.0431 3.88646 17.0431C4.10088 17.0431 4.31404 16.992 4.51093 16.8913C4.63254 16.829 4.73766 16.746 4.83339 16.6541C4.84685 16.7205 4.86489 16.7862 4.88116 16.8522L4.33455 17.8741C4.10014 18.3126 4.05471 18.8444 4.21018 19.3328C4.36153 19.8084 4.68072 20.1882 5.09936 20.3973C5.46421 20.5925 5.86612 20.6535 6.24776 20.5973C6.13874 20.9588 6.14081 21.3553 6.25898 21.7268C6.41033 22.2024 6.72952 22.5823 7.14816 22.7915C7.58605 23.0257 8.0901 23.0745 8.56775 22.9301C8.75856 22.8721 8.93586 22.7862 9.09477 22.6758C9.24807 23.144 9.5648 23.5176 9.97868 23.7244C10.4165 23.9586 10.9205 24.0075 11.3981 23.863C11.5042 23.8308 11.6062 23.79 11.7029 23.7411C11.8465 24.3177 12.2565 24.8312 12.7676 25.1045C13.0116 25.235 13.2991 25.3191 13.5975 25.3191C14.1398 25.3191 14.718 25.0412 15.1363 24.2593L15.2179 24.1067C15.2497 24.1233 15.2813 24.14 15.3103 24.1552L15.5285 24.2689C15.7956 24.4065 16.0568 24.4671 16.3023 24.4671C16.9149 24.4671 17.4294 24.0896 17.6925 23.5882C17.8736 23.2432 17.9374 22.8331 17.8495 22.4349C18.0705 22.4464 18.294 22.4201 18.5124 22.3539C19.0029 22.2053 19.4055 21.876 19.6458 21.4265C19.84 21.0635 19.9103 20.6559 19.8518 20.254C20.2621 20.4243 20.7158 20.4465 21.1485 20.3154C21.6433 20.1655 22.0494 19.8332 22.2918 19.3799C22.4899 19.0092 22.5603 18.5927 22.4973 18.1827C23.166 18.4492 23.8112 18.3273 24.2592 17.8365C24.7133 17.3391 24.8661 16.577 24.6962 15.897C24.7313 15.8844 24.7669 15.8716 24.8064 15.8574L24.8127 15.8552L24.8586 15.9784C25.0635 16.5298 25.5879 16.8712 26.1442 16.8712C26.3024 16.8712 26.463 16.8437 26.6196 16.7856L28.7703 15.9869C29.4785 15.7238 29.8406 14.9339 29.5777 14.2257ZM4.4364 15.8501C4.38931 15.9959 4.28752 16.1151 4.14957 16.1857C4.0114 16.2563 3.8553 16.2693 3.70974 16.2224L1.52626 15.5176C1.22333 15.42 1.05635 15.0941 1.15402 14.7912L3.9882 6.00779C4.03517 5.86212 4.13697 5.7429 4.27486 5.67233C4.35821 5.62965 4.44837 5.60794 4.53883 5.60794C4.59794 5.60794 4.657 5.61711 4.71458 5.63567C4.71469 5.63567 4.71469 5.63567 4.71469 5.63578L6.89817 6.34022C7.04385 6.38719 7.16306 6.48899 7.23363 6.62687C7.30421 6.76481 7.31721 6.92092 7.2703 7.06671L5.0077 14.0794C4.99779 14.0986 4.98823 14.1182 4.98141 14.1394C4.96153 14.2007 4.94618 14.2627 4.92871 14.3244L4.4364 15.8501ZM5.46352 19.6933C5.2282 19.5758 5.0513 19.3624 4.96554 19.0925C4.87457 18.8067 4.89938 18.4989 5.03354 18.248L5.65107 17.0934C5.65119 17.0933 5.65136 17.0932 5.65142 17.093L5.94638 16.5415C6.22118 16.028 6.8579 15.8296 7.37461 16.0903C7.71357 16.3273 8.22197 16.8312 7.83622 17.5524L7.62604 17.9453L6.92263 19.2604C6.64354 19.7801 5.99381 19.9772 5.46352 19.6933ZM8.9723 21.653C8.83813 21.9041 8.61272 22.0882 8.33763 22.1715C8.06272 22.2549 7.77292 22.2268 7.51233 22.0876C7.277 21.97 7.1001 21.7565 7.01435 21.4866C6.92338 21.201 6.9483 20.8931 7.08246 20.6423L7.62163 19.6344L8.32503 18.3193C8.45919 18.0684 8.68461 17.8843 8.95952 17.801C9.2346 17.7174 9.52412 17.7456 9.77532 17.8799C10.0263 18.0141 10.2103 18.2395 10.2937 18.5146C10.377 18.7895 10.3489 19.0793 10.2146 19.3304L10.0171 19.6999C10.0169 19.7003 10.0167 19.7006 10.0164 19.701L9.21392 21.2014C9.21392 21.2015 9.21392 21.2015 9.21381 21.2016L8.9723 21.653ZM11.1681 23.1044C10.8931 23.1878 10.6035 23.1597 10.3428 23.0205C10.1075 22.9029 9.93073 22.6895 9.84486 22.4196C9.75418 22.1343 9.7787 21.8271 9.91234 21.5764L9.91298 21.5753L10.7155 20.0749C10.7155 20.0747 10.7156 20.0746 10.7157 20.0744L10.7161 20.0736C10.8504 19.8232 11.0756 19.6397 11.3501 19.5564C11.6249 19.4727 11.9147 19.501 12.1657 19.6354C12.6867 19.914 12.8838 20.5647 12.6053 21.0856L12.204 21.8359L11.8484 22.5009C11.8482 22.5011 11.8481 22.5014 11.848 22.5016L11.8028 22.586C11.6686 22.8369 11.4431 23.0211 11.1681 23.1044ZM13.1414 24.4055C12.6218 24.1277 12.25 23.4306 12.5474 22.8746L12.9031 22.2096L12.9035 22.2087C13.0422 21.9502 13.2887 21.7425 13.5802 21.639C13.8712 21.5355 14.1632 21.5493 14.4029 21.6775C14.9252 21.9567 15.0095 22.201 15.0272 22.3605C15.0543 22.6016 14.9522 22.9223 14.6967 23.4C14.6965 23.4004 14.6964 23.4008 14.6962 23.4012L14.4372 23.8854C13.9986 24.7063 13.4372 24.5636 13.1414 24.4055ZM16.9906 23.22C16.8037 23.5767 16.3914 23.8216 15.8913 23.5644L15.6789 23.4535C15.6438 23.435 15.611 23.4178 15.5806 23.4019C15.7411 23.0449 15.8581 22.657 15.815 22.2724C15.7664 21.8387 15.5258 21.477 15.0891 21.1719L16.6501 22.0102C17.1717 22.3765 17.17 22.8783 16.9906 23.22ZM23.6737 17.3021C23.4185 17.582 23.0682 17.6057 22.6323 17.3723L21.5018 16.7677C21.501 16.7673 21.5003 16.7669 21.4995 16.7666C21.4879 16.7604 21.4758 16.7568 21.464 16.7519L17.8187 14.7732C17.6268 14.6686 17.3859 14.7401 17.2814 14.9325C17.177 15.1249 17.2482 15.3654 17.4407 15.4699L21.163 17.4904C21.4094 17.6349 21.5924 17.8622 21.6766 18.1396C21.7651 18.4317 21.7353 18.7394 21.5926 19.0061C21.45 19.2728 21.2106 19.4684 20.9185 19.5569C20.6259 19.6453 20.3184 19.6157 20.052 19.4731L18.9281 18.8719C18.9085 18.856 18.8874 18.8414 18.8644 18.8291L16.152 17.3788C15.9587 17.2754 15.7187 17.3486 15.6157 17.5415C15.5124 17.7345 15.5852 17.9747 15.7783 18.0778L18.4226 19.4917C18.4422 19.5077 18.4635 19.5223 18.4867 19.5347C18.7495 19.6752 18.9423 19.9111 19.0294 20.199C19.1166 20.4869 19.0872 20.7901 18.9467 21.0528C18.8062 21.3156 18.5703 21.5082 18.2824 21.5955C17.9947 21.6826 17.6914 21.6533 17.4287 21.5128L16.8549 21.206C16.826 21.1906 16.796 21.1803 16.7657 21.1726L14.4499 19.9291C14.257 19.8249 14.0167 19.8978 13.9133 20.0908C13.8097 20.2835 13.8821 20.5239 14.075 20.6274L14.5617 20.8887C14.2312 20.7669 13.8693 20.7439 13.5072 20.834C13.6095 20.0837 13.2453 19.3137 12.5395 18.9362C12.1059 18.7042 11.6068 18.6538 11.1332 18.7938C11.1298 18.6235 11.103 18.4524 11.0522 18.2846C10.9074 17.8068 10.5866 17.4149 10.1489 17.1808C9.70898 16.9457 9.21616 16.9052 8.77014 17.0296C8.76252 16.3562 8.33511 15.7963 7.82613 15.4389C7.80872 15.4255 7.79016 15.4135 7.7704 15.403C7.01051 14.9967 6.09211 15.1723 5.52923 15.7735C5.52012 15.3613 5.57649 14.9474 5.691 14.5424L7.95314 7.53106C8.71783 7.61957 9.42536 7.47927 10.1122 7.34236C11.254 7.11528 12.3384 6.89943 13.7396 7.66322C13.4344 7.90628 13.1273 8.18365 12.822 8.49202C12.5804 8.7364 12.3319 8.98038 12.0895 9.2184C11.2057 10.0864 10.4424 10.8361 10.2241 11.3682C10.1714 11.4968 10.1898 11.6436 10.2728 11.7551C11.8503 13.8767 13.7621 13.1567 15.2976 12.5785C16.4488 12.1449 17.4431 11.7702 18.2351 12.397C18.25 12.4088 18.2658 12.4195 18.2823 12.4291C18.6605 12.6483 19.1815 12.9056 19.7848 13.2035C21.2433 13.9239 23.2409 14.9105 23.7571 15.6951C24.104 16.222 23.994 16.9513 23.6737 17.3021ZM24.3578 15.1765C23.6658 14.2381 21.7153 13.2729 20.136 12.493C19.5583 12.2076 19.0576 11.9604 18.7033 11.7569C17.5656 10.8777 16.2709 11.3651 15.0184 11.8368C13.5339 12.3955 12.2431 12.8814 11.064 11.4786C11.341 11.0648 12.0023 10.4153 12.645 9.78414C12.8901 9.54337 13.1412 9.2967 13.3855 9.04975C13.809 8.62206 14.2327 8.26231 14.6459 7.978C16.6425 6.60499 18.1226 7.22361 19.4289 7.77028C20.0397 8.02601 20.6631 8.287 21.2798 8.287C21.5063 8.287 21.7316 8.24564 21.9553 8.16206L24.5367 15.1121C24.4765 15.1338 24.4156 15.1557 24.3578 15.1765ZM28.4945 15.2438L26.3438 16.0425C26.0445 16.1529 25.7122 16.0007 25.6015 15.7024L22.3883 7.05044C22.335 6.907 22.3412 6.75049 22.4057 6.60957C22.4703 6.46871 22.5849 6.36176 22.7284 6.30842L24.8791 5.5097C24.9437 5.48569 25.0109 5.47372 25.0781 5.47372C25.1604 5.47372 25.2427 5.49165 25.3202 5.52711C25.4609 5.59161 25.5679 5.7063 25.6211 5.84991L28.8345 14.5016C28.9454 14.8001 28.7928 15.1329 28.4945 15.2438Z" fill="black"/>
</g>
<defs>
<clipPath id="clip0_8074_12509">
<rect width="29.33" height="29.33" fill="white" transform="translate(0.333496 0.335083)"/>
</clipPath>
</defs>
</svg>
