<svg width="26" height="26" viewBox="0 0 26 26" fill="none" xmlns="http://www.w3.org/2000/svg">
<g id="fi_4272432" clip-path="url(#clip0_8144_37874)">
<g id="Group">
<path id="Vector" d="M1.73196 13.0029C1.73196 6.78817 6.78799 1.73214 13.0027 1.73214C15.34 1.73214 17.569 2.44085 19.4458 3.75624H17.9959C17.5827 3.75624 17.2478 4.09117 17.2478 4.5043C17.2478 4.91743 17.5827 5.25236 17.9959 5.25236H21.5014C21.9145 5.25236 22.2494 4.91743 22.2494 4.5043V0.998794C22.2494 0.585666 21.9145 0.250735 21.5014 0.250735C21.0882 0.250735 20.7533 0.585666 20.7533 0.998794V2.86091C18.5377 1.15858 15.8408 0.236023 13.0027 0.236023C9.59256 0.236023 6.38653 1.56403 3.97514 3.97532C1.56384 6.38671 0.23584 9.59275 0.23584 13.0029C0.23584 15.2431 0.827854 17.4505 1.9479 19.3862C2.08654 19.6259 2.33779 19.7598 2.59607 19.7598C2.72324 19.7598 2.8521 19.7273 2.97005 19.6591C3.32762 19.4522 3.44975 18.9946 3.24289 18.6369C2.25445 16.9286 1.73196 14.9804 1.73196 13.0029Z" fill="white"/>
<path id="Vector_2" d="M24.0573 6.61967C23.8504 6.26204 23.3927 6.13996 23.0352 6.34687C22.6776 6.55379 22.5555 7.0114 22.7623 7.36902C23.7508 9.07724 24.2733 11.0254 24.2733 13.003C24.2733 19.2177 19.2172 24.2738 13.0025 24.2738C10.6654 24.2738 8.43681 23.5648 6.56023 22.2497H8.00937C8.4225 22.2497 8.75743 21.9147 8.75743 21.5016C8.75743 21.0885 8.4225 20.7535 8.00937 20.7535H4.50392C4.09079 20.7535 3.75586 21.0885 3.75586 21.5016V25.0071C3.75586 25.4202 4.09079 25.7552 4.50392 25.7552C4.91705 25.7552 5.25198 25.4202 5.25198 25.0071V23.1431C7.46753 24.846 10.164 25.7699 13.0025 25.7699C16.4127 25.7699 19.6187 24.4419 22.0301 22.0306C24.4414 19.6192 25.7694 16.4132 25.7694 13.003C25.7694 10.7627 25.1774 8.55534 24.0573 6.61967Z" fill="white"/>
<path id="Vector_3" d="M19.656 11.5C19.7073 11.3084 19.6804 11.1042 19.5812 10.9324L18.0851 8.34102C17.9859 8.16922 17.8225 8.04385 17.6309 7.99248C17.4392 7.94116 17.2351 7.96799 17.0633 8.06724L16.2117 8.55891C15.9088 8.33918 15.5864 8.15236 15.2468 7.99991V7.01851C15.2468 6.60538 14.9118 6.27045 14.4987 6.27045H11.5065C11.0933 6.27045 10.7584 6.60538 10.7584 7.01851V7.99986C10.4188 8.15236 10.0964 8.33913 9.79351 8.55886L8.94192 8.06718C8.77012 7.96794 8.56575 7.94106 8.3743 7.99243C8.18264 8.04375 8.01927 8.16912 7.92007 8.34097L6.42396 10.9324C6.32476 11.1042 6.29788 11.3084 6.3492 11.5C6.40057 11.6916 6.52594 11.855 6.69775 11.9542L7.5452 12.4434C7.5263 12.6292 7.51682 12.8161 7.51682 13.003C7.51682 13.1898 7.5263 13.3768 7.5452 13.5624L6.69775 14.0517C6.52594 14.1509 6.40057 14.3143 6.3492 14.5059C6.29788 14.6975 6.32476 14.9017 6.42396 15.0735L7.92007 17.6649C8.01927 17.8367 8.18269 17.9621 8.3743 18.0134C8.566 18.0648 8.77017 18.0379 8.94192 17.9387L9.79351 17.447C10.0964 17.6668 10.4188 17.8535 10.7584 18.006V18.9875C10.7584 19.4006 11.0933 19.7355 11.5065 19.7355H14.4987C14.9118 19.7355 15.2468 19.4006 15.2468 18.9875V18.0061C15.5864 17.8536 15.9087 17.6668 16.2117 17.4471L17.0633 17.9388C17.235 18.038 17.4393 18.0648 17.6309 18.0135C17.8225 17.9622 17.9859 17.8368 18.0851 17.665L19.5812 15.0736C19.6804 14.9018 19.7073 14.6976 19.656 14.506C19.6046 14.3143 19.4792 14.1509 19.3074 14.0518L18.46 13.5625C18.4789 13.3768 18.4884 13.1898 18.4884 13.003C18.4884 12.8161 18.4789 12.6292 18.46 12.4435L19.3074 11.9543C19.4792 11.8551 19.6046 11.6917 19.656 11.5ZM16.9115 12.2003C16.9651 12.4627 16.9922 12.7328 16.9922 13.003C16.9922 13.2731 16.9651 13.5432 16.9115 13.8057C16.8471 14.1211 16.9916 14.4423 17.2704 14.6032L17.9115 14.9734L17.1634 16.269L16.517 15.8958C16.2381 15.7347 15.8873 15.7703 15.6463 15.9841C15.2384 16.3463 14.7727 16.616 14.2624 16.786C13.9568 16.8877 13.7506 17.1736 13.7506 17.4957V18.2394H12.2545V17.4957C12.2545 17.1737 12.0483 16.8877 11.7427 16.786C11.2323 16.616 10.7667 16.3463 10.3587 15.9841C10.1178 15.7702 9.76703 15.7347 9.48811 15.8958L8.84163 16.269L8.09357 14.9734L8.73471 14.6032C9.01344 14.4423 9.15801 14.1211 9.09358 13.8057C9.04012 13.5432 9.01294 13.2731 9.01294 13.003C9.01294 12.7328 9.04012 12.4627 9.09368 12.2003C9.15811 11.8849 9.01354 11.5637 8.73481 11.4027L8.09367 11.0326L8.84173 9.73695L9.48821 10.1102C9.76713 10.2713 10.1179 10.2357 10.3588 10.0218C10.7668 9.6597 11.2324 9.38995 11.7429 9.21999C12.0484 9.11821 12.2546 8.8323 12.2546 8.51024V7.76656H13.7507V8.51024C13.7507 8.8323 13.9569 9.11821 14.2624 9.21999C14.7728 9.38995 15.2385 9.6597 15.6464 10.0218C15.8874 10.2357 16.2381 10.2712 16.5171 10.1102L17.1635 9.73695L17.9116 11.0326L17.2705 11.4027C16.9916 11.5637 16.8471 11.8849 16.9115 12.2003Z" fill="white"/>
<path id="Vector_4" d="M13.0026 10.2599C11.4902 10.2599 10.2598 11.4903 10.2598 13.0028C10.2598 14.5152 11.4902 15.7457 13.0026 15.7457C14.5151 15.7457 15.7455 14.5152 15.7455 13.0028C15.7455 11.4903 14.5151 10.2599 13.0026 10.2599ZM13.0026 14.2495C12.3152 14.2495 11.7559 13.6902 11.7559 13.0028C11.7559 12.3153 12.3152 11.756 13.0026 11.756C13.6901 11.756 14.2494 12.3153 14.2494 13.0028C14.2494 13.6902 13.6901 14.2495 13.0026 14.2495Z" fill="white"/>
</g>
</g>
<defs>
<clipPath id="clip0_8144_37874">
<rect width="25.5337" height="25.5337" fill="white" transform="translate(0.23584 0.236023)"/>
</clipPath>
</defs>
</svg>
