<svg width="24" height="24" viewBox="0 0 24 24" fill="none" xmlns="http://www.w3.org/2000/svg">
<rect width="24" height="24" rx="12" fill="black"/>
<g clip-path="url(#clip0_334_2995)">
<path d="M17.1612 9.73331C17.3109 9.52875 17.2662 9.24056 17.0615 9.09094C16.8483 8.93475 16.5597 8.97937 16.4101 9.18394L15.9978 9.74756L16.7487 10.2971L17.1612 9.73331Z" fill="white"/>
<path d="M7.31062 17.0081H13.7625C14.0715 17.0081 14.3229 16.7567 14.3229 16.4475V14.2472L13.9131 14.8072C13.9116 14.8093 13.9091 14.8104 13.9074 14.8123C13.8952 14.8275 13.881 14.8408 13.8645 14.8519C13.8617 14.8537 13.8593 14.856 13.8564 14.8577C13.8549 14.8586 13.8538 14.8597 13.8525 14.8607L12.4958 15.6097C12.4674 15.6253 12.4363 15.6332 12.4052 15.6332C12.3662 15.6332 12.3272 15.621 12.2944 15.597C12.2357 15.5539 12.207 15.4806 12.2213 15.4089L12.5246 13.8891C12.5248 13.8877 12.5256 13.8866 12.5259 13.8853C12.5265 13.8823 12.528 13.8797 12.5287 13.8767C12.5342 13.8568 12.5428 13.8386 12.5541 13.8219C12.5556 13.8199 12.5557 13.8172 12.5573 13.8152L14.3229 11.4019V7.5525C14.3229 7.2435 14.0715 6.99187 13.7625 6.99187H7.31062C7.00162 6.99187 6.75 7.24331 6.75 7.5525V16.4475C6.75 16.7565 7.00162 17.0081 7.31062 17.0081ZM8.09756 8.13469H12.975C13.0787 8.13469 13.1625 8.21869 13.1625 8.32219C13.1625 8.42569 13.0787 8.50969 12.975 8.50969H8.09756C7.99388 8.50969 7.91006 8.42569 7.91006 8.32219C7.91006 8.21869 7.99388 8.13469 8.09756 8.13469ZM8.09756 9.43781H12.975C13.0787 9.43781 13.1625 9.52181 13.1625 9.62531C13.1625 9.72881 13.0787 9.81281 12.975 9.81281H8.09756C7.99388 9.81281 7.91006 9.72881 7.91006 9.62531C7.91006 9.52181 7.99388 9.43781 8.09756 9.43781ZM8.09756 10.7409H12.975C13.0787 10.7409 13.1625 10.8249 13.1625 10.9284C13.1625 11.0319 13.0787 11.1159 12.975 11.1159H8.09756C7.99388 11.1159 7.91006 11.0319 7.91006 10.9284C7.91006 10.8249 7.99388 10.7409 8.09756 10.7409ZM8.09756 12.0442H12.4052C12.5089 12.0442 12.5927 12.1282 12.5927 12.2317C12.5927 12.3352 12.5089 12.4192 12.4052 12.4192H8.09756C7.99388 12.4192 7.91006 12.3352 7.91006 12.2317C7.91006 12.1282 7.99388 12.0442 8.09756 12.0442ZM8.09756 13.3474H11.5624C11.6661 13.3474 11.7499 13.4314 11.7499 13.5349C11.7499 13.6384 11.6661 13.7224 11.5624 13.7224H8.09756C7.99388 13.7224 7.91006 13.6384 7.91006 13.5349C7.91006 13.4314 7.99388 13.3474 8.09756 13.3474ZM7.49213 15.4123C7.60744 15.0285 7.84762 14.7277 8.15119 14.5875C8.53406 14.4105 9.00281 14.5226 9.21806 14.8431C9.24487 14.8828 9.26738 14.9252 9.2895 14.9677C9.30675 15.0007 9.32344 15.0339 9.345 15.0641C9.40706 15.1504 9.52237 15.2006 9.62981 15.1852C9.65494 15.1815 9.66337 15.1766 9.66337 15.1766C9.669 15.1719 9.68325 15.1515 9.69281 15.138C9.70331 15.1232 9.71362 15.1086 9.72487 15.0945C9.9045 14.8659 10.2521 14.7868 10.5519 14.9059C10.7098 14.9687 10.8533 15.0765 10.9785 15.2261C11.0396 15.2996 11.1431 15.3433 11.2556 15.3433H11.856C11.9597 15.3433 12.0435 15.4273 12.0435 15.5308C12.0435 15.6343 11.9597 15.7183 11.856 15.7183H11.2556C11.0301 15.7183 10.824 15.6266 10.6905 15.4665C10.6059 15.3652 10.5126 15.2938 10.4132 15.2542C10.287 15.204 10.1053 15.2171 10.0196 15.3261L9.99937 15.354C9.97331 15.3907 9.94106 15.4367 9.88931 15.4759C9.83381 15.5181 9.76631 15.5445 9.68325 15.5565C9.438 15.5923 9.18525 15.4845 9.04013 15.2829C9.00806 15.2381 8.98219 15.1899 8.95706 15.1414C8.94131 15.1112 8.92594 15.0808 8.90681 15.0525C8.78381 14.8693 8.49787 14.841 8.30869 14.9282C8.10244 15.0234 7.93594 15.2393 7.85156 15.5205C7.82156 15.6195 7.71825 15.6761 7.61794 15.6461C7.51894 15.6163 7.46269 15.5119 7.49231 15.4127L7.49213 15.4123Z" fill="white"/>
<path d="M12.9734 13.8878L15.7816 10.0533L16.5324 10.6031L13.7242 14.4377L12.9734 13.8878Z" fill="white"/>
<path d="M12.6681 15.0863L13.4142 14.6743L12.835 14.2506L12.6681 15.0863Z" fill="white"/>
</g>
<defs>
<clipPath id="clip0_334_2995">
<rect width="12" height="12" fill="white" transform="translate(6 6)"/>
</clipPath>
</defs>
</svg>
