<svg width="20" height="20" viewBox="0 0 20 20" fill="none" xmlns="http://www.w3.org/2000/svg">
<path d="M15.75 2.5H13.875V1.875C13.875 1.70924 13.8091 1.55027 13.6919 1.43306C13.5747 1.31585 13.4157 1.25 13.25 1.25C13.0843 1.25 12.9253 1.31585 12.8081 1.43306C12.6909 1.55027 12.625 1.70924 12.625 1.875V2.5H6.375V1.875C6.375 1.70924 6.30912 1.55027 6.19194 1.43306C6.07475 1.31585 5.91575 1.25 5.75 1.25C5.58424 1.25 5.42527 1.31585 5.30806 1.43306C5.19085 1.55027 5.125 1.70924 5.125 1.875V2.5H3.25C2.91848 2.5 2.60054 2.63169 2.36612 2.86612C2.13169 3.10054 2 3.41848 2 3.75V16.25C2 16.5815 2.13169 16.8994 2.36612 17.1339C2.60054 17.3683 2.91848 17.5 3.25 17.5H15.75C16.0815 17.5 16.3994 17.3683 16.6339 17.1339C16.8683 16.8994 17 16.5815 17 16.25V3.75C17 3.41848 16.8683 3.10054 16.6339 2.86612C16.3994 2.63169 16.0815 2.5 15.75 2.5ZM12.7422 10.4531L9.09375 13.8906C9.037 13.9462 8.96987 13.9901 8.89612 14.0196C8.82238 14.0491 8.7435 14.0636 8.66406 14.0625C8.50394 14.0631 8.34988 14.0015 8.23438 13.8906L6.25781 12.0156C6.19431 11.9602 6.14269 11.8926 6.106 11.8167C6.06931 11.7409 6.04837 11.6584 6.04437 11.5742C6.04044 11.4901 6.0535 11.4059 6.08281 11.3269C6.11219 11.248 6.15719 11.1757 6.21519 11.1146C6.27319 11.0535 6.34288 11.0047 6.42019 10.9712C6.4975 10.9377 6.58081 10.9202 6.66506 10.9197C6.74931 10.9192 6.83281 10.9357 6.9105 10.9683C6.98819 11.0009 7.0585 11.0489 7.11719 11.1094L8.66406 12.5781L11.8828 9.54688C11.9418 9.48956 12.0117 9.44462 12.0884 9.41469C12.1651 9.38481 12.2469 9.3705 12.3291 9.37269C12.4114 9.37488 12.4924 9.3935 12.5674 9.42744C12.6423 9.46138 12.7098 9.50994 12.7656 9.57031C12.8794 9.69056 12.9409 9.85106 12.9365 10.0166C12.9321 10.1821 12.8623 10.3391 12.7422 10.4531ZM15.75 6.25H3.25V3.75H5.125V4.375C5.125 4.54076 5.19085 4.69973 5.30806 4.81694C5.42527 4.93415 5.58424 5 5.75 5C5.91575 5 6.07475 4.93415 6.19194 4.81694C6.30912 4.69973 6.375 4.54076 6.375 4.375V3.75H12.625V4.375C12.625 4.54076 12.6909 4.69973 12.8081 4.81694C12.9253 4.93415 13.0843 5 13.25 5C13.4157 5 13.5747 4.93415 13.6919 4.81694C13.8091 4.69973 13.875 4.54076 13.875 4.375V3.75H15.75V6.25Z" fill="black"/>
</svg>
