<svg width="30" height="30" viewBox="0 0 30 30" fill="none" xmlns="http://www.w3.org/2000/svg">
<g id="Group">
<g id="Group_2">
<path id="Vector" d="M29.6144 18.2197L29.6188 18.2182L24.8033 7.71132L25.9711 7.1301L25.5341 6.25509L24.3956 6.82213L24.2417 6.48631C24.1291 6.24092 23.839 6.13319 23.5936 6.24568C23.4871 6.29451 23.4018 6.37987 23.353 6.48631L23.2156 6.78645C22.387 6.40162 21.4846 6.20193 20.571 6.20132H16.4649V5.22366H17.4425V4.246H16.6022L16.9537 2.83964C17.2235 1.75976 16.5669 0.665575 15.487 0.39568C14.4071 0.125846 13.313 0.782466 13.0431 1.86235C12.9629 2.18315 12.9629 2.51879 13.0431 2.83958L13.3945 4.24594H12.5542V5.2236H13.5319V6.20126H9.42817C8.51369 6.20199 7.61034 6.40217 6.78116 6.78786L6.6438 6.48771C6.53131 6.24232 6.24113 6.1346 5.99573 6.24709C5.88929 6.29591 5.80393 6.38127 5.75511 6.48771L5.60113 6.82354L4.46264 6.25405L4.02563 7.13004L5.19344 7.7137L0.377986 18.2182C0.34829 18.2821 0.333136 18.3517 0.333503 18.4221C0.335641 20.3109 1.86641 21.8417 3.75531 21.8439H8.6436C10.5325 21.8417 12.0633 20.3109 12.0654 18.4221C12.0642 18.3518 12.0475 18.2827 12.0165 18.2197L7.18787 7.67319C7.88976 7.34738 8.65435 7.17874 9.42817 7.17898H13.5319V25.0633L11.863 26.7321H10.1101C8.76092 26.7337 7.66753 27.8271 7.66594 29.1763C7.66594 29.4463 7.88481 29.6651 8.15477 29.6651H21.842C22.1119 29.6651 22.3308 29.4463 22.3308 29.1763C22.3292 27.8271 21.2358 26.7337 19.8867 26.7321H18.1337L16.4649 25.0633V7.17898H20.571C21.3449 7.17874 22.1094 7.34738 22.8113 7.67319L17.9758 18.2182C17.9461 18.2821 17.931 18.3517 17.9314 18.4221C17.9335 20.3109 19.4643 21.8417 21.3532 21.8439H26.2415C28.1304 21.8417 29.6611 20.3109 29.6633 18.4221C29.6621 18.3518 29.6454 18.2827 29.6144 18.2197ZM8.6436 20.8662H3.75531C2.59422 20.8649 1.59377 20.0482 1.36004 18.9109H11.0389C10.8052 20.0482 9.80469 20.8649 8.6436 20.8662ZM10.815 17.9332H1.58393L6.07431 8.1366C6.15631 8.15859 6.24259 8.15859 6.32459 8.1366L10.815 17.9332ZM14.1806 1.71191C14.5612 1.26024 15.236 1.20274 15.6877 1.58341C15.7341 1.62252 15.7771 1.66554 15.8162 1.71191C16.0139 1.96342 16.0838 2.2924 16.0054 2.60256L15.5943 4.246H14.4025L13.9914 2.60256C13.913 2.2924 13.9829 1.96342 14.1806 1.71191ZM14.5096 6.20132V5.22366H15.4872V6.20132H14.5096ZM15.4872 7.17898V24.7768H14.5096V7.17898H15.4872ZM19.8867 27.7098C20.508 27.7105 21.0616 28.102 21.2696 28.6875H8.72719C8.93513 28.102 9.48879 27.7105 10.1101 27.7098H19.8867ZM16.7513 26.7321H13.2454L14.2231 25.7545H15.7737L16.7513 26.7321ZM23.6712 8.13806C23.7519 8.16648 23.8404 8.16281 23.9185 8.1278L28.4128 17.9332H19.1818L23.6712 8.13806ZM26.2415 20.8662H21.3532C20.1921 20.8649 19.1916 20.0482 18.9579 18.9109H28.6367C28.4031 20.0482 27.4025 20.8649 26.2415 20.8662Z" fill="black"/>
</g>
</g>
</svg>
