<svg width="32" height="32" viewBox="0 0 32 32" fill="none" xmlns="http://www.w3.org/2000/svg">
<path d="M23.9066 20.8699C23.5603 20.6124 23.071 20.6843 22.8134 21.0304C22.6718 21.2208 22.5202 21.4076 22.3629 21.5855C22.0772 21.9087 22.1075 22.4025 22.4308 22.6883C22.5794 22.8197 22.764 22.8842 22.9479 22.8842C23.164 22.8842 23.3792 22.795 23.5335 22.6204C23.7198 22.4097 23.8993 22.1885 24.0671 21.963C24.3246 21.6169 24.2528 21.1274 23.9066 20.8699Z" fill="black" fill-opacity="0.75"/>
<path d="M25.2129 17.2085C24.7916 17.1167 24.3752 17.3841 24.2834 17.8057C24.2329 18.0376 24.1719 18.2699 24.1019 18.4963C23.9745 18.9086 24.2055 19.346 24.6177 19.4734C24.6945 19.4971 24.7722 19.5084 24.8486 19.5084C25.1822 19.5084 25.4911 19.293 25.5948 18.9575C25.6778 18.6889 25.7502 18.4131 25.8102 18.138C25.9019 17.7164 25.6345 17.3003 25.2129 17.2085Z" fill="black" fill-opacity="0.75"/>
<path d="M20.146 23.3741C19.9386 23.4899 19.7238 23.5981 19.5077 23.6957C19.1145 23.8733 18.9397 24.3361 19.1173 24.7293C19.2477 25.0182 19.5321 25.1892 19.8297 25.1892C19.9372 25.1892 20.0465 25.1669 20.1508 25.1198C20.4072 25.004 20.6618 24.8757 20.9077 24.7384C21.2845 24.5281 21.4194 24.0521 21.209 23.6754C20.9987 23.2987 20.5228 23.1638 20.146 23.3741Z" fill="black" fill-opacity="0.75"/>
<path d="M15.2186 9.75V15.6764L12.3538 18.5412C12.0487 18.8463 12.0487 19.3409 12.3538 19.646C12.5064 19.7986 12.7063 19.8748 12.9063 19.8748C13.1062 19.8748 13.3062 19.7986 13.4587 19.646L16.5523 16.5524C16.6988 16.4059 16.7811 16.2072 16.7811 16V9.75C16.7811 9.31852 16.4313 8.96875 15.9999 8.96875C15.5684 8.96875 15.2186 9.31852 15.2186 9.75Z" fill="black" fill-opacity="0.75"/>
<path d="M25.2188 7.67969C24.7873 7.67969 24.4375 8.02945 24.4375 8.46094V10.6303C22.6191 7.77844 19.4434 6 16 6C13.3289 6 10.8177 7.0402 8.92891 8.92891C7.0402 10.8177 6 13.3289 6 16C6 18.6711 7.0402 21.1823 8.92891 23.0711C10.8177 24.9598 13.3289 26 16 26C16.0066 26 16.013 25.9992 16.0195 25.999C16.0261 25.9992 16.0325 26 16.0391 26C16.3206 26 16.605 25.9881 16.8843 25.9648C17.3142 25.9287 17.6336 25.551 17.5976 25.1211C17.5616 24.6911 17.1843 24.3716 16.7539 24.4077C16.5178 24.4275 16.2773 24.4375 16.0391 24.4375C16.0325 24.4375 16.0261 24.4383 16.0195 24.4385C16.013 24.4383 16.0066 24.4375 16 24.4375C11.3475 24.4375 7.5625 20.6525 7.5625 16C7.5625 11.3475 11.3475 7.5625 16 7.5625C18.9984 7.5625 21.7561 9.16066 23.2631 11.7031H21.115C20.6835 11.7031 20.3337 12.0529 20.3337 12.4844C20.3337 12.9159 20.6835 13.2656 21.115 13.2656H23.5C23.9758 13.2656 24.4209 13.1319 24.7999 12.9003C24.8243 12.8864 24.8477 12.8714 24.87 12.8553C25.55 12.408 26 11.6386 26 10.7656V8.46094C26 8.02945 25.6502 7.67969 25.2188 7.67969Z" fill="black" fill-opacity="0.75"/>
</svg>
