<svg width="20" height="20" viewBox="0 0 20 20" fill="none" xmlns="http://www.w3.org/2000/svg">
<path d="M15.2084 5.83337C15.2084 6.10964 15.0987 6.37459 14.9033 6.56994C14.708 6.76529 14.443 6.87504 14.1668 6.87504C13.8905 6.87504 13.6255 6.76529 13.4302 6.56994C13.2348 6.37459 13.1251 6.10964 13.1251 5.83337C13.1251 5.55711 13.2348 5.29215 13.4302 5.0968C13.6255 4.90145 13.8905 4.79171 14.1668 4.79171C14.443 4.79171 14.708 4.90145 14.9033 5.0968C15.0987 5.29215 15.2084 5.55711 15.2084 5.83337ZM12.9168 1.70837C11.4694 1.70926 10.0816 2.28461 9.05812 3.30806C8.03467 4.3315 7.45932 5.71934 7.45843 7.16671C7.45843 7.48921 7.5001 7.80004 7.5501 8.08671C7.55708 8.1228 7.55544 8.16003 7.5453 8.19536C7.53516 8.2307 7.51682 8.26314 7.49177 8.29004L2.29593 13.4867C1.86611 13.9163 1.62451 14.499 1.62427 15.1067V16.9167C1.62427 17.7217 2.2776 18.375 3.0826 18.375H5.16593C5.55271 18.375 5.92364 18.2214 6.19713 17.9479C6.47062 17.6744 6.62427 17.3035 6.62427 16.9167V15.875H8.08343C8.65843 15.875 9.1251 15.4084 9.1251 14.8334V13.375H10.5834C10.8532 13.3752 11.1125 13.2708 11.3068 13.0836C11.5011 12.8965 11.6152 12.6413 11.6251 12.3717C12.0384 12.4784 12.4751 12.5417 12.9168 12.5417C14.3641 12.5408 15.752 11.9655 16.7754 10.942C17.7989 9.91858 18.3742 8.53074 18.3751 7.08337C18.3751 4.05754 15.9143 1.70837 12.9168 1.70837ZM8.70843 7.16671C8.70932 6.05086 9.15298 4.98097 9.942 4.19194C10.731 3.40292 11.8009 2.95926 12.9168 2.95837C15.2518 2.95837 17.1251 4.77587 17.1251 7.08337C17.1242 8.19922 16.6806 9.26912 15.8915 10.0581C15.1025 10.8472 14.0326 11.2908 12.9168 11.2917C12.3501 11.2917 11.7668 11.1492 11.2459 10.925C11.1508 10.8842 11.047 10.8676 10.9439 10.8768C10.8408 10.8859 10.7415 10.9206 10.6551 10.9776C10.5687 11.0346 10.4978 11.1122 10.4488 11.2034C10.3997 11.2946 10.3741 11.3965 10.3743 11.5V12.125H8.91677C8.34177 12.125 7.8751 12.5917 7.8751 13.1667V14.625H6.41677C5.84177 14.625 5.3751 15.0917 5.3751 15.6667V16.9167C5.3751 16.972 5.35315 17.025 5.31408 17.064C5.27501 17.1031 5.22202 17.125 5.16677 17.125H3.08343C3.02818 17.125 2.97519 17.1031 2.93612 17.064C2.89705 17.025 2.8751 16.972 2.8751 16.9167V15.1067C2.8751 14.8309 2.9851 14.565 3.1801 14.37L8.37677 9.17421C8.54427 9.00565 8.66856 8.79912 8.73908 8.5722C8.80959 8.34528 8.82424 8.10467 8.78177 7.87087C8.73739 7.63866 8.71286 7.40309 8.70843 7.16671Z" fill="black"/>
</svg>
