<svg width="20" height="20" viewBox="0 0 20 20" fill="none" xmlns="http://www.w3.org/2000/svg">
<path d="M0.15625 3.28125H19.8438V16.7188H0.15625V3.28125Z" fill="#F4F5F4"/>
<path d="M0.15625 3.28125H19.8438V7.74063H0.15625V3.28125Z" fill="#E97403"/>
<path d="M0.15625 12.2625H19.8438V16.7219H0.15625V12.2625Z" fill="#258C05"/>
<path d="M9.9998 8.00313C8.89668 8.00313 8.00293 8.89688 8.00293 10C8.00293 11.1031 8.89668 11.9969 9.9998 11.9969C11.1029 11.9969 11.9967 11.1031 11.9967 10C11.9967 8.89688 11.1029 8.00313 9.9998 8.00313ZM11.8529 10.125C11.8029 10.125 11.7623 10.1688 11.7623 10.2188C11.7623 10.2625 11.7936 10.2969 11.8311 10.3063C11.8248 10.3531 11.8154 10.3969 11.8029 10.4406L10.8717 10.1438L10.2404 10.0375C10.2436 10.0281 10.2436 10.0156 10.2436 10.0031L10.8811 10.0688L11.8561 10C11.8592 10.0438 11.8561 10.0844 11.8529 10.125ZM11.7654 10.5844C11.7623 10.5844 11.7623 10.5844 11.7592 10.5813C11.7092 10.5688 11.6592 10.6 11.6467 10.65C11.6373 10.6938 11.6592 10.7375 11.6967 10.7563C11.6779 10.8 11.6561 10.8438 11.6342 10.8844L10.8061 10.3594L10.2248 10.0969C10.2311 10.0875 10.2342 10.075 10.2373 10.0625L10.8373 10.2813L11.8029 10.4531C11.7904 10.4969 11.7779 10.5406 11.7654 10.5844ZM10.8217 11.6563C10.7936 11.6125 10.7373 11.6 10.6936 11.6281C10.6561 11.6531 10.6404 11.7 10.6561 11.7406C10.6154 11.7563 10.5748 11.7688 10.5342 11.7813L10.3154 10.8219L10.0873 10.2281C10.0967 10.225 10.1061 10.2188 10.1186 10.2125L10.3842 10.7938L10.9404 11.6031C10.9029 11.625 10.8654 11.6469 10.8248 11.6656C10.8248 11.6625 10.8248 11.6594 10.8217 11.6563ZM10.3373 11.8188C10.3217 11.7688 10.2717 11.7438 10.2217 11.7594C10.1811 11.7719 10.1561 11.8125 10.1561 11.8531C10.1092 11.8563 10.0623 11.8594 10.0123 11.8594L10.0717 10.8781L10.0186 10.2406C10.0342 10.2406 10.0467 10.2375 10.0623 10.2344L10.1779 10.8625L10.5248 11.7844C10.4654 11.8031 10.4029 11.8156 10.3373 11.8281C10.3373 11.825 10.3373 11.8219 10.3373 11.8188ZM9.30293 11.625C9.25918 11.6156 9.21543 11.6375 9.1998 11.6781C9.16543 11.6625 9.13418 11.6438 9.0998 11.6281L9.63105 10.8031L9.89668 10.2219C9.90605 10.2281 9.91855 10.2313 9.93105 10.2344L9.70918 10.8344L9.53105 11.8031C9.47793 11.7875 9.4248 11.7719 9.37168 11.7531C9.3748 11.75 9.3748 11.7438 9.3748 11.7406C9.38418 11.6844 9.35293 11.6375 9.30293 11.625ZM8.36855 10.6875C8.34355 10.65 8.2998 10.6375 8.25918 10.6531C8.24355 10.6156 8.23105 10.575 8.21855 10.5344L9.17168 10.3156L9.76855 10.0844C9.77168 10.0938 9.77793 10.1063 9.78418 10.1156L9.20293 10.3844L8.3998 10.9469C8.3748 10.9063 8.35293 10.8656 8.33105 10.8219C8.33418 10.8188 8.3373 10.8188 8.34043 10.8156C8.38418 10.7875 8.39668 10.7281 8.36855 10.6875ZM8.14668 9.84688H8.15918C8.20918 9.84375 8.2498 9.8 8.24668 9.75C8.24355 9.70625 8.2123 9.67188 8.17168 9.66563C8.17793 9.62813 8.1873 9.5875 8.19668 9.55L9.12793 9.84688L9.75918 9.95313C9.75605 9.9625 9.75605 9.975 9.75605 9.9875L9.11855 9.92188L8.14355 9.99063C8.14043 9.94063 8.14355 9.89375 8.14668 9.84688ZM8.24355 9.39375C8.24668 9.39375 8.25293 9.39688 8.25605 9.39688C8.30605 9.40625 8.35605 9.375 8.36543 9.325C8.3748 9.28125 8.3498 9.24063 8.3123 9.22188C8.33105 9.18438 8.3498 9.14688 8.36855 9.10938L9.19043 9.63125L9.7748 9.89375C9.76855 9.90313 9.76543 9.91563 9.7623 9.92813L9.15918 9.70938L8.19668 9.5375C8.2123 9.4875 8.22793 9.44063 8.24355 9.39375ZM9.1873 8.34688C9.21543 8.3875 9.2748 8.4 9.31543 8.37188C9.35293 8.34688 9.36543 8.3 9.3498 8.25938C9.3873 8.24375 9.4248 8.23125 9.46543 8.22188L9.68418 9.16875L9.91543 9.76875C9.90605 9.77188 9.89668 9.77813 9.88418 9.78438L9.61855 9.2L9.0623 8.39375C9.0998 8.37188 9.14043 8.35 9.18105 8.33125C9.18418 8.3375 9.18418 8.34063 9.1873 8.34688ZM8.17168 10.3406C8.1748 10.3406 8.18105 10.3406 8.18418 10.3375C8.23105 10.3219 8.25918 10.2688 8.24355 10.2219C8.23105 10.1813 8.19043 10.1563 8.1498 10.1594C8.14668 10.1063 8.14355 10.0563 8.14355 10.0031L9.11855 10.0656L9.75605 10.0156C9.75605 10.0313 9.75918 10.0438 9.7623 10.0594L9.13418 10.1781L8.21855 10.5219C8.1998 10.4594 8.18418 10.4 8.17168 10.3406ZM9.9373 9.75938L9.81855 9.12813L9.47793 8.21563C9.53105 8.2 9.58418 8.1875 9.6373 8.17813C9.6373 8.18438 9.64043 8.19063 9.64043 8.19375C9.65605 8.24063 9.70918 8.26563 9.75918 8.25C9.7998 8.23438 9.8248 8.19375 9.81855 8.15C9.87168 8.14375 9.92793 8.14063 9.98418 8.14063L9.9248 9.10938L9.97793 9.75C9.96543 9.75313 9.95293 9.75625 9.9373 9.75938ZM10.2342 8.2375C10.2779 8.2375 10.3123 8.20938 10.3217 8.16875C10.3654 8.175 10.4092 8.18438 10.4529 8.19688L10.1498 9.12188L10.0373 9.75313C10.0248 9.75 10.0154 9.75 10.0029 9.75L10.0686 9.10938L9.9998 8.14063C10.0467 8.14063 10.0936 8.14375 10.1404 8.14688C10.1436 8.19688 10.1842 8.2375 10.2342 8.2375ZM10.6748 8.35625C10.7154 8.36875 10.7592 8.34688 10.7779 8.3125C10.8186 8.33125 10.8561 8.35 10.8936 8.37188L10.3686 9.19063L10.1029 9.775C10.0936 9.76875 10.0811 9.76563 10.0686 9.7625L10.2936 9.15938L10.4686 8.20313C10.5154 8.21563 10.5623 8.23125 10.6092 8.24688C10.5967 8.29375 10.6279 8.34375 10.6748 8.35625ZM11.0717 8.58438C11.1092 8.60625 11.1561 8.59688 11.1842 8.56875C11.2279 8.60313 11.2686 8.64375 11.3092 8.68125L10.5779 9.32188L10.1592 9.80938C10.1498 9.8 10.1373 9.79375 10.1248 9.78438L10.4936 9.25938L10.9061 8.37813C10.9498 8.40313 10.9936 8.42813 11.0373 8.45625C11.0123 8.50313 11.0279 8.55938 11.0717 8.58438ZM11.3967 8.90313C11.4279 8.93438 11.4748 8.9375 11.5092 8.91563C11.5373 8.95313 11.5623 8.99375 11.5873 9.03438L10.7217 9.48125L10.1998 9.85313C10.1936 9.84375 10.1873 9.83438 10.1779 9.82813L10.6779 9.425L11.3186 8.69063C11.3467 8.71875 11.3717 8.74688 11.3967 8.775C11.3592 8.80938 11.3623 8.86875 11.3967 8.90313ZM11.6311 9.29688C11.6529 9.33438 11.6967 9.35 11.7373 9.3375C11.7529 9.37813 11.7654 9.41563 11.7779 9.45625L10.8279 9.675L10.2311 9.90625C10.2279 9.89688 10.2217 9.88438 10.2154 9.875L10.7967 9.60313L11.5967 9.04375C11.6217 9.08438 11.6436 9.125 11.6623 9.16563C11.6186 9.19688 11.6029 9.25313 11.6311 9.29688ZM11.8217 9.63438H11.8186C11.7686 9.65 11.7404 9.7 11.7561 9.75C11.7686 9.79375 11.8092 9.81875 11.8498 9.81563C11.8561 9.87188 11.8592 9.92813 11.8592 9.9875L10.8842 9.925L10.2467 9.975C10.2467 9.95938 10.2436 9.94688 10.2404 9.93125L10.8717 9.8125L11.7873 9.46875C11.7967 9.525 11.8123 9.57813 11.8217 9.63438ZM8.79355 8.5875C8.79668 8.59063 8.7998 8.59375 8.80293 8.6C8.84043 8.63438 8.8998 8.62813 8.93418 8.59063C8.9623 8.55625 8.9623 8.50938 8.94043 8.475C8.97793 8.45 9.01543 8.425 9.05293 8.40313L9.49355 9.27188L9.8623 9.79688C9.85293 9.80313 9.84355 9.8125 9.83418 9.81875L9.42793 9.32188L8.6873 8.6875C8.71855 8.65313 8.75605 8.61875 8.79355 8.5875ZM8.6748 8.69688L9.3248 9.42188L9.81543 9.83438C9.80605 9.84375 9.7998 9.85625 9.79043 9.86875L9.2623 9.50313L8.3748 9.09375C8.3998 9.04688 8.42793 9.00313 8.45918 8.95625C8.4623 8.95938 8.46855 8.9625 8.47168 8.96563C8.51855 8.9875 8.57168 8.96875 8.59355 8.92188C8.6123 8.88125 8.5998 8.83438 8.56855 8.80938C8.60293 8.77188 8.6373 8.73438 8.6748 8.69688ZM8.57793 11.1969C8.58105 11.1938 8.5873 11.1906 8.59043 11.1875C8.6248 11.15 8.62168 11.0906 8.58418 11.0563C8.5498 11.025 8.50293 11.025 8.46855 11.05C8.44668 11.0188 8.42793 10.9875 8.40918 10.9563L9.28105 10.5063L9.7998 10.1375C9.80605 10.1469 9.8123 10.1563 9.82168 10.1625L9.3248 10.5625L8.68105 11.3031C8.64355 11.2688 8.60918 11.2344 8.57793 11.1969ZM8.68418 11.3156L9.42168 10.6688L9.8373 10.1844C9.84668 10.1938 9.85918 10.2031 9.87168 10.2094L9.50605 10.7313L9.09043 11.6219C9.0373 11.5938 8.9873 11.5594 8.9373 11.525C8.94043 11.5219 8.94355 11.5188 8.94668 11.5125C8.96855 11.4656 8.95293 11.4125 8.90605 11.3875C8.86543 11.3688 8.81855 11.3781 8.79355 11.4125C8.75605 11.3813 8.71855 11.3469 8.68418 11.3156ZM9.84355 11.8531C9.84355 11.85 9.84355 11.8469 9.84355 11.8438C9.84043 11.7938 9.7998 11.7531 9.74668 11.7563C9.70293 11.7594 9.66855 11.7906 9.65918 11.8313C9.61855 11.825 9.57793 11.8156 9.5373 11.8063L9.84355 10.8719L9.95293 10.2438C9.96543 10.2469 9.97793 10.2469 9.99043 10.2469L9.9248 10.8813L9.9998 11.8594C9.94668 11.8594 9.89668 11.8563 9.84355 11.8531ZM11.2186 11.4031C11.2154 11.4 11.2123 11.3969 11.2092 11.3938C11.1717 11.3594 11.1123 11.3594 11.0779 11.3969C11.0467 11.4313 11.0436 11.4813 11.0717 11.5156C11.0342 11.5438 10.9936 11.5688 10.9529 11.5938L10.5092 10.7188L10.1436 10.1969C10.1529 10.1906 10.1623 10.1813 10.1717 10.1719L10.5779 10.6656L11.3248 11.3031C11.2873 11.3406 11.2529 11.3719 11.2186 11.4031ZM11.3311 11.2969L10.6779 10.5656L10.1904 10.1531C10.1998 10.1438 10.2061 10.1313 10.2154 10.1188L10.7404 10.4844L11.6311 10.8938C11.6029 10.9438 11.5748 10.9906 11.5436 11.0375C11.5404 11.0344 11.5373 11.0344 11.5342 11.0313C11.4904 11.0063 11.4342 11.025 11.4092 11.0688C11.3873 11.1094 11.3998 11.1563 11.4342 11.1844C11.3967 11.225 11.3654 11.2625 11.3311 11.2969Z" fill="#07277E"/>
</svg>
