<svg width="24" height="24" viewBox="0 0 24 24" fill="none" xmlns="http://www.w3.org/2000/svg">
<rect width="24" height="24" rx="12" fill="black" fill-opacity="0.1"/>
<g clip-path="url(#clip0_477_154)">
<path d="M15.8545 17.555L13.9995 10.8268L12.3582 10.4259V12.6882L13.0284 17.6951C13.0518 17.8697 13.2008 18 13.3769 18H15.5156C15.7478 18 15.9162 17.7789 15.8545 17.555Z" fill="black"/>
<path d="M11.6429 10.4259L10.0008 10.827L8.14325 17.5549C8.08144 17.7788 8.24987 18 8.48213 18H10.6241C10.8003 18 10.9492 17.8697 10.9726 17.6951L11.6429 12.6882V10.4259Z" fill="black"/>
<path d="M9.56201 6.00005L12.0011 8.43919L14.4402 6.00005H9.56201Z" fill="black"/>
<path d="M11.6442 9.07603L8.61272 6.04456C8.57522 6.00645 8.51818 5.99133 8.46659 6.00539C8.41449 6.01934 8.37347 6.06038 8.3595 6.11241L7.40855 10.0553C7.32882 10.3858 7.62739 10.6836 7.95776 10.6028L11.6442 9.70228V9.07603Z" fill="black"/>
<path d="M16.5953 10.055L15.6443 6.11218C15.6303 6.06015 15.5893 6.01911 15.5372 6.00516C15.4856 5.99112 15.4286 6.00622 15.3911 6.04433L12.3596 9.07583V9.7021L16.0461 10.6027C16.3765 10.6834 16.675 10.3857 16.5953 10.055Z" fill="black"/>
</g>
<defs>
<clipPath id="clip0_477_154">
<rect width="12" height="12" fill="white" transform="translate(6 6)"/>
</clipPath>
</defs>
</svg>
