<svg width="20" height="18" viewBox="0 0 20 18" fill="none" xmlns="http://www.w3.org/2000/svg">
<path d="M18.6023 5.59967C18.8516 5.29283 18.7773 4.86055 18.436 4.63611C18.0807 4.40183 17.5998 4.46876 17.3504 4.77561L16.6632 5.62105L17.9148 6.44539L18.6023 5.59967Z" fill="white"/>
<path d="M2.18437 16.5119H12.9375C13.4525 16.5119 13.8716 16.1348 13.8716 15.671V12.3705L13.1884 13.2106C13.1859 13.2137 13.1819 13.2154 13.1791 13.2182C13.1588 13.241 13.135 13.261 13.1075 13.2775C13.1028 13.2804 13.0988 13.2837 13.0941 13.2863C13.0916 13.2877 13.0897 13.2894 13.0875 13.2908L10.8263 14.4144C10.7791 14.4377 10.7272 14.4495 10.6753 14.4495C10.6103 14.4495 10.5453 14.4312 10.4906 14.3952C10.3928 14.3305 10.345 14.2206 10.3687 14.1131L10.8744 11.8333C10.8747 11.8314 10.8759 11.8297 10.8766 11.8277C10.8775 11.8232 10.88 11.8193 10.8813 11.8148C10.8903 11.785 10.9047 11.7577 10.9234 11.7326C10.9259 11.7295 10.9263 11.7256 10.9288 11.7225L13.8716 8.10255V2.32849C13.8716 1.86499 13.4525 1.48755 12.9375 1.48755H2.18437C1.66937 1.48755 1.25 1.8647 1.25 2.32849V15.671C1.25 16.1345 1.66937 16.5119 2.18437 16.5119ZM3.49594 3.20177H11.625C11.7978 3.20177 11.9375 3.32777 11.9375 3.48302C11.9375 3.63827 11.7978 3.76427 11.625 3.76427H3.49594C3.32313 3.76427 3.18344 3.63827 3.18344 3.48302C3.18344 3.32777 3.32313 3.20177 3.49594 3.20177ZM3.49594 5.15645H11.625C11.7978 5.15645 11.9375 5.28245 11.9375 5.4377C11.9375 5.59295 11.7978 5.71896 11.625 5.71896H3.49594C3.32313 5.71896 3.18344 5.59295 3.18344 5.4377C3.18344 5.28245 3.32313 5.15645 3.49594 5.15645ZM3.49594 7.11114H11.625C11.7978 7.11114 11.9375 7.23714 11.9375 7.39239C11.9375 7.54764 11.7978 7.67364 11.625 7.67364H3.49594C3.32313 7.67364 3.18344 7.54764 3.18344 7.39239C3.18344 7.23714 3.32313 7.11114 3.49594 7.11114ZM3.49594 9.06611H10.6753C10.8481 9.06611 10.9878 9.19211 10.9878 9.34736C10.9878 9.50261 10.8481 9.62861 10.6753 9.62861H3.49594C3.32313 9.62861 3.18344 9.50261 3.18344 9.34736C3.18344 9.19211 3.32313 9.06611 3.49594 9.06611ZM3.49594 11.0208H9.27063C9.44344 11.0208 9.58313 11.1468 9.58313 11.302C9.58313 11.4573 9.44344 11.5833 9.27063 11.5833H3.49594C3.32313 11.5833 3.18344 11.4573 3.18344 11.302C3.18344 11.1468 3.32313 11.0208 3.49594 11.0208ZM2.48688 14.1182C2.67906 13.5425 3.07937 13.0914 3.58531 12.881C4.22344 12.6155 5.00469 12.7837 5.36344 13.2643C5.40812 13.324 5.44563 13.3875 5.4825 13.4514C5.51125 13.5009 5.53906 13.5506 5.575 13.5959C5.67844 13.7253 5.87062 13.8007 6.04969 13.7776C6.09156 13.772 6.10563 13.7647 6.10563 13.7647C6.115 13.7576 6.13875 13.727 6.15469 13.7067C6.17219 13.6845 6.18937 13.6626 6.20812 13.6415C6.5075 13.2986 7.08687 13.18 7.58656 13.3585C7.84969 13.4528 8.08875 13.6145 8.2975 13.8389C8.39937 13.9492 8.57188 14.0147 8.75938 14.0147H9.76C9.93281 14.0147 10.0725 14.1407 10.0725 14.296C10.0725 14.4512 9.93281 14.5772 9.76 14.5772H8.75938C8.38344 14.5772 8.04 14.4397 7.8175 14.1995C7.67656 14.0476 7.52094 13.9405 7.35531 13.8811C7.145 13.8057 6.84219 13.8254 6.69938 13.9888L6.66563 14.0307C6.62219 14.0859 6.56844 14.1548 6.48219 14.2135C6.38969 14.2768 6.27719 14.3165 6.13875 14.3345C5.73 14.3882 5.30875 14.2265 5.06688 13.9241C5.01344 13.8569 4.97031 13.7846 4.92844 13.7118C4.90219 13.6665 4.87656 13.621 4.84469 13.5785C4.63969 13.3037 4.16312 13.2612 3.84781 13.392C3.50406 13.5349 3.22656 13.8586 3.08594 14.2805C3.03594 14.429 2.86375 14.5139 2.69656 14.4689C2.53156 14.4242 2.43781 14.2675 2.48719 14.1188L2.48688 14.1182Z" fill="white"/>
<path d="M11.6223 11.8323L16.3027 6.08043L17.554 6.90521L12.8737 12.6571L11.6223 11.8323Z" fill="white"/>
<path d="M11.1133 13.6296L12.3567 13.0117L11.3914 12.3761L11.1133 13.6296Z" fill="white"/>
</svg>
