<svg width="24" height="24" viewBox="0 0 24 24" fill="none" xmlns="http://www.w3.org/2000/svg">
<path d="M9.05504 1.25C10.422 1.25 11.525 1.25 12.392 1.367C13.292 1.487 14.05 1.747 14.652 2.348C15.176 2.873 15.442 3.518 15.581 4.276C15.716 5.013 15.742 5.914 15.748 6.996C15.7491 7.19491 15.6711 7.3861 15.5312 7.5275C15.3913 7.6689 15.2009 7.74894 15.002 7.75C14.8031 7.75106 14.6119 7.67306 14.4705 7.53316C14.3291 7.39326 14.2491 7.20291 14.248 7.004C14.242 5.911 14.214 5.136 14.106 4.547C14.001 3.981 13.834 3.652 13.591 3.409C13.314 3.132 12.925 2.952 12.191 2.853C11.436 2.752 10.435 2.75 9.00004 2.75H8.00004C6.56404 2.75 5.56304 2.752 4.80804 2.853C4.07404 2.952 3.68604 3.133 3.40804 3.409C3.13204 3.686 2.95204 4.074 2.85304 4.809C2.75104 5.563 2.75004 6.565 2.75004 8V16C2.75004 17.435 2.75104 18.436 2.85304 19.192C2.95204 19.926 3.13204 20.314 3.40904 20.591C3.68604 20.868 4.07404 21.048 4.80804 21.147C5.56304 21.248 6.56404 21.25 8.00004 21.25H9.00004C10.435 21.25 11.436 21.248 12.192 21.147C12.925 21.048 13.314 20.867 13.591 20.591C13.834 20.347 14.001 20.019 14.106 19.453C14.214 18.864 14.242 18.089 14.248 16.996C14.2486 16.8975 14.2685 16.8001 14.3067 16.7093C14.3448 16.6185 14.4005 16.5361 14.4705 16.4668C14.5405 16.3976 14.6235 16.3428 14.7147 16.3056C14.8059 16.2684 14.9035 16.2495 15.002 16.25C15.1005 16.2505 15.198 16.2704 15.2887 16.3086C15.3795 16.3468 15.4619 16.4025 15.5312 16.4725C15.6005 16.5425 15.6553 16.6255 15.6925 16.7167C15.7297 16.8079 15.7486 16.9055 15.748 17.004C15.742 18.086 15.716 18.987 15.581 19.724C15.441 20.482 15.176 21.127 14.651 21.652C14.05 22.254 13.291 22.512 12.391 22.634C11.525 22.75 10.422 22.75 9.05504 22.75H7.94504C6.57704 22.75 5.47504 22.75 4.60804 22.634C3.70804 22.512 2.95004 22.254 2.34804 21.652C1.74604 21.05 1.48804 20.292 1.36604 19.392C1.25004 18.525 1.25004 17.422 1.25004 16.055V7.945C1.25004 6.578 1.25004 5.475 1.36604 4.608C1.48704 3.708 1.74604 2.95 2.34804 2.348C2.95004 1.746 3.70804 1.488 4.60804 1.367C5.47504 1.25 6.57804 1.25 7.94504 1.25H9.05504Z" fill="#EB5757"/>
<path d="M8.99993 11.25C8.80102 11.25 8.61025 11.329 8.4696 11.4697C8.32895 11.6103 8.24993 11.8011 8.24993 12C8.24993 12.1989 8.32895 12.3897 8.4696 12.5303C8.61025 12.671 8.80102 12.75 8.99993 12.75H19.9729L18.0119 14.43C17.8608 14.5594 17.7672 14.7436 17.7518 14.942C17.7364 15.1404 17.8005 15.3368 17.9299 15.488C18.0594 15.6392 18.2435 15.7327 18.4419 15.7481C18.6404 15.7635 18.8368 15.6994 18.9879 15.57L22.4879 12.57C22.5703 12.4996 22.6364 12.4122 22.6817 12.3138C22.727 12.2154 22.7505 12.1083 22.7505 12C22.7505 11.8917 22.727 11.7846 22.6817 11.6862C22.6364 11.5878 22.5703 11.5004 22.4879 11.43L18.9879 8.43C18.9131 8.36591 18.8263 8.3172 18.7327 8.28664C18.639 8.25607 18.5402 8.24426 18.4419 8.25188C18.3437 8.25949 18.2479 8.28638 18.1601 8.33101C18.0722 8.37565 17.994 8.43714 17.9299 8.512C17.8658 8.58685 17.8171 8.67359 17.7866 8.76727C17.756 8.86095 17.7442 8.95973 17.7518 9.05798C17.7594 9.15622 17.7863 9.25201 17.8309 9.33986C17.8756 9.42771 17.9371 9.50591 18.0119 9.57L19.9719 11.25H8.99993Z" fill="#EB5757"/>
</svg>
