<svg width="241" height="160" viewBox="0 0 241 160" fill="none" xmlns="http://www.w3.org/2000/svg">
<g clip-path="url(#clip0_283_1318)">
<path d="M192.972 58.2099C189.404 40.0917 141.176 11.84 96.8682 35.3275C76.2613 46.252 80.8434 56.2533 67.4944 73.4987C59.5376 83.7771 46.6621 92.9875 45.7165 105.702C44.8976 116.677 49.8898 127.242 57.7802 133.141C75.5258 146.406 105.772 151.697 126.163 120.659C146.555 89.6221 202.169 104.939 192.972 58.2099Z" fill="url(#paint0_linear_283_1318)"/>
<path fill-rule="evenodd" clip-rule="evenodd" d="M168.394 55.2819V41.6411C168.394 34.1072 162.287 28 154.753 28H86.5483C79.0147 28 72.9072 34.1072 72.9072 41.6411V75.7432" fill="white"/>
<path d="M168.394 55.2819V41.6411C168.394 34.1072 162.286 28 154.753 28H86.548C79.0144 28 72.9072 34.1072 72.9072 41.6411V75.7432" stroke="#CDD0D1" stroke-width="1.10133"/>
<path fill-rule="evenodd" clip-rule="evenodd" d="M72.9072 57.6672H117.001C118.124 57.6673 119.229 57.3904 120.219 56.8609C121.209 56.3314 122.053 55.5658 122.676 54.632L132.245 40.2477C132.869 39.3097 133.716 38.5409 134.71 38.0101C135.704 37.4793 136.814 37.203 137.94 37.2059H168.394C175.927 37.2059 182.035 43.3131 182.035 50.8467V119.051C182.035 126.585 175.927 132.692 168.394 132.692H72.9072C65.3736 132.692 59.2661 126.585 59.2661 119.051V71.308C59.2661 63.7744 65.3736 57.6672 72.9072 57.6672Z" fill="white" stroke="#CDD0D1" stroke-width="1.10133"/>
<path d="M189.034 131.733C187.561 131.733 186.367 130.599 186.367 129.2C186.367 127.801 187.561 126.667 189.034 126.667C190.506 126.667 191.7 127.801 191.7 129.2C191.7 130.599 190.506 131.733 189.034 131.733Z" fill="#CDD0D1"/>
<path d="M173.204 31.8075C172.521 31.8075 171.967 31.2536 171.967 30.5704C171.967 29.8872 172.521 29.3333 173.204 29.3333C173.887 29.3333 174.441 29.8872 174.441 30.5704C174.441 31.2536 173.887 31.8075 173.204 31.8075Z" fill="#CDD0D1"/>
<path d="M152.367 57.6C150.967 57.6 149.833 56.4061 149.833 54.9333C149.833 53.4606 150.967 52.2667 152.367 52.2667C153.766 52.2667 154.9 53.4606 154.9 54.9333C154.9 56.4061 153.766 57.6 152.367 57.6Z" fill="#CDD0D1"/>
<path d="M68.5493 42.4682C68.7961 43.3894 68.2494 44.3364 67.3281 44.5832C66.4069 44.8301 65.4599 44.2833 65.2131 43.3621C64.9662 42.4408 65.5129 41.4939 66.4342 41.247C67.3555 41.0002 68.3024 41.5469 68.5493 42.4682Z" fill="#CDD0D1"/>
<path d="M188.37 63.6837C187.394 63.6837 186.603 63.0507 186.603 62.2699C186.603 61.489 187.394 60.856 188.37 60.856C189.346 60.856 190.138 61.489 190.138 62.2699C190.138 63.0507 189.346 63.6837 188.37 63.6837Z" fill="#CDD0D1"/>
<path d="M50.8575 119.2H50.9037C51.1775 123.079 54.0621 123.139 54.0621 123.139C54.0621 123.139 50.8813 123.201 50.8813 127.683C50.8813 123.201 47.7002 123.139 47.7002 123.139C47.7002 123.139 50.5837 123.079 50.8575 119.2ZM203.303 77.4155H203.351C203.636 81.5115 206.634 81.5744 206.634 81.5744C206.634 81.5744 203.328 81.64 203.328 86.3728C203.328 81.64 200.022 81.5744 200.022 81.5744C200.022 81.5744 203.019 81.5115 203.303 77.4155Z" fill="#CDD0D1"/>
<path fill-rule="evenodd" clip-rule="evenodd" d="M129.486 114.933H112.313C105.2 114.933 99.4331 109.166 99.4331 102.053V84.8797C99.4331 77.7664 105.2 72 112.313 72H129.486C136.599 72 142.366 77.7664 142.366 84.8797V102.053C142.366 109.166 136.599 114.933 129.486 114.933Z" fill="black" stroke="black" stroke-width="6.43707" stroke-linecap="round" stroke-linejoin="round"/>
<path d="M120.9 92.6685V84.7907" stroke="white" stroke-width="6.43707" stroke-linecap="round" stroke-linejoin="round"/>
<path fill-rule="evenodd" clip-rule="evenodd" d="M120.9 101.361C120.849 101.361 120.798 101.371 120.751 101.391C120.704 101.411 120.661 101.44 120.625 101.476C120.589 101.512 120.561 101.555 120.541 101.603C120.522 101.65 120.513 101.701 120.513 101.752C120.513 101.83 120.536 101.905 120.579 101.97C120.622 102.034 120.684 102.084 120.755 102.114C120.827 102.143 120.906 102.151 120.982 102.135C121.058 102.12 121.128 102.082 121.182 102.027C121.237 101.972 121.274 101.902 121.288 101.826C121.303 101.75 121.294 101.671 121.264 101.6C121.234 101.528 121.183 101.467 121.118 101.425C121.053 101.383 120.977 101.36 120.9 101.361Z" fill="white"/>
<path d="M120.9 101.361C120.849 101.361 120.798 101.371 120.751 101.391C120.704 101.411 120.661 101.44 120.625 101.476C120.589 101.512 120.561 101.555 120.541 101.603C120.522 101.65 120.513 101.701 120.513 101.752C120.513 101.83 120.536 101.905 120.579 101.97C120.622 102.034 120.684 102.084 120.755 102.114C120.827 102.143 120.906 102.151 120.982 102.135C121.058 102.12 121.128 102.082 121.182 102.027C121.237 101.972 121.274 101.902 121.288 101.826C121.303 101.75 121.294 101.671 121.264 101.6C121.234 101.528 121.183 101.467 121.118 101.425C121.053 101.383 120.977 101.36 120.9 101.361Z" stroke="white" stroke-width="6.43707" stroke-linecap="round" stroke-linejoin="round"/>
<path fill-rule="evenodd" clip-rule="evenodd" d="M85.3056 118.938V119.996H86.3627C86.5757 119.997 86.7796 120.082 86.9301 120.232C87.0807 120.383 87.1656 120.587 87.1664 120.8C87.1656 121.013 87.0807 121.217 86.9301 121.368C86.7796 121.518 86.5757 121.603 86.3627 121.604H85.3056V122.662C85.3048 122.875 85.2199 123.079 85.0693 123.23C84.9188 123.381 84.7149 123.466 84.5019 123.467C84.289 123.466 84.0851 123.381 83.9346 123.23C83.784 123.079 83.6991 122.875 83.6982 122.662V121.609H82.6368C82.4239 121.608 82.2199 121.523 82.0694 121.372C81.9189 121.221 81.8339 121.017 81.8331 120.804C81.834 120.591 81.919 120.387 82.0695 120.237C82.22 120.086 82.4239 120.001 82.6368 120H83.6939V118.938C83.695 118.724 83.7806 118.519 83.932 118.369C84.0834 118.218 84.2883 118.133 84.5019 118.133C84.7149 118.134 84.9188 118.219 85.0693 118.37C85.2199 118.521 85.3048 118.725 85.3056 118.938ZM76.4683 111.526V113.007H78.0011C78.6408 113.007 79.1664 113.515 79.1664 114.133C79.1664 114.751 78.6408 115.259 78.0011 115.259H76.4683V116.741C76.4683 117.359 75.9427 117.867 75.303 117.867C74.6632 117.867 74.1376 117.359 74.1376 116.741V115.266H72.5984C71.9587 115.266 71.4331 114.758 71.4331 114.139C71.4331 113.521 71.9587 113.013 72.5984 113.013H74.1312V111.526C74.1312 110.908 74.6568 110.4 75.303 110.4C75.9427 110.4 76.4683 110.908 76.4683 111.526Z" fill="#CDD0D1"/>
</g>
<defs>
<linearGradient id="paint0_linear_283_1318" x1="118.776" y1="-39.3232" x2="121.644" y2="271.115" gradientUnits="userSpaceOnUse">
<stop stop-color="white"/>
<stop offset="1" stop-color="#EEEEEE"/>
</linearGradient>
<clipPath id="clip0_283_1318">
<rect width="240" height="160" fill="white" transform="translate(0.5)"/>
</clipPath>
</defs>
</svg>
