<svg width="24" height="24" viewBox="0 0 24 24" fill="none" xmlns="http://www.w3.org/2000/svg">
<rect width="24" height="24" rx="12" fill="black"/>
<path d="M16.7063 6.93562C16.7057 6.90997 16.6999 6.88471 16.6893 6.86134C16.6787 6.83797 16.6635 6.81699 16.6446 6.79965C16.6257 6.78232 16.6034 6.76898 16.5792 6.76045C16.555 6.75191 16.5294 6.74836 16.5038 6.75C9.74625 7.25437 8.48063 12.2381 8.24438 14.2894C8.98505 13.1889 10.9664 11.1894 11.0025 11.2013C11.0393 11.1689 11.0873 11.1521 11.1362 11.1546C11.1852 11.157 11.2313 11.1786 11.2646 11.2146C11.2979 11.2506 11.3158 11.2981 11.3145 11.3472C11.3131 11.3962 11.2927 11.4427 11.2575 11.4769C11.235 11.4975 8.22588 14.8664 8.19371 15.1162C7.79355 15.6974 7.49144 16.3404 7.29938 17.0194C7.29356 17.0433 7.29254 17.0682 7.29636 17.0925C7.30018 17.1168 7.30878 17.1402 7.32165 17.1612C7.33452 17.1822 7.35142 17.2004 7.37137 17.2149C7.39132 17.2293 7.41392 17.2397 7.43789 17.2454C7.46186 17.2511 7.48672 17.2519 7.51103 17.248C7.53534 17.244 7.55863 17.2353 7.57956 17.2223C7.6005 17.2093 7.61865 17.1923 7.63299 17.1723C7.64734 17.1523 7.65758 17.1296 7.66313 17.1056C7.84169 16.4766 8.1223 15.8812 8.49375 15.3431C13.7831 15.1725 15.6469 10.9237 15.6656 10.8806C15.6775 10.8521 15.6822 10.8211 15.6793 10.7904C15.6764 10.7596 15.6659 10.7301 15.6489 10.7043C15.6318 10.6786 15.6087 10.6574 15.5815 10.6427C15.5544 10.628 15.524 10.6202 15.4931 10.62H14.6456L16.1269 9.82125C16.1615 9.80319 16.1892 9.77418 16.2056 9.73875C16.7213 8.68687 16.7063 7.00687 16.7063 6.93562Z" fill="white"/>
</svg>
