<svg width="30" height="30" viewBox="0 0 30 30" fill="none" xmlns="http://www.w3.org/2000/svg">
<g clip-path="url(#clip0_8144_37873)">
<path d="M3.73196 15.0029C3.73196 8.78817 8.78799 3.73214 15.0027 3.73214C17.34 3.73214 19.569 4.44085 21.4458 5.75624H19.9959C19.5827 5.75624 19.2478 6.09117 19.2478 6.5043C19.2478 6.91743 19.5827 7.25236 19.9959 7.25236H23.5014C23.9145 7.25236 24.2494 6.91743 24.2494 6.5043V2.99879C24.2494 2.58567 23.9145 2.25073 23.5014 2.25073C23.0882 2.25073 22.7533 2.58567 22.7533 2.99879V4.86091C20.5377 3.15858 17.8408 2.23602 15.0027 2.23602C11.5926 2.23602 8.38653 3.56403 5.97514 5.97532C3.56384 8.38671 2.23584 11.5927 2.23584 15.0029C2.23584 17.2431 2.82785 19.4505 3.9479 21.3862C4.08654 21.6259 4.33779 21.7598 4.59607 21.7598C4.72324 21.7598 4.8521 21.7273 4.97005 21.6591C5.32762 21.4522 5.44975 20.9946 5.24289 20.6369C4.25445 18.9286 3.73196 16.9804 3.73196 15.0029Z" fill="white"/>
<path d="M26.0573 8.61967C25.8504 8.26204 25.3927 8.13996 25.0352 8.34687C24.6776 8.55379 24.5555 9.0114 24.7623 9.36902C25.7508 11.0772 26.2733 13.0254 26.2733 15.003C26.2733 21.2177 21.2172 26.2738 15.0025 26.2738C12.6654 26.2738 10.4368 25.5648 8.56023 24.2497H10.0094C10.4225 24.2497 10.7574 23.9147 10.7574 23.5016C10.7574 23.0885 10.4225 22.7535 10.0094 22.7535H6.50392C6.09079 22.7535 5.75586 23.0885 5.75586 23.5016V27.0071C5.75586 27.4202 6.09079 27.7552 6.50392 27.7552C6.91705 27.7552 7.25198 27.4202 7.25198 27.0071V25.1431C9.46753 26.846 12.164 27.7699 15.0025 27.7699C18.4127 27.7699 21.6187 26.4419 24.0301 24.0306C26.4414 21.6192 27.7694 18.4132 27.7694 15.003C27.7694 12.7627 27.1774 10.5553 26.0573 8.61967Z" fill="white"/>
<path d="M21.656 13.5C21.7073 13.3084 21.6804 13.1042 21.5812 12.9324L20.0851 10.341C19.9859 10.1692 19.8225 10.0438 19.6309 9.99248C19.4392 9.94116 19.2351 9.96799 19.0633 10.0672L18.2117 10.5589C17.9088 10.3392 17.5864 10.1524 17.2468 9.99991V9.01851C17.2468 8.60538 16.9118 8.27045 16.4987 8.27045H13.5065C13.0933 8.27045 12.7584 8.60538 12.7584 9.01851V9.99986C12.4188 10.1524 12.0964 10.3391 11.7935 10.5589L10.9419 10.0672C10.7701 9.96794 10.5657 9.94106 10.3743 9.99243C10.1826 10.0437 10.0193 10.1691 9.92007 10.341L8.42396 12.9324C8.32476 13.1042 8.29788 13.3084 8.3492 13.5C8.40057 13.6916 8.52594 13.855 8.69775 13.9542L9.5452 14.4434C9.5263 14.6292 9.51682 14.8161 9.51682 15.003C9.51682 15.1898 9.5263 15.3768 9.5452 15.5624L8.69775 16.0517C8.52594 16.1509 8.40057 16.3143 8.3492 16.5059C8.29788 16.6975 8.32476 16.9017 8.42396 17.0735L9.92007 19.6649C10.0193 19.8367 10.1827 19.9621 10.3743 20.0134C10.566 20.0648 10.7702 20.0379 10.9419 19.9387L11.7935 19.447C12.0964 19.6668 12.4188 19.8535 12.7584 20.006V20.9875C12.7584 21.4006 13.0933 21.7355 13.5065 21.7355H16.4987C16.9118 21.7355 17.2468 21.4006 17.2468 20.9875V20.0061C17.5864 19.8536 17.9087 19.6668 18.2117 19.4471L19.0633 19.9388C19.235 20.038 19.4393 20.0648 19.6309 20.0135C19.8225 19.9622 19.9859 19.8368 20.0851 19.665L21.5812 17.0736C21.6804 16.9018 21.7073 16.6976 21.656 16.506C21.6046 16.3143 21.4792 16.1509 21.3074 16.0518L20.46 15.5625C20.4789 15.3768 20.4884 15.1898 20.4884 15.003C20.4884 14.8161 20.4789 14.6292 20.46 14.4435L21.3074 13.9543C21.4792 13.8551 21.6046 13.6917 21.656 13.5ZM18.9115 14.2003C18.9651 14.4627 18.9922 14.7328 18.9922 15.003C18.9922 15.2731 18.9651 15.5432 18.9115 15.8057C18.8471 16.1211 18.9916 16.4423 19.2704 16.6032L19.9115 16.9734L19.1634 18.269L18.517 17.8958C18.2381 17.7347 17.8873 17.7703 17.6463 17.9841C17.2384 18.3463 16.7727 18.616 16.2624 18.786C15.9568 18.8877 15.7506 19.1736 15.7506 19.4957V20.2394H14.2545V19.4957C14.2545 19.1737 14.0483 18.8877 13.7427 18.786C13.2323 18.616 12.7667 18.3463 12.3587 17.9841C12.1178 17.7702 11.767 17.7347 11.4881 17.8958L10.8416 18.269L10.0936 16.9734L10.7347 16.6032C11.0134 16.4423 11.158 16.1211 11.0936 15.8057C11.0401 15.5432 11.0129 15.2731 11.0129 15.003C11.0129 14.7328 11.0401 14.4627 11.0937 14.2003C11.1581 13.8849 11.0135 13.5637 10.7348 13.4027L10.0937 13.0326L10.8417 11.737L11.4882 12.1102C11.7671 12.2713 12.1179 12.2357 12.3588 12.0218C12.7668 11.6597 13.2324 11.39 13.7429 11.22C14.0484 11.1182 14.2546 10.8323 14.2546 10.5102V9.76656H15.7507V10.5102C15.7507 10.8323 15.9569 11.1182 16.2624 11.22C16.7728 11.39 17.2385 11.6597 17.6464 12.0218C17.8874 12.2357 18.2381 12.2712 18.5171 12.1102L19.1635 11.737L19.9116 13.0326L19.2705 13.4027C18.9916 13.5637 18.8471 13.8849 18.9115 14.2003Z" fill="white"/>
<path d="M15.0026 12.2599C13.4902 12.2599 12.2598 13.4903 12.2598 15.0028C12.2598 16.5152 13.4902 17.7457 15.0026 17.7457C16.5151 17.7457 17.7455 16.5152 17.7455 15.0028C17.7455 13.4903 16.5151 12.2599 15.0026 12.2599ZM15.0026 16.2495C14.3152 16.2495 13.7559 15.6902 13.7559 15.0028C13.7559 14.3153 14.3152 13.756 15.0026 13.756C15.6901 13.756 16.2494 14.3153 16.2494 15.0028C16.2494 15.6902 15.6901 16.2495 15.0026 16.2495Z" fill="white"/>
</g>
<defs>
<clipPath id="clip0_8144_37873">
<rect width="25.5337" height="25.5337" fill="white" transform="translate(2.23584 2.23602)"/>
</clipPath>
</defs>
</svg>
