<svg width="44" height="44" viewBox="0 0 44 44" fill="none" xmlns="http://www.w3.org/2000/svg">
<rect width="44" height="44" fill="black"/>
<path d="M29.4898 20.9062L16.3648 13.4148C16.1436 13.2907 15.8898 13.2369 15.6373 13.2604C15.3847 13.284 15.1452 13.3838 14.9508 13.5466C14.7563 13.7095 14.6159 13.9277 14.5484 14.1722C14.4809 14.4167 14.4893 14.676 14.5726 14.9156L16.9945 21.9836C16.9942 21.9862 16.9942 21.9888 16.9945 21.9914C16.9941 21.994 16.9941 21.9966 16.9945 21.9992L14.5726 29.0828C14.5059 29.2713 14.4854 29.473 14.5127 29.6711C14.5401 29.8691 14.6146 30.0577 14.7299 30.221C14.8452 30.3844 14.9981 30.5176 15.1756 30.6097C15.3531 30.7017 15.5501 30.7498 15.75 30.75C15.9669 30.7494 16.18 30.6929 16.3687 30.5859L29.4867 23.082C29.6802 22.9736 29.8414 22.8157 29.9537 22.6244C30.066 22.4332 30.1254 22.2155 30.1258 21.9937C30.1262 21.7719 30.0676 21.554 29.956 21.3623C29.8443 21.1707 29.6837 21.0122 29.4906 20.9031L29.4898 20.9062ZM15.75 29.5V29.4929L18.1047 22.625H22.625C22.7908 22.625 22.9497 22.5591 23.0669 22.4419C23.1841 22.3247 23.25 22.1657 23.25 22C23.25 21.8342 23.1841 21.6752 23.0669 21.558C22.9497 21.4408 22.7908 21.375 22.625 21.375H18.1109L15.7547 14.5093L15.75 14.5L28.875 21.9867L15.75 29.5Z" fill="white"/>
</svg>
