<svg width="20" height="18" viewBox="0 0 20 18" fill="none" xmlns="http://www.w3.org/2000/svg">
<g clip-path="url(#clip0_394_599)">
<path d="M19.9266 4.17519C19.8229 3.80938 19.5342 3.50414 19.1558 3.34769L19.223 3.20894C19.3127 3.02224 19.3156 2.81539 19.2286 2.62618C19.167 2.48743 19.0632 2.37139 18.9315 2.28812L19.2847 1.5338C19.2847 1.5338 19.2847 1.5338 19.2847 1.53128C19.5426 0.973758 19.2482 0.325372 18.6315 0.0882693C18.0149 -0.148883 17.2916 0.108471 17.0226 0.660923V0.663436V0.665948L16.6722 1.40766C16.2965 1.34961 15.9098 1.52877 15.7527 1.85925L9.68972 14.5843C9.6589 14.6473 9.64767 14.7154 9.65326 14.7836L9.79341 16.5041C9.52153 16.1736 9.23838 15.8406 8.90485 15.5505C8.45915 15.1644 7.7696 14.6725 6.9371 14.8441C6.34002 14.9677 5.93921 15.4495 5.58318 15.8759C5.47105 16.0096 5.36452 16.1383 5.26641 16.2341C4.67776 16.8118 4.24607 16.7664 3.96855 16.6832C3.7247 16.6075 3.47522 16.4814 3.23974 16.3174C3.61816 16.0777 3.98815 15.828 4.34697 15.5631C4.68892 15.3108 5.08136 14.998 5.39255 14.6019C5.59999 14.337 5.83825 13.9813 5.83261 13.5726C5.82982 13.1664 5.61679 12.7552 5.26641 12.4752C4.63013 11.9681 3.82002 11.8697 2.98747 12.1951C2.07925 12.5483 1.44018 13.3027 1.32241 14.1629C1.22989 14.8365 1.48502 15.5782 2.02319 16.2064C1.42611 16.5571 0.817856 16.8926 0.217982 17.2205C0.0329879 17.3214 -0.0258662 17.5384 0.0862578 17.7049C0.198382 17.8714 0.439437 17.9243 0.624431 17.8234C1.26914 17.4702 1.92229 17.112 2.56415 16.731C2.92013 17.0136 3.31541 17.228 3.71342 17.3516C4.46183 17.5812 5.17947 17.3642 5.84378 16.7108C5.96713 16.5897 6.08483 16.4485 6.20818 16.3022C6.48291 15.9742 6.79404 15.6008 7.11076 15.5352C7.46673 15.4621 7.85079 15.6235 8.35535 16.0625C8.69451 16.3551 8.98046 16.7083 9.28595 17.0817C9.50177 17.3491 9.72886 17.6241 9.9755 17.8789C10.054 17.9596 10.1605 18 10.2698 18C10.3455 18 10.4184 17.9798 10.4856 17.942C10.5445 17.9268 10.6006 17.8991 10.651 17.8638L13.0589 16.1003L13.0617 16.0978C13.0729 16.0902 13.0842 16.0802 13.0925 16.0726C13.0925 16.0726 13.0925 16.0726 13.0953 16.0701C13.1065 16.06 13.1149 16.0499 13.1261 16.0398C13.1289 16.0373 13.1317 16.0348 13.1317 16.0322C13.1373 16.0247 13.143 16.0171 13.1513 16.0095C13.1541 16.0045 13.1569 16.0019 13.1598 15.9969C13.1653 15.9893 13.1682 15.9818 13.1738 15.9742C13.1766 15.9692 13.1794 15.9666 13.1822 15.9616C13.1878 15.9515 13.1934 15.9414 13.199 15.9313V15.9288V15.9263L18.8502 3.99608C19.0072 4.06674 19.1249 4.1979 19.1698 4.35178C19.2174 4.51576 19.1754 4.69236 19.0604 4.82609C19.0577 4.8286 19.0549 4.83111 19.0549 4.83367C19.0521 4.83619 19.0493 4.8387 19.0464 4.84126C18.3484 5.74947 17.9336 6.5744 17.7458 7.43722C17.6701 7.78282 17.6281 8.15119 17.6112 8.5977C17.6056 8.79194 17.7738 8.95592 17.9896 8.961C17.9952 8.961 17.9981 8.961 18.0036 8.961C18.2139 8.961 18.3876 8.80963 18.3961 8.61791C18.4101 8.20923 18.4493 7.8762 18.5166 7.57095C18.682 6.80652 19.0577 6.06738 19.6911 5.23988C19.9434 4.94212 20.0332 4.54355 19.9266 4.17519ZM2.09611 14.2512C2.18021 13.6382 2.63992 13.0983 3.29586 12.8435C3.47248 12.7754 3.69109 12.7173 3.92377 12.7173C4.19006 12.7173 4.47316 12.7905 4.7451 13.0075C4.93009 13.1538 5.04501 13.3733 5.04785 13.5801C5.05064 13.7895 4.89089 14.0191 4.75074 14.1982C4.49287 14.5262 4.15086 14.7961 3.84816 15.0206C3.46974 15.2981 3.07731 15.563 2.67365 15.8153C2.23348 15.3209 2.02604 14.7533 2.09611 14.2512ZM10.7577 16.6756L10.6736 15.6438C10.9764 15.8128 11.3071 15.9415 11.6519 16.0222L10.7577 16.6756ZM12.4059 15.4142C11.75 15.384 11.1249 15.1443 10.6484 14.7381L14.4887 6.67777L16.2238 7.34631L12.4059 15.4142ZM16.5321 6.70054L14.7969 6.032L16.5825 2.28566L18.3036 2.95922L16.5321 6.70054ZM18.4074 1.20086L18.0682 1.92744L17.5552 1.72562L17.8972 1.0016C17.956 0.877971 18.1186 0.819977 18.2588 0.875458C18.3989 0.928378 18.4634 1.07472 18.4074 1.20086Z" fill="white"/>
</g>
<defs>
<clipPath id="clip0_394_599">
<rect width="20" height="18" fill="white"/>
</clipPath>
</defs>
</svg>
