<svg width="24" height="24" viewBox="0 0 24 24" fill="none" xmlns="http://www.w3.org/2000/svg">
<rect width="24" height="24" rx="12" fill="black" fill-opacity="0.1"/>
<path fill-rule="evenodd" clip-rule="evenodd" d="M12.0001 6.75009C13.4488 6.75009 14.625 7.92628 14.625 9.375C14.625 10.8237 13.4488 11.9999 12.0001 11.9999C10.5514 11.9999 9.37519 10.8237 9.37519 9.375C9.37519 7.92628 10.5514 6.75009 12.0001 6.75009ZM14.2501 12.75C14.7473 12.75 15.2243 12.9474 15.5759 13.2993C15.9275 13.6508 16.1252 14.1278 16.1252 14.6251V15.6086C16.1252 16.0848 15.8257 16.5095 15.3768 16.6689C15.3759 16.6692 15.3748 16.6698 15.374 16.6701C13.1237 17.4486 10.8751 17.4508 8.62622 16.6667L8.62369 16.6658C8.17819 16.5072 7.88006 16.0859 7.87838 15.6128C7.875 15.3364 7.875 14.9806 7.875 14.6251C7.875 14.1278 8.07272 13.6508 8.42428 13.2993C8.77584 12.9474 9.25284 12.75 9.75009 12.75H14.2501Z" fill="black"/>
</svg>
