<svg width="12" height="12" viewBox="0 0 12 12" fill="none" xmlns="http://www.w3.org/2000/svg">
<g clip-path="url(#clip0_343_1078)">
<path d="M11.1613 3.73331C11.3109 3.52875 11.2663 3.24056 11.0615 3.09094C10.8483 2.93475 10.5598 2.97937 10.4101 3.18394L9.99783 3.74756L10.7488 4.29712L11.1613 3.73331Z" fill="white"/>
<path d="M1.31062 11.0081H7.7625C8.0715 11.0081 8.32294 10.7567 8.32294 10.4475V8.24719L7.91306 8.80725C7.91156 8.80931 7.90912 8.81044 7.90744 8.81231C7.89525 8.8275 7.881 8.84081 7.8645 8.85187C7.86169 8.85375 7.85925 8.856 7.85644 8.85769C7.85494 8.85862 7.85381 8.85975 7.8525 8.86069L6.49575 9.60975C6.46744 9.62531 6.43631 9.63319 6.40519 9.63319C6.36619 9.63319 6.32719 9.621 6.29437 9.597C6.23569 9.55387 6.207 9.48056 6.22125 9.40894L6.52462 7.88906C6.52481 7.88775 6.52556 7.88662 6.52594 7.88531C6.5265 7.88231 6.528 7.87969 6.52875 7.87669C6.53419 7.85681 6.54281 7.83862 6.55406 7.82194C6.55556 7.81987 6.55575 7.81725 6.55725 7.81519L8.32294 5.40187V1.5525C8.32294 1.2435 8.0715 0.991875 7.7625 0.991875H1.31062C1.00162 0.991875 0.75 1.24331 0.75 1.5525V10.4475C0.75 10.7565 1.00162 11.0081 1.31062 11.0081ZM2.09756 2.13469H6.975C7.07869 2.13469 7.1625 2.21869 7.1625 2.32219C7.1625 2.42569 7.07869 2.50969 6.975 2.50969H2.09756C1.99388 2.50969 1.91006 2.42569 1.91006 2.32219C1.91006 2.21869 1.99388 2.13469 2.09756 2.13469ZM2.09756 3.43781H6.975C7.07869 3.43781 7.1625 3.52181 7.1625 3.62531C7.1625 3.72881 7.07869 3.81281 6.975 3.81281H2.09756C1.99388 3.81281 1.91006 3.72881 1.91006 3.62531C1.91006 3.52181 1.99388 3.43781 2.09756 3.43781ZM2.09756 4.74094H6.975C7.07869 4.74094 7.1625 4.82494 7.1625 4.92844C7.1625 5.03194 7.07869 5.11594 6.975 5.11594H2.09756C1.99388 5.11594 1.91006 5.03194 1.91006 4.92844C1.91006 4.82494 1.99388 4.74094 2.09756 4.74094ZM2.09756 6.04425H6.40519C6.50887 6.04425 6.59269 6.12825 6.59269 6.23175C6.59269 6.33525 6.50887 6.41925 6.40519 6.41925H2.09756C1.99388 6.41925 1.91006 6.33525 1.91006 6.23175C1.91006 6.12825 1.99388 6.04425 2.09756 6.04425ZM2.09756 7.34737H5.56238C5.66606 7.34737 5.74988 7.43137 5.74988 7.53487C5.74988 7.63837 5.66606 7.72237 5.56238 7.72237H2.09756C1.99388 7.72237 1.91006 7.63837 1.91006 7.53487C1.91006 7.43137 1.99388 7.34737 2.09756 7.34737ZM1.49213 9.41231C1.60744 9.0285 1.84762 8.72775 2.15119 8.5875C2.53406 8.4105 3.00281 8.52262 3.21806 8.84306C3.24487 8.88281 3.26738 8.92519 3.2895 8.96775C3.30675 9.00075 3.32344 9.03394 3.345 9.06412C3.40706 9.15037 3.52237 9.20062 3.62981 9.18525C3.65494 9.1815 3.66337 9.17662 3.66337 9.17662C3.669 9.17194 3.68325 9.1515 3.69281 9.138C3.70331 9.12319 3.71362 9.10856 3.72487 9.0945C3.9045 8.86594 4.25213 8.78681 4.55194 8.90587C4.70981 8.96869 4.85325 9.0765 4.9785 9.22612C5.03963 9.29962 5.14313 9.34331 5.25563 9.34331H5.856C5.95969 9.34331 6.0435 9.42731 6.0435 9.53081C6.0435 9.63431 5.95969 9.71831 5.856 9.71831H5.25563C5.03006 9.71831 4.824 9.62662 4.6905 9.4665C4.60594 9.36525 4.51256 9.29381 4.41319 9.25425C4.287 9.204 4.10531 9.21712 4.01962 9.32606L3.99937 9.354C3.97331 9.39075 3.94106 9.43669 3.88931 9.47587C3.83381 9.51806 3.76631 9.5445 3.68325 9.5565C3.438 9.59231 3.18525 9.4845 3.04013 9.28294C3.00806 9.23812 2.98219 9.18994 2.95706 9.14137C2.94131 9.11119 2.92594 9.08081 2.90681 9.0525C2.78381 8.86931 2.49787 8.841 2.30869 8.92819C2.10244 9.02344 1.93594 9.23925 1.85156 9.5205C1.82156 9.6195 1.71825 9.67612 1.61794 9.64612C1.51894 9.61631 1.46269 9.51187 1.49231 9.41269L1.49213 9.41231Z" fill="white"/>
<path d="M6.97339 7.88782L9.7816 4.05326L10.5324 4.60311L7.7242 8.43767L6.97339 7.88782Z" fill="white"/>
<path d="M6.66806 9.08625L7.41412 8.67431L6.83494 8.25056L6.66806 9.08625Z" fill="white"/>
</g>
<defs>
<clipPath id="clip0_343_1078">
<rect width="12" height="12" fill="white"/>
</clipPath>
</defs>
</svg>
